<svg xmlns="http://www.w3.org/2000/svg" width="836" height="1254" viewBox="0 0 836 1254">
<g>
<path d="M 358.47,957.06 C355.60,955.88 354.32,954.13 347.98,942.65 C342.74,933.15 325.48,903.04 307.49,872.00 C302.56,863.50 299.65,857.39 299.63,855.50 C299.61,853.53 302.06,848.38 306.75,840.50 C310.69,833.90 322.62,813.29 333.27,794.70 C343.93,776.11 353.40,760.02 354.31,758.95 C355.93,757.06 357.78,757.00 417.82,757.00 L 479.65,757.00 L 481.65,759.25 C482.75,760.49 485.93,765.55 488.72,770.50 C491.51,775.45 497.96,786.70 503.04,795.50 C525.09,833.66 535.30,851.65 536.14,853.86 C537.41,857.22 535.94,860.19 515.98,894.50 C510.86,903.30 501.10,920.17 494.28,932.00 C487.47,943.83 481.00,954.40 479.92,955.50 C477.99,957.45 476.48,957.50 419.22,957.70 C386.93,957.81 359.58,957.52 358.47,957.06 M 484.71,917.00 C492.18,904.08 503.19,885.03 509.18,874.67 L 520.06,855.84 L 510.12,838.67 C504.65,829.23 493.88,810.48 486.18,797.00 L 472.18,772.50 L 418.67,772.24 L 365.15,771.98 L 363.19,774.74 C362.11,776.26 356.05,786.50 349.73,797.50 C343.41,808.50 333.22,826.13 327.09,836.68 L 315.94,855.86 L 338.91,895.37 C351.55,917.10 362.60,936.26 363.47,937.95 L 365.06,941.02 L 418.10,940.76 L 471.13,940.50 L 484.71,917.00 M 161.27,844.75 C160.13,843.51 158.30,840.92 157.22,839.00 C151.14,828.25 127.00,786.18 122.51,778.50 C119.61,773.55 114.22,764.20 110.53,757.73 L 103.81,745.96 L 106.52,740.73 C108.00,737.85 114.97,725.60 122.00,713.50 C129.02,701.40 140.47,681.60 147.44,669.50 C154.41,657.40 161.04,646.71 162.17,645.75 C164.07,644.13 168.42,644.00 221.89,644.00 C271.64,644.00 279.85,644.21 281.71,645.51 C282.89,646.34 287.56,653.42 292.08,661.26 C296.60,669.09 303.22,680.45 306.80,686.50 C327.95,722.27 340.00,743.74 340.00,745.67 C340.00,747.40 334.33,757.83 320.51,781.50 C317.30,787.00 312.77,794.88 310.46,799.00 C299.41,818.65 283.75,844.63 282.27,845.75 C280.99,846.72 267.34,847.00 221.98,847.00 L 163.35,847.00 L 161.27,844.75 M 279.29,821.25 C291.21,801.31 323.00,746.29 323.00,745.61 C323.00,745.24 321.26,741.91 319.14,738.22 C314.96,730.96 299.07,703.43 283.78,677.00 L 274.24,660.50 L 222.73,660.24 L 171.22,659.98 L 160.72,678.24 C150.25,696.43 126.12,738.13 123.16,743.13 C121.65,745.68 121.79,746.08 127.93,756.63 C131.41,762.61 142.57,782.01 152.74,799.75 L 171.22,832.00 L 222.05,832.00 L 272.87,832.00 L 279.29,821.25 M 552.70,844.60 C551.49,843.28 544.35,831.47 536.84,818.35 C529.33,805.23 518.35,786.17 512.44,776.00 C496.89,749.23 496.04,747.66 496.02,745.92 C496.01,745.04 507.08,725.02 520.61,701.42 C534.15,677.81 546.79,655.68 548.71,652.23 C550.63,648.78 553.03,645.52 554.04,644.98 C556.54,643.64 670.48,643.65 672.99,644.99 C674.01,645.54 681.69,657.80 690.06,672.24 C698.44,686.68 707.41,702.10 710.01,706.50 C721.92,726.69 732.00,744.86 731.98,746.12 C731.96,747.70 729.79,751.67 717.84,772.00 C713.15,779.98 705.46,793.25 700.76,801.50 C685.38,828.45 677.06,842.31 674.84,844.67 L 672.65,847.00 L 613.78,847.00 L 554.90,847.00 L 552.70,844.60 M 665.20,830.22 C666.62,828.54 669.52,823.66 685.55,796.00 C700.98,769.38 709.70,754.44 711.83,751.00 C713.02,749.08 713.99,746.85 714.00,746.06 C714.00,744.61 707.28,732.67 680.18,686.00 L 665.37,660.50 L 613.76,660.24 L 562.16,659.98 L 559.26,665.24 C555.82,671.48 515.95,740.55 514.01,743.63 C512.79,745.56 513.20,746.67 518.19,755.13 C526.89,769.90 540.82,794.03 551.01,812.00 C556.15,821.08 561.02,829.28 561.83,830.24 C563.18,831.85 567.02,831.98 613.51,831.96 C659.81,831.95 663.85,831.81 665.20,830.22 M 354.28,741.75 C353.13,740.51 347.37,731.17 341.47,721.00 C335.57,710.83 328.37,698.45 325.48,693.50 C299.39,648.81 297.00,644.35 297.00,640.35 C297.00,637.77 299.65,633.03 326.18,588.00 C332.50,577.27 340.33,563.81 343.59,558.08 C346.84,552.34 350.70,546.38 352.17,544.83 L 354.85,542.00 L 417.87,542.00 L 480.89,542.00 L 483.36,544.25 C484.72,545.49 489.76,553.25 494.57,561.50 C499.37,569.75 507.10,583.02 511.75,591.00 C533.38,628.14 538.19,637.02 538.65,640.68 C539.09,644.15 537.77,646.88 524.27,670.50 C510.56,694.46 493.07,724.39 485.70,736.50 C484.03,739.25 481.97,742.06 481.14,742.75 C479.96,743.72 465.81,744.00 417.98,744.00 L 356.35,744.00 L 354.28,741.75 M 411.00,716.18 L 411.00,703.37 L 404.36,702.05 C394.49,700.09 384.80,694.80 376.95,687.09 L 370.22,680.48 L 365.86,683.24 C363.46,684.76 357.79,688.11 353.25,690.68 C348.71,693.25 345.00,695.76 345.00,696.26 C345.00,697.09 353.92,712.45 361.26,724.25 L 364.21,729.00 L 387.60,729.00 L 411.00,729.00 L 411.00,716.18 M 473.39,727.43 C473.72,726.56 477.87,719.32 482.61,711.34 C487.35,703.36 490.84,696.46 490.36,696.01 C489.08,694.79 466.29,681.00 465.56,681.00 C465.22,681.00 463.51,682.63 461.75,684.63 C458.22,688.66 450.37,694.70 445.00,697.54 C443.07,698.56 437.90,700.36 433.50,701.54 L 425.50,703.69 L 425.37,716.35 L 425.25,729.00 L 449.02,729.00 C469.72,729.00 472.86,728.80 473.39,727.43 M 410.99,677.25 L 410.98,667.50 L 407.24,665.78 C405.18,664.84 402.81,663.55 401.97,662.92 C400.74,662.01 398.84,662.73 392.47,666.56 C388.08,669.19 384.31,671.49 384.07,671.68 C383.39,672.23 388.99,677.72 393.22,680.65 C397.18,683.40 406.09,686.91 409.25,686.97 C410.80,687.00 411.00,685.89 410.99,677.25 M 438.83,683.07 C441.95,681.48 446.44,678.51 448.80,676.47 C453.78,672.17 454.22,672.86 441.95,665.90 C435.61,662.31 434.63,662.02 433.16,663.31 C432.25,664.11 430.10,665.47 428.38,666.34 L 425.26,667.92 L 425.32,677.56 L 425.38,687.19 L 429.27,686.57 C431.40,686.23 435.71,684.65 438.83,683.07 M 362.26,668.06 C362.67,667.69 361.89,664.16 360.51,660.21 C357.23,650.84 357.00,636.40 359.96,626.88 C361.04,623.42 361.79,620.46 361.64,620.30 C361.48,620.15 355.32,616.38 347.94,611.92 C337.74,605.77 334.32,604.15 333.72,605.16 C333.29,605.90 328.39,614.15 322.85,623.50 L 312.77,640.50 L 315.49,645.50 C316.98,648.25 321.24,655.67 324.95,662.00 C328.66,668.33 332.89,675.60 334.35,678.17 L 336.99,682.85 L 349.25,675.79 C355.99,671.91 361.84,668.43 362.26,668.06 M 511.00,662.87 C517.33,651.80 522.63,642.41 522.79,641.99 C522.95,641.58 518.09,632.66 511.99,622.16 L 500.89,603.08 L 494.20,607.37 C490.51,609.74 487.05,611.85 486.50,612.08 C483.69,613.26 474.00,619.28 474.01,619.85 C474.02,620.21 474.92,623.35 476.01,626.84 C478.98,636.31 478.76,651.23 475.51,660.45 C474.16,664.26 473.23,667.57 473.45,667.78 C474.14,668.47 498.48,682.94 499.00,682.97 C499.28,682.99 504.68,673.94 511.00,662.87 M 393.15,650.00 C393.50,650.00 393.64,647.23 393.46,643.84 L 393.13,637.68 L 384.81,632.86 C380.24,630.21 376.22,628.03 375.88,628.02 C374.61,627.98 372.63,637.60 372.69,643.56 C372.72,646.95 373.50,651.98 374.42,654.74 L 376.08,659.77 L 384.29,654.88 C388.81,652.20 392.79,650.00 393.15,650.00 M 462.08,654.28 C463.95,647.69 463.81,638.58 461.74,631.85 L 460.00,626.19 L 451.84,631.10 C447.35,633.79 443.42,636.00 443.09,636.00 C442.77,636.00 442.54,639.01 442.60,642.70 L 442.70,649.40 L 451.10,654.52 C455.72,657.34 459.78,659.52 460.11,659.35 C460.45,659.19 461.34,656.90 462.08,654.28 M 424.74,652.43 C431.38,648.08 429.89,636.52 422.27,633.34 C417.40,631.31 412.75,632.32 409.56,636.11 C404.90,641.64 406.52,648.85 413.37,653.12 C416.82,655.28 420.77,655.04 424.74,652.43 M 406.11,622.75 L 410.92,620.50 L 410.96,609.67 L 411.00,598.84 L 407.75,599.54 C398.98,601.44 390.63,606.03 384.84,612.13 L 382.17,614.94 L 390.84,619.94 C395.60,622.70 399.91,624.96 400.40,624.98 C400.90,624.99 403.47,623.99 406.11,622.75 M 444.21,619.88 L 453.17,614.75 L 449.33,610.82 C445.58,606.96 434.22,600.75 428.75,599.56 L 426.00,598.96 L 426.04,609.73 L 426.07,620.50 L 430.29,622.61 C432.60,623.77 434.67,624.78 434.88,624.86 C435.09,624.94 439.29,622.69 444.21,619.88 M 374.71,600.85 C377.34,598.01 381.83,594.20 384.67,592.37 C390.53,588.60 403.31,584.00 407.93,584.00 L 411.00,584.00 L 411.00,570.00 L 411.00,556.00 L 387.06,556.00 L 363.13,556.00 L 356.70,566.75 C346.19,584.35 342.89,590.23 343.31,590.64 C344.19,591.52 368.55,605.94 369.21,605.97 C369.60,605.99 372.08,603.68 374.71,600.85 M 472.21,602.83 C475.12,601.09 481.17,597.60 485.66,595.06 L 493.83,590.46 L 488.10,580.98 C484.95,575.77 480.55,568.12 478.32,564.00 L 474.27,556.50 L 450.04,556.50 L 425.81,556.50 L 425.77,570.00 L 425.74,583.50 L 430.32,584.16 C441.11,585.71 453.86,592.53 461.91,601.03 C464.43,603.70 466.59,605.91 466.71,605.94 C466.82,605.97 469.29,604.58 472.21,602.83 M 161.10,629.25 C159.93,628.29 153.21,617.38 146.16,605.00 C139.12,592.62 126.98,571.41 119.18,557.85 C111.38,544.29 105.00,532.23 105.00,531.05 C105.00,528.54 107.10,524.64 123.09,497.36 C129.58,486.28 140.24,467.83 146.77,456.36 C161.54,430.40 160.92,431.36 163.74,430.07 C165.33,429.35 184.78,429.00 223.37,429.00 L 280.65,429.00 L 282.72,431.25 C283.86,432.49 288.74,440.25 293.57,448.50 C298.39,456.75 304.58,467.32 307.32,472.00 C315.70,486.31 334.18,518.21 337.15,523.50 C338.70,526.25 339.97,529.62 339.97,531.00 C339.98,533.65 335.68,541.54 310.29,585.50 C288.46,623.30 284.76,629.51 283.64,630.23 C283.01,630.64 255.66,630.98 222.86,630.98 C167.52,631.00 163.07,630.87 161.10,629.25 M 285.41,597.25 C291.40,586.94 298.42,574.90 301.00,570.50 C313.87,548.56 323.48,531.53 323.31,530.97 C323.11,530.32 308.85,505.44 290.08,473.00 C283.88,462.27 277.70,451.59 276.36,449.25 L 273.92,445.00 L 222.71,445.02 L 171.50,445.04 L 163.08,459.77 C158.45,467.87 147.92,486.20 139.67,500.50 C131.42,514.80 124.03,527.62 123.25,529.00 C121.90,531.39 122.53,532.71 138.00,559.50 C146.89,574.90 157.81,593.91 162.27,601.75 L 170.38,616.00 L 222.44,616.00 L 274.50,616.00 L 285.41,597.25 M 552.75,629.75 C551.85,629.06 548.01,623.10 544.22,616.50 C540.43,609.90 529.52,591.00 519.97,574.50 C497.02,534.86 495.70,532.34 496.37,529.70 C496.92,527.52 500.60,520.96 519.20,489.00 C524.48,479.93 534.13,463.29 540.65,452.03 C548.58,438.32 553.33,431.14 555.00,430.29 C558.15,428.70 670.03,428.41 672.97,429.98 C673.98,430.52 676.93,434.69 679.54,439.23 C682.14,443.78 687.31,452.68 691.03,459.00 C715.85,501.22 731.29,528.84 731.29,531.00 C731.30,533.23 721.76,550.26 693.20,599.00 C688.53,606.98 683.82,615.08 682.74,617.00 C677.37,626.55 675.64,629.12 673.96,630.02 C671.03,631.59 554.81,631.33 552.75,629.75 M 670.34,607.00 C673.07,602.33 678.31,593.33 681.99,587.00 C685.67,580.67 691.95,569.88 695.94,563.00 C699.93,556.12 705.68,546.35 708.72,541.27 C711.99,535.82 714.04,531.32 713.75,530.27 C713.47,529.30 702.42,509.82 689.19,487.00 L 665.13,445.50 L 613.82,445.25 L 562.50,445.01 L 551.58,464.25 C545.57,474.84 534.35,494.25 526.64,507.40 C512.98,530.71 512.67,531.36 514.15,533.90 C514.98,535.33 520.76,545.27 526.99,556.00 C533.23,566.73 542.39,582.48 547.36,591.00 C552.32,599.52 557.54,608.64 558.94,611.25 L 561.50,616.00 L 613.45,615.75 L 665.39,615.50 L 670.34,607.00 M 355.33,525.75 C354.22,524.51 349.36,516.52 344.52,508.00 C339.68,499.48 327.68,478.70 317.86,461.82 C305.11,439.92 300.00,430.26 300.00,428.03 C300.00,425.97 302.58,420.46 307.65,411.71 C311.85,404.44 323.80,383.65 334.19,365.50 C344.58,347.35 354.21,331.49 355.60,330.25 L 358.11,328.00 L 418.00,328.00 L 477.89,328.00 L 480.32,330.25 C481.66,331.49 492.80,350.05 505.08,371.50 C517.37,392.95 529.35,413.86 531.71,417.98 C534.07,422.09 536.00,426.71 536.00,428.25 C536.00,430.95 519.50,460.83 498.32,496.50 C493.42,504.75 487.90,514.20 486.05,517.50 C484.21,520.80 481.79,524.51 480.67,525.75 L 478.65,528.00 L 418.00,528.00 L 357.35,528.00 L 355.33,525.75 M 477.00,502.25 C480.44,496.34 485.50,487.68 488.24,483.00 C490.99,478.32 499.25,464.06 506.61,451.31 L 519.99,428.12 L 513.91,417.81 C510.56,412.14 499.65,393.32 489.66,376.00 L 471.50,344.50 L 418.29,344.24 L 365.09,343.98 L 358.18,355.74 C354.38,362.21 348.58,372.23 345.30,378.00 C329.77,405.30 319.72,422.58 317.86,425.19 L 315.82,428.06 L 322.08,438.78 C325.52,444.68 331.77,455.35 335.97,462.50 C340.17,469.65 348.48,483.94 354.44,494.25 L 365.27,513.00 L 418.00,513.00 L 470.74,513.00 L 477.00,502.25 Z" fill="rgba(0,0,0,1)"/>
</g>
</svg>