<svg xmlns="http://www.w3.org/2000/svg" width="836" height="1254" viewBox="0 0 836 1254">
<g>
<path d="M 431.25,1197.89 C425.81,1195.20 419.01,1187.64 415.65,1180.54 C411.11,1170.95 409.72,1162.41 410.23,1147.12 C410.80,1129.93 413.00,1122.89 427.00,1093.51 C438.84,1068.63 441.91,1055.94 441.85,1032.05 C441.80,1010.12 438.52,994.22 430.36,976.31 C429.06,973.46 428.00,970.91 428.00,970.64 C428.00,970.38 424.25,962.14 419.67,952.33 C405.42,921.86 399.38,900.72 396.41,871.00 C394.99,856.79 394.94,852.30 395.99,838.64 C396.66,829.91 397.98,819.00 398.91,814.39 C399.85,809.77 400.25,806.00 399.81,806.00 C399.36,806.00 399.00,806.44 399.00,806.98 C399.00,807.52 396.33,813.48 393.06,820.23 C383.90,839.15 381.20,847.38 379.83,860.51 C377.73,880.62 380.53,893.45 392.43,918.41 C400.19,934.66 407.71,953.84 413.46,972.00 C430.62,1026.27 426.71,1064.73 400.62,1098.34 C382.35,1121.88 378.87,1127.95 377.42,1138.87 C376.90,1142.83 377.13,1144.55 378.45,1146.57 C380.43,1149.58 380.01,1150.46 377.06,1149.52 C371.94,1147.89 370.52,1137.29 373.97,1126.29 C376.07,1119.59 381.61,1110.08 388.98,1100.50 C400.36,1085.72 408.28,1070.80 412.08,1057.00 C414.12,1049.61 414.43,1046.28 414.41,1031.50 C414.39,1016.17 414.08,1013.08 411.22,1000.00 C407.87,984.65 405.37,975.04 404.52,974.18 C404.23,973.90 404.00,975.68 404.00,978.15 C404.00,991.86 393.45,1010.22 382.40,1015.76 C365.15,1024.41 345.11,1010.35 354.23,996.00 L 356.46,992.50 L 357.00,998.00 C357.30,1001.02 358.35,1004.70 359.33,1006.16 C361.05,1008.73 366.49,1012.00 369.04,1012.00 C376.98,1012.00 387.93,1002.80 393.07,991.80 C396.28,984.92 396.49,983.77 396.83,971.91 C397.14,961.22 396.86,958.12 394.98,951.42 C392.42,942.30 388.23,931.70 381.58,917.50 C377.41,908.60 376.34,907.12 371.75,904.00 C364.80,899.28 355.78,890.84 351.63,885.16 C347.74,879.85 340.37,865.63 339.60,861.96 C339.32,860.61 338.40,857.02 337.56,854.00 C336.71,850.98 336.01,847.15 336.00,845.50 C335.98,843.85 335.70,841.48 335.37,840.24 C334.81,838.15 334.56,838.29 332.01,842.24 C320.64,859.84 300.20,862.71 292.41,847.80 C290.33,843.81 290.63,837.74 293.07,834.63 C296.09,830.80 298.11,831.12 296.93,835.24 C293.55,847.03 306.21,854.70 316.60,847.17 C326.45,840.03 331.79,830.15 336.96,809.56 C341.54,791.27 348.64,775.14 358.31,761.03 C366.69,748.81 383.91,730.23 384.69,732.58 C384.96,733.39 375.68,748.28 366.67,761.50 C363.31,766.43 356.81,779.23 353.72,787.00 C340.57,820.06 340.98,852.58 354.86,876.43 C358.54,882.76 372.39,897.94 373.49,896.84 C373.85,896.48 373.35,894.01 372.38,891.34 C369.56,883.60 369.25,859.88 371.82,848.96 C373.79,840.56 373.79,840.45 371.87,833.00 C368.56,820.22 369.63,797.20 374.20,783.00 C378.02,771.14 388.72,749.02 395.02,740.00 C397.05,737.09 407.64,716.24 411.53,707.50 C413.00,704.20 415.47,697.67 417.03,693.00 C421.03,681.01 421.48,687.61 417.89,705.50 C415.50,717.42 410.50,729.55 400.17,748.50 C383.55,779.00 379.49,791.03 378.91,811.50 C378.38,829.75 377.74,830.21 391.63,802.50 C410.81,764.23 416.24,751.83 420.95,735.50 C427.20,713.85 428.68,691.63 425.54,666.50 C421.30,632.55 420.79,626.24 421.35,614.50 C422.02,600.32 423.19,593.33 426.69,582.50 C432.19,565.52 441.05,551.02 454.41,537.13 C460.49,530.82 476.85,517.00 478.25,517.00 C478.51,517.00 482.72,514.38 487.61,511.18 C492.50,507.98 499.88,503.46 504.00,501.12 C525.81,488.80 538.32,479.65 553.35,465.05 C588.40,430.97 606.29,394.75 611.12,348.08 C612.54,334.33 611.75,309.27 609.50,296.50 C605.20,272.06 595.05,245.77 582.67,227.00 C552.89,181.82 512.54,154.27 460.50,143.58 C435.57,138.45 402.42,138.05 381.37,142.62 C377.59,143.43 372.93,144.36 371.00,144.67 C356.00,147.10 328.56,158.05 313.17,167.74 C299.28,176.49 277.46,195.61 266.67,208.50 C263.91,211.80 261.35,214.41 260.99,214.31 C260.63,214.20 260.33,214.65 260.33,215.31 C260.33,215.97 257.61,220.56 254.29,225.51 C231.67,259.18 221.63,299.53 224.93,343.50 C225.59,352.30 227.04,363.72 228.15,368.87 C229.26,374.03 230.34,379.16 230.56,380.29 C231.85,386.99 238.18,403.44 243.99,415.14 C248.02,423.27 268.00,453.65 268.00,451.65 C268.00,451.34 270.81,454.10 274.25,457.79 C288.44,473.02 308.83,488.69 328.50,499.47 C362.79,518.27 382.28,534.59 397.19,557.00 C403.72,566.81 410.85,584.03 412.52,594.00 C412.85,595.92 413.54,599.30 414.07,601.50 C414.60,603.70 415.31,611.12 415.64,618.00 C416.13,628.30 415.85,632.79 414.03,643.50 C411.25,659.83 408.51,668.10 400.41,684.65 C392.18,701.45 381.75,716.10 369.88,727.54 C358.56,738.46 351.36,743.87 340.61,749.56 C323.84,758.45 310.79,761.66 295.12,760.77 C278.02,759.80 265.66,750.66 263.54,737.42 C262.04,728.12 268.30,717.00 275.03,717.00 C278.66,717.00 278.74,717.63 275.48,720.19 C267.85,726.20 268.15,738.12 276.13,745.70 C282.39,751.64 288.05,753.39 300.53,753.24 C309.74,753.14 312.80,752.67 319.03,750.44 C333.78,745.17 347.03,736.59 361.18,723.14 C366.62,717.97 370.94,713.61 370.78,713.45 C370.63,713.29 368.16,713.77 365.29,714.51 C359.05,716.13 354.56,715.18 349.90,711.26 C344.05,706.34 342.60,699.67 345.94,693.12 C348.10,688.89 354.26,683.00 356.53,683.00 C358.51,683.00 358.49,683.07 354.50,689.00 C349.25,696.81 350.06,703.49 356.67,706.87 C363.34,710.29 377.37,701.71 386.07,688.90 C394.47,676.53 398.35,667.85 402.79,651.50 C405.29,642.26 405.50,640.06 405.49,622.50 C405.48,605.79 405.21,602.54 403.21,595.50 C397.09,573.88 388.95,559.18 375.06,544.63 C363.22,532.24 350.27,523.02 324.00,508.30 C301.14,495.49 281.76,480.98 268.47,466.71 C237.48,433.44 220.43,397.42 215.15,354.00 C213.83,343.22 213.74,313.10 214.99,302.10 C216.82,285.91 221.72,267.65 228.84,250.50 C250.02,199.42 295.39,156.87 347.05,139.64 C359.49,135.49 377.68,131.30 389.19,129.95 C397.86,128.92 436.32,128.46 437.78,129.36 C438.24,129.65 441.29,129.96 444.56,130.04 C456.55,130.37 480.15,135.93 497.50,142.51 C527.28,153.80 562.72,181.06 582.63,208.00 C591.42,219.88 600.33,234.66 599.50,235.99 C599.16,236.55 599.38,237.00 599.98,237.00 C602.00,237.00 609.99,256.33 614.24,271.50 C620.71,294.59 621.45,300.49 621.45,328.50 C621.45,344.84 621.00,356.73 620.24,360.50 C617.71,373.03 614.68,384.92 614.10,384.57 C613.77,384.36 613.46,385.40 613.41,386.86 C613.12,395.01 598.90,425.23 588.30,440.22 C566.94,470.42 543.53,490.50 503.50,512.96 C461.28,536.64 440.74,560.53 432.97,594.98 C430.30,606.80 430.02,630.33 432.37,645.50 C434.03,656.24 434.44,659.34 436.51,676.89 C439.16,699.41 434.84,729.21 425.04,756.00 C414.96,783.54 412.69,790.66 410.51,801.50 C405.75,825.23 404.50,854.02 407.45,872.36 C409.60,885.68 412.43,892.16 421.54,904.55 C430.78,917.13 439.13,924.74 462.88,942.23 C492.99,964.41 507.23,984.56 508.73,1007.12 C509.28,1015.37 507.81,1022.00 505.42,1022.00 C504.33,1022.00 503.98,1020.31 503.92,1014.75 C503.87,1010.76 503.62,1006.16 503.35,1004.53 C502.56,999.61 497.06,987.36 492.91,981.24 C488.09,974.14 477.78,961.89 477.14,962.52 C476.89,962.78 477.37,963.78 478.21,964.74 C484.58,972.07 490.39,982.65 494.55,994.50 C497.09,1001.75 497.36,1003.81 497.41,1016.50 C497.47,1031.57 496.83,1034.27 491.27,1042.31 C486.43,1049.33 476.77,1053.09 471.22,1050.12 C467.94,1048.36 468.52,1047.00 472.55,1047.00 C479.21,1047.00 484.32,1042.92 488.20,1034.49 C490.19,1030.16 490.49,1027.91 490.49,1017.50 C490.48,1007.56 490.06,1004.22 488.06,998.00 C481.83,978.68 470.03,963.83 438.40,935.50 C428.41,926.55 416.50,913.73 414.12,909.37 C412.68,906.74 412.52,906.68 412.22,908.61 C411.65,912.30 426.64,947.03 437.41,967.00 C439.74,971.32 446.05,991.04 448.77,1002.50 C451.03,1012.02 451.39,1015.79 451.44,1030.50 C451.53,1055.99 447.62,1071.62 434.33,1099.00 C418.98,1130.59 415.28,1148.03 419.99,1166.46 C422.43,1176.00 425.33,1181.96 430.26,1187.56 C434.28,1192.12 442.83,1197.00 446.82,1197.00 C448.86,1197.00 449.05,1197.24 448.00,1198.50 C446.08,1200.81 436.43,1200.46 431.25,1197.89 M 402.37,1179.08 C394.45,1174.25 389.83,1163.00 389.82,1148.50 C389.81,1129.47 397.45,1111.14 412.85,1093.26 C415.33,1090.38 417.55,1088.22 417.79,1088.45 C418.02,1088.69 415.26,1094.87 411.65,1102.19 C400.10,1125.63 396.46,1140.17 398.09,1156.32 C399.08,1166.05 400.74,1170.81 405.00,1176.13 C408.98,1181.11 407.82,1182.41 402.37,1179.08 M 466.35,876.15 C450.00,870.26 438.32,859.46 429.96,842.50 C423.65,829.71 421.44,818.30 422.39,803.50 C423.55,785.48 425.06,780.31 435.98,757.09 C445.19,737.52 448.61,727.76 450.54,715.50 C453.20,698.67 452.10,681.27 447.11,660.90 C444.50,650.27 442.01,634.10 442.01,627.71 C442.00,621.18 444.62,609.00 447.74,601.06 C457.81,575.43 488.81,554.98 518.00,554.73 C523.70,554.68 530.91,555.58 539.91,557.46 C564.32,562.56 578.63,559.31 583.55,547.53 C586.63,540.16 584.75,534.28 577.91,529.84 C572.57,526.38 572.26,525.86 574.49,524.01 C578.33,520.82 588.59,526.69 591.55,533.77 C594.04,539.72 593.42,547.73 590.02,553.66 C584.82,562.74 575.34,567.22 561.00,567.40 L 552.50,567.50 L 558.04,573.00 C573.38,588.23 570.57,612.19 552.82,617.46 C543.75,620.16 536.64,616.85 533.43,608.46 C532.17,605.16 532.06,603.75 532.94,602.11 C534.31,599.55 536.00,599.35 536.00,601.75 C536.01,604.76 539.63,609.60 542.87,610.94 C549.68,613.77 558.06,608.50 559.58,600.45 C561.91,588.03 554.25,576.05 539.47,568.99 C516.11,557.83 488.26,565.08 466.69,587.94 C457.26,597.95 453.00,607.29 452.27,619.61 C451.63,630.20 452.24,632.45 458.22,641.53 C464.54,651.14 476.36,658.00 486.60,658.00 C494.63,658.00 503.39,652.42 505.94,645.68 C507.69,641.04 507.13,636.80 504.00,631.12 C502.37,628.17 501.25,625.40 501.52,624.97 C502.42,623.51 505.99,625.22 508.87,628.51 C517.66,638.51 513.49,654.93 500.18,662.75 C496.00,665.20 494.53,665.50 486.50,665.49 C478.49,665.48 476.76,665.13 470.75,662.30 C466.48,660.29 461.92,657.05 458.36,653.49 C454.19,649.33 452.90,648.46 453.40,650.18 C453.77,651.46 455.72,658.80 457.73,666.50 L 461.40,680.50 L 461.56,708.00 C461.71,734.21 461.85,735.97 464.34,745.43 C467.87,758.79 473.86,770.62 480.52,777.39 C495.81,792.93 519.40,794.42 528.06,780.40 C530.61,776.28 530.58,769.47 528.01,765.25 C526.14,762.18 526.13,762.00 527.84,762.00 C528.84,762.00 530.60,763.01 531.76,764.25 C538.49,771.43 536.91,783.79 528.38,790.85 C523.86,794.59 513.76,798.00 507.21,798.00 C497.98,798.00 485.78,793.08 477.38,785.99 C472.63,781.97 465.50,772.71 462.65,766.88 C459.28,759.97 455.00,745.63 455.00,741.26 C455.00,739.26 454.59,738.13 454.00,738.50 C453.45,738.84 453.00,739.77 453.00,740.56 C453.00,741.35 451.70,744.81 450.10,748.25 C445.46,758.25 440.94,768.07 438.25,774.00 C431.58,788.68 429.36,809.62 432.89,824.37 C436.82,840.74 446.00,854.51 458.60,862.94 C471.07,871.28 481.03,873.04 490.01,868.49 C497.43,864.74 499.86,858.50 496.47,851.95 C495.04,849.17 495.06,849.00 496.90,849.00 C499.42,849.00 502.78,853.28 503.57,857.52 C505.48,867.73 494.69,877.62 480.50,878.65 C475.65,879.00 472.94,878.52 466.35,876.15 M 339.50,671.13 C324.16,667.05 314.19,652.09 317.19,637.66 C317.93,634.11 319.35,631.63 322.49,628.35 C326.43,624.23 327.12,623.90 331.06,624.19 C336.43,624.58 337.09,626.20 332.56,627.84 C318.93,632.77 320.83,652.95 335.75,661.70 C339.67,664.00 341.60,664.44 347.54,664.44 C353.54,664.44 355.69,663.94 361.25,661.20 C368.76,657.50 376.54,649.71 380.80,641.61 C383.28,636.89 383.49,635.58 383.49,624.50 C383.50,613.45 383.28,612.03 380.71,606.55 C373.11,590.30 360.05,577.43 343.63,569.99 C324.41,561.27 307.08,561.68 291.22,571.24 C278.44,578.93 271.72,594.69 276.90,604.79 C280.48,611.76 287.90,613.91 294.01,609.75 C297.32,607.49 297.96,606.64 299.78,602.00 L 300.76,599.50 L 302.01,602.17 C303.08,604.48 302.95,605.48 301.05,609.39 C295.21,621.47 278.97,621.52 271.50,609.49 C268.98,605.43 268.44,603.42 268.15,596.89 C267.84,590.17 268.15,588.35 270.45,583.31 C271.90,580.12 275.38,575.18 278.17,572.34 L 283.25,567.18 L 274.88,567.30 C259.02,567.52 247.92,561.75 243.99,551.24 C241.53,544.67 241.87,539.38 245.19,532.56 C248.55,525.63 257.26,521.21 261.44,524.31 C263.31,525.70 263.28,525.80 260.44,527.29 C256.22,529.49 252.43,533.92 251.04,538.25 C249.27,543.79 251.82,550.92 256.80,554.33 C263.83,559.14 279.49,561.47 288.01,558.98 C289.93,558.41 297.12,557.02 304.00,555.89 C317.55,553.65 322.69,553.81 334.53,556.87 C342.74,558.99 357.62,566.27 357.23,567.98 C357.07,568.62 357.40,568.87 357.95,568.53 C359.30,567.70 368.40,574.53 374.04,580.61 C393.23,601.27 398.32,626.62 387.38,647.15 C383.25,654.91 373.52,664.17 365.44,668.03 C359.95,670.65 357.23,671.30 350.61,671.58 C346.15,671.77 341.15,671.56 339.50,671.13 M 444.07,597.00 C443.97,589.94 449.50,575.29 455.68,566.23 C465.83,551.37 487.96,535.41 511.30,526.12 C522.69,521.58 531.19,518.86 551.00,513.43 C558.42,511.39 566.52,509.16 569.00,508.47 C595.88,500.94 622.05,482.64 630.01,465.81 C632.52,460.52 633.00,458.26 633.00,451.85 C633.00,445.26 632.58,443.40 629.96,438.43 C628.29,435.25 627.05,432.02 627.21,431.25 C627.74,428.69 634.10,434.15 637.40,440.00 C640.26,445.08 640.50,446.22 640.50,455.00 C640.50,468.08 637.42,474.65 625.81,486.32 C609.08,503.15 591.20,512.16 556.00,521.49 C548.58,523.45 539.80,525.79 536.50,526.68 C519.19,531.33 498.18,540.82 483.40,550.65 C469.01,560.23 454.79,576.10 449.48,588.50 C448.54,590.70 446.95,594.30 445.95,596.50 L 444.12,600.50 L 444.07,597.00 M 390.42,593.47 C383.08,578.60 367.57,560.98 353.07,551.08 C348.99,548.28 345.27,546.00 344.80,546.00 C344.34,546.00 342.28,544.97 340.23,543.71 C331.19,538.15 302.16,527.25 287.50,523.92 C276.43,521.40 256.12,514.55 245.05,509.60 C232.28,503.89 215.83,493.61 209.50,487.38 C195.94,474.03 191.54,456.23 198.07,441.06 C200.28,435.92 204.93,431.00 207.58,431.00 C209.59,431.00 209.37,432.34 206.38,438.24 C204.41,442.12 203.62,445.47 203.24,451.58 C202.79,458.79 203.02,460.37 205.23,465.19 C210.37,476.42 218.35,484.43 233.67,493.74 C246.85,501.75 259.53,506.64 289.00,515.06 C317.74,523.28 324.35,525.61 337.28,532.04 C359.68,543.20 374.58,556.31 385.02,574.08 C389.87,582.33 394.20,593.68 393.74,596.99 C393.45,599.14 392.97,598.64 390.42,593.47 M 440.91,494.77 C438.66,493.94 438.65,493.90 440.56,492.04 C441.63,491.00 444.30,489.88 446.50,489.54 C455.58,488.16 458.50,486.91 462.11,482.86 C464.09,480.63 468.82,477.14 472.61,475.09 C478.39,471.96 479.85,470.63 481.70,466.77 C482.91,464.24 484.83,461.87 485.96,461.51 C491.88,459.64 498.01,450.75 495.99,446.98 C495.44,445.96 495.00,443.34 495.00,441.15 C495.00,437.94 495.59,436.68 498.08,434.59 C501.79,431.47 502.42,431.42 505.04,434.04 C508.84,437.84 509.31,440.86 507.14,447.47 C506.05,450.79 504.86,454.96 504.50,456.75 C504.14,458.54 503.34,460.00 502.72,460.00 C501.90,460.00 501.90,460.30 502.73,461.13 C503.93,462.33 512.01,458.39 518.80,453.30 C520.61,451.94 522.76,451.08 523.58,451.39 C527.56,452.92 516.95,465.20 504.94,472.96 C485.20,485.72 449.40,497.91 440.91,494.77 M 364.50,489.50 C352.81,486.38 344.98,483.24 333.23,476.96 C320.17,469.98 314.15,465.70 302.82,455.35 C291.93,445.40 286.26,438.80 276.75,425.00 C270.87,416.47 259.00,394.52 259.00,392.19 C259.00,391.68 258.14,389.07 257.09,386.38 C251.43,371.86 247.48,349.82 248.26,337.00 C249.05,323.91 249.91,321.00 252.99,321.00 C255.65,321.00 256.44,324.25 256.11,333.88 L 255.83,342.25 L 259.82,346.38 C263.14,349.82 263.90,351.39 264.42,355.88 C265.10,361.79 265.36,362.38 269.00,366.60 C272.50,370.65 276.39,373.00 277.99,372.01 C278.71,371.56 279.66,368.61 280.09,365.46 C281.41,355.73 283.80,355.74 288.84,365.48 C293.56,374.59 298.04,378.34 306.06,379.89 C314.19,381.47 314.93,381.87 317.12,385.96 C318.11,387.80 320.31,391.05 322.02,393.18 C327.92,400.52 326.67,408.09 318.90,412.05 C313.75,414.68 311.76,419.00 312.67,425.63 C313.09,428.66 314.26,431.43 315.91,433.27 C318.93,436.64 319.76,438.99 319.90,444.56 C319.96,447.15 320.87,449.79 322.40,451.87 C326.19,457.00 332.91,463.00 334.88,463.00 C335.86,463.00 336.98,463.31 337.36,463.69 C337.74,464.07 340.19,464.27 342.81,464.13 C347.02,463.90 348.44,464.43 354.79,468.57 C358.76,471.15 362.00,473.66 362.00,474.13 C362.00,475.91 369.14,482.81 372.26,484.06 C377.00,485.95 381.00,488.93 381.00,490.57 C381.00,492.70 375.02,492.31 364.50,489.50 M 417.90,440.67 C413.59,438.74 412.00,436.91 412.00,433.88 C412.00,431.25 411.69,431.00 408.46,431.00 C403.20,431.00 400.24,428.54 398.52,422.76 C396.68,416.56 394.81,415.07 388.78,415.03 C385.06,415.01 383.38,414.40 380.78,412.15 C378.98,410.58 376.15,408.67 374.50,407.90 C372.85,407.13 370.69,404.92 369.70,403.00 C367.89,399.49 367.88,398.97 369.63,386.51 C370.17,382.66 369.89,381.54 367.63,378.58 C364.83,374.91 364.36,372.07 366.04,368.93 C367.30,366.58 369.32,366.48 372.91,368.61 C375.50,370.14 375.93,370.07 382.14,367.17 C389.76,363.61 390.69,362.66 391.77,357.42 C392.46,354.10 393.01,353.45 395.41,353.17 C397.74,352.90 399.15,353.81 403.47,358.42 C409.41,364.75 411.14,365.15 418.46,361.91 C424.57,359.21 428.17,360.45 430.67,366.11 C431.61,368.25 432.88,370.00 433.48,370.00 C435.30,370.00 438.00,375.59 438.00,379.36 C438.00,381.50 437.01,384.38 435.50,386.60 C433.97,388.85 433.00,391.69 433.00,393.92 C433.00,397.83 435.51,402.42 437.11,401.43 C437.65,401.10 439.23,401.57 440.62,402.48 C442.76,403.89 443.10,404.78 442.84,408.32 C442.57,412.02 442.85,412.64 445.27,413.80 C448.46,415.33 448.95,419.20 446.41,422.82 C444.52,425.53 438.19,429.66 434.55,430.58 C432.87,431.00 431.45,432.39 430.59,434.45 C429.08,438.06 424.56,442.04 422.12,441.92 C421.23,441.87 419.33,441.31 417.90,440.67 M 558.51,416.66 C556.10,412.97 558.72,407.03 565.78,400.15 C570.14,395.90 572.88,391.89 576.84,384.00 L 582.09,373.50 L 581.48,379.89 C580.46,390.56 572.18,407.99 563.94,416.84 C561.37,419.59 560.41,419.56 558.51,416.66 M 489.20,408.80 C487.73,407.33 487.64,403.53 489.02,400.96 C491.72,395.91 498.00,396.57 498.00,401.90 C498.00,407.42 492.29,411.89 489.20,408.80 M 510.63,401.14 C509.15,399.51 509.07,398.22 509.94,390.52 C511.13,380.04 510.64,378.76 504.20,375.70 C500.18,373.79 499.21,372.72 497.41,368.22 C494.82,361.73 495.47,355.61 499.21,351.16 C500.62,349.48 501.94,348.27 502.14,348.46 C502.34,348.66 502.62,346.84 502.76,344.42 C503.06,339.36 500.23,335.45 496.91,336.31 C494.69,336.89 491.27,333.11 490.39,329.09 C488.97,322.69 489.15,322.85 484.21,323.40 C478.70,324.00 477.96,323.48 474.60,316.62 C471.74,310.77 469.05,309.00 463.04,309.00 C459.84,309.00 458.53,309.68 455.49,312.88 C451.64,316.94 449.75,317.22 445.53,314.34 C442.68,312.40 439.59,312.69 437.41,315.10 C432.66,320.34 426.80,320.99 421.55,316.86 C419.54,315.28 419.00,313.96 419.00,310.67 C419.00,307.13 419.77,305.55 424.05,300.33 C426.82,296.94 430.16,293.47 431.46,292.62 C432.84,291.72 433.69,290.32 433.49,289.28 C433.31,288.30 433.12,287.19 433.08,286.82 C433.03,286.45 432.25,285.39 431.32,284.47 C429.76,282.91 429.76,282.48 431.28,278.39 C432.53,275.00 432.61,274.00 431.62,274.00 C429.00,274.00 426.44,265.59 427.90,261.77 C428.39,260.47 430.66,258.17 432.94,256.66 C438.06,253.27 439.15,250.52 439.11,241.17 C439.07,234.65 439.35,233.56 441.59,231.32 C444.56,228.35 447.70,228.72 452.32,232.62 C454.12,234.13 455.91,234.86 456.89,234.47 C462.85,232.11 464.46,232.61 469.06,238.28 C479.28,250.88 491.10,253.07 494.14,242.92 C495.35,238.88 495.35,238.86 491.18,235.05 C485.54,229.90 485.54,226.62 491.16,219.18 C494.22,215.12 495.28,212.81 495.19,210.39 C495.12,208.58 495.72,205.84 496.53,204.30 C497.33,202.76 497.99,199.85 497.99,197.84 C498.00,194.94 497.33,193.61 494.75,191.43 C492.96,189.92 491.59,188.37 491.70,187.99 C491.81,187.61 490.83,187.50 489.51,187.75 C485.70,188.48 481.80,183.94 482.19,179.24 C482.47,175.84 482.79,175.47 485.72,175.19 C493.29,174.46 522.01,193.86 540.08,211.92 C566.14,237.97 580.69,264.10 586.68,295.55 C589.05,308.04 589.05,330.76 586.66,334.39 C583.61,339.05 580.96,337.36 579.62,329.92 C579.12,327.14 579.42,325.82 580.99,324.02 C582.40,322.39 583.00,320.27 583.00,316.92 C583.00,312.77 582.61,311.86 580.06,310.04 C575.83,307.03 574.15,302.91 572.94,292.60 C572.01,284.61 571.55,283.23 569.19,281.25 C566.05,278.63 564.42,278.42 563.26,280.49 C562.80,281.32 560.96,282.16 559.17,282.37 C557.38,282.58 555.79,282.92 555.63,283.12 C555.48,283.33 554.33,285.19 553.09,287.25 C551.53,289.85 550.13,291.00 548.53,291.00 C545.68,291.00 545.00,292.64 545.00,299.49 C545.00,304.19 544.64,305.12 542.00,307.35 C539.37,309.56 539.12,310.20 540.00,312.50 C541.69,316.93 541.14,319.78 537.88,323.49 C535.07,326.69 534.80,327.55 535.22,331.97 C535.48,334.67 536.48,338.08 537.44,339.54 C539.02,341.96 539.57,342.14 543.58,341.54 C547.64,340.93 548.08,341.08 549.16,343.45 C550.01,345.32 550.04,346.95 549.27,349.47 C548.48,352.06 548.54,353.88 549.52,356.71 C551.03,361.07 550.71,363.69 547.41,373.83 C543.86,384.74 541.58,387.04 531.50,389.88 C528.83,390.63 526.67,392.17 525.00,394.49 C522.34,398.20 515.95,403.00 513.68,403.00 C512.92,403.00 511.55,402.16 510.63,401.14 M 329.50,337.77 C327.85,337.18 325.23,335.64 323.67,334.35 C321.67,332.69 319.59,332.00 316.55,332.00 C311.66,332.00 310.70,331.15 307.00,323.60 C304.55,318.60 304.41,318.50 300.00,318.47 C294.69,318.43 291.65,316.72 288.81,312.17 C287.07,309.37 286.82,307.78 287.27,302.18 C287.57,298.51 287.37,294.70 286.84,293.70 C286.14,292.39 286.44,290.72 287.94,287.63 C290.56,282.22 290.54,279.79 287.87,277.40 C283.13,273.17 280.82,268.07 281.17,262.64 L 281.50,257.50 L 277.67,257.62 C270.24,257.86 261.13,269.50 255.93,285.40 C252.53,295.80 250.34,298.10 251.30,290.25 C252.76,278.32 263.74,252.11 272.13,240.50 C273.72,238.30 276.89,233.83 279.18,230.56 C285.00,222.24 301.56,205.61 303.09,206.56 C303.81,207.00 304.05,206.89 303.68,206.29 C302.84,204.93 306.57,201.62 307.96,202.48 C308.56,202.85 308.93,202.61 308.77,201.96 C308.36,200.17 323.06,190.55 335.57,184.42 C341.66,181.44 347.20,179.00 347.88,179.00 C348.57,179.00 351.91,178.11 355.31,177.03 C358.72,175.95 364.88,174.55 369.00,173.92 C373.12,173.30 379.43,171.64 383.00,170.23 C387.68,168.40 392.02,167.56 398.50,167.24 C409.32,166.71 414.38,167.77 414.80,170.67 C415.12,172.86 413.12,173.98 405.38,175.96 C400.46,177.21 396.54,180.11 394.77,183.80 C393.68,186.07 392.93,186.45 390.14,186.16 C386.28,185.78 382.02,189.04 381.97,192.42 C381.95,193.57 381.28,195.37 380.47,196.44 C378.36,199.23 378.60,203.72 380.93,204.96 C382.00,205.53 384.36,206.00 386.19,206.00 C388.47,206.00 389.93,206.65 390.81,208.06 C392.77,211.21 391.40,213.59 386.21,216.02 C382.12,217.94 377.79,221.22 370.67,227.81 C369.66,228.74 368.22,230.96 367.47,232.75 C365.85,236.60 363.32,236.97 362.02,233.56 C360.81,230.36 357.71,228.79 354.27,229.62 C349.58,230.75 342.65,234.66 339.54,237.93 C336.98,240.63 336.55,241.89 336.36,247.35 C336.18,252.46 335.53,254.62 332.93,258.80 C330.25,263.12 329.82,264.62 330.28,268.07 C331.00,273.43 334.33,277.00 338.60,277.00 C344.24,277.00 347.33,282.37 344.98,288.05 C343.32,292.05 339.42,295.00 335.79,295.00 C333.87,295.00 331.83,296.02 329.92,297.92 C327.35,300.50 327.01,301.54 327.04,306.67 C327.10,314.00 328.60,318.18 333.44,324.50 C339.04,331.82 340.64,335.52 339.04,337.45 C337.58,339.21 333.89,339.34 329.50,337.77 M 385.20,280.74 C383.67,278.90 385.13,268.95 387.11,267.70 C389.70,266.07 391.81,267.60 392.99,271.94 C394.09,276.06 393.21,279.49 390.60,281.23 C388.90,282.37 386.36,282.13 385.20,280.74 M 444.75,171.95 C442.38,170.53 442.54,167.32 445.05,165.97 C449.78,163.44 455.81,166.89 453.39,170.75 C452.12,172.79 447.28,173.46 444.75,171.95 Z" fill="rgba(0,0,0,1)"/>
</g>
</svg>