<svg xmlns="http://www.w3.org/2000/svg" width="836" height="1254" viewBox="0 0 836 1254">
<g>
<path d="M 466.56,1044.27 L 465.06,1058.00 L 466.62,1043.06 M 411.76,857.66 L 413.94,866.31 L 414.35,867.76 L 415.20,870.10 L 415.65,871.22 L 416.81,873.30 L 417.46,874.35 L 419.23,876.65 L 419.73,877.27 L 420.90,878.63 L 422.94,880.93 L 423.42,881.47 L 424.63,882.75 L 425.28,883.43 L 426.76,884.94 L 428.30,886.50 L 431.96,890.08 L 433.84,891.91 L 437.84,895.70 L 443.74,901.11 L 446.69,903.76 L 452.20,908.79 L 454.89,911.26 L 459.92,915.96 L 462.37,918.28 L 466.94,922.69 L 469.17,924.86 L 473.31,929.01 L 475.32,931.06 L 479.04,934.98 L 480.85,936.91 L 484.18,940.63 L 485.79,942.46 L 488.76,946.01 L 490.19,947.76 L 492.81,951.17 L 494.08,952.86 L 496.37,956.15 L 497.48,957.79 L 499.47,961.01 L 500.44,962.61 L 502.16,965.78 L 502.98,967.36 L 504.45,970.51 L 505.86,973.66 L 508.01,980.04 L 510.44,989.97 L 510.87,992.29 L 511.43,996.79 L 511.66,999.02 L 511.80,1003.31 L 511.82,1005.43 L 511.54,1009.48 L 511.35,1011.47 L 510.68,1015.24 L 510.29,1017.09 L 509.21,1020.55 L 508.63,1022.24 L 507.16,1025.34 L 506.38,1026.85 L 504.53,1029.57 L 501.34,1033.19 L 500.32,1034.15 L 498.30,1035.61 L 497.30,1036.26 L 495.44,1037.05 L 494.54,1037.36 L 493.00,1037.42 L 491.22,1036.65 L 490.91,1036.34 L 490.64,1035.73 L 490.58,1035.41 L 490.90,1034.62 L 491.15,1034.17 L 492.21,1032.94 L 492.53,1032.60 L 493.32,1031.79 L 494.76,1030.36 L 495.66,1029.48 L 497.23,1027.73 L 497.98,1026.85 L 499.28,1025.04 L 499.90,1024.13 L 500.95,1022.22 L 501.44,1021.25 L 502.25,1019.19 L 502.63,1018.13 L 503.23,1015.87 L 503.50,1014.71 L 503.89,1012.20 L 504.06,1010.91 L 504.27,1008.10 L 504.40,1003.50 L 504.40,1000.61 L 503.96,995.26 L 503.66,992.63 L 502.52,987.50 L 501.85,984.93 L 499.91,979.61 L 499.36,978.26 L 498.12,975.44 L 495.98,971.00 L 494.89,968.84 L 492.53,964.66 L 491.32,962.58 L 488.66,958.47 L 487.28,956.42 L 484.23,952.30 L 482.65,950.23 L 479.12,945.99 L 477.29,943.85 L 473.20,939.40 L 471.08,937.14 L 466.34,932.38 L 463.89,929.95 L 458.43,924.77 L 449.32,916.44 L 446.60,913.99 L 441.29,909.18 L 440.00,908.01 L 437.53,905.76 L 436.32,904.66 L 434.07,902.59 L 432.98,901.59 L 431.02,899.77 L 430.08,898.90 L 428.46,897.39 L 427.71,896.68 L 426.51,895.54 L 425.25,894.30 L 424.67,893.71 L 423.60,892.72 L 423.09,892.28 L 422.25,891.64 L 421.86,891.37 L 421.34,891.14 L 421.09,891.27 L 420.96,890.94 L 419.55,887.46 L 418.95,885.86 L 417.81,882.75 L 417.35,881.36 L 416.51,878.69 L 416.21,877.54 L 415.70,875.37 L 415.58,874.50 L 415.19,872.16 L 414.84,870.41 L 414.65,869.50 L 414.24,867.69 L 414.03,866.84 L 413.61,865.20 L 413.41,864.51 L 412.20,859.88 L 411.45,856.56 L 411.11,854.81 L 410.61,851.97 M 501.83,1031.06 L 501.18,1031.51 L 500.63,1031.90 L 498.65,1033.03 L 497.50,1033.40 L 497.09,1033.39 L 496.40,1033.26 L 496.30,1033.00 L 496.28,1032.36 L 496.59,1031.85 L 496.59,1031.58 L 496.35,1031.55 L 496.12,1031.60 L 495.61,1031.76 L 495.27,1031.90 L 494.54,1032.22 L 494.11,1032.44 L 492.15,1033.65 L 491.33,1034.39 L 491.17,1034.72 L 491.02,1035.34 L 491.20,1035.60 L 491.73,1036.08 L 492.25,1036.25 L 493.31,1036.50 L 493.87,1036.46 L 495.03,1036.26 L 495.66,1035.98 L 496.98,1035.31 L 497.72,1034.79 L 499.27,1033.61 L 500.14,1032.83 L 501.60,1031.50 L 502.12,1030.99 L 502.16,1030.92 L 502.09,1030.90 M 462.42,992.01 L 462.49,992.38 L 462.25,991.32 L 461.97,990.15 M 384.02,988.40 L 382.66,988.74 L 382.05,988.84 L 380.86,989.00 L 380.35,989.00 L 378.91,988.78 L 380.57,988.84 L 381.90,988.80 L 384.22,988.34 M 370.27,984.37 L 370.91,985.10 L 372.86,986.67 L 371.69,985.94 L 370.98,985.25 L 369.76,983.81 L 369.61,983.35 L 370.03,984.02 M 408.72,968.19 L 407.00,970.92 L 406.10,972.20 L 404.29,974.68 L 403.37,975.80 L 401.52,977.95 L 400.59,978.87 L 398.74,980.61 L 397.84,981.30 L 396.16,982.42 L 397.69,981.22 L 399.10,980.03 L 401.82,977.30 L 405.65,972.68 L 407.17,970.62 L 409.17,967.44 M 441.45,933.39 L 442.57,935.74 L 443.11,936.87 L 444.06,938.90 L 445.26,941.50 L 447.60,946.71 L 451.72,956.97 L 453.69,962.08 L 457.04,972.16 L 458.63,977.18 L 459.84,981.81 L 458.36,976.59 L 457.41,973.57 L 455.43,967.50 L 454.34,964.42 L 452.07,958.21 L 450.83,955.05 L 448.27,948.69 L 446.88,945.44 L 444.02,938.91 L 442.48,935.58 L 441.25,932.97 M 418.84,930.88 L 418.83,933.00 L 418.74,937.15 L 418.57,939.13 L 418.14,943.01 L 417.80,944.90 L 417.03,948.64 L 416.66,949.99 L 417.48,946.37 L 417.94,943.99 L 418.49,939.01 L 418.70,936.48 L 418.75,931.19 L 418.72,928.91 M 418.40,923.99 L 418.57,926.33 L 418.64,927.55 L 418.32,923.39 M 417.42,916.32 L 417.78,918.93 L 417.94,920.30 L 417.40,916.24 M 430.65,911.59 L 431.98,914.19 L 434.04,918.31 L 432.31,915.00 L 427.44,905.21 M 426.19,902.70 L 426.05,902.42 L 426.04,902.38 M 453.32,530.81 L 453.99,533.26 L 454.34,534.50 L 457.26,546.75 L 457.99,550.81 L 458.28,552.90 L 458.81,557.11 L 459.02,559.32 L 459.38,563.83 L 459.50,566.24 L 459.70,571.18 L 459.74,573.86 L 459.77,577.00 L 459.77,576.82 L 459.75,575.80 L 459.69,574.07 L 459.66,573.26 L 459.56,572.00 L 459.51,571.44 L 459.39,570.74 L 459.16,570.40 L 458.84,570.60 L 458.34,571.55 L 458.00,573.31 L 458.01,573.76 L 457.89,574.86 L 457.81,575.44 L 457.54,576.77 L 457.23,578.15 L 456.22,581.50 L 455.65,583.26 L 454.18,587.20 L 453.39,589.23 L 451.55,593.56 L 449.63,597.95 L 445.06,607.04 L 443.88,609.27 L 441.46,613.55 L 437.81,619.50 L 436.80,621.06 L 434.48,624.31 L 433.83,625.19 L 432.29,627.18 L 431.47,628.23 L 429.50,630.69 L 428.45,631.99 L 425.91,635.08 L 425.23,635.90 L 423.75,637.69 L 422.98,638.61 L 421.31,640.60 L 420.45,641.63 L 418.57,643.86 L 417.61,645.01 L 415.51,647.49 L 414.44,648.77 L 412.10,651.53 L 408.32,656.00 L 406.34,658.35 L 402.41,663.32 L 400.46,665.84 L 396.66,671.09 L 394.78,673.74 L 391.16,679.17 L 389.38,681.90 L 386.00,687.41 L 384.35,690.17 L 381.27,695.67 L 379.77,698.40 L 377.05,703.78 L 375.74,706.45 L 373.44,711.61 L 370.52,719.00 L 369.17,722.79 L 367.02,730.35 L 366.04,734.14 L 364.59,741.89 L 363.95,745.81 L 363.16,753.98 L 362.68,767.00 L 362.67,769.24 L 362.72,773.23 L 362.75,775.17 L 362.90,778.68 L 362.99,780.39 L 363.26,783.58 L 363.42,785.16 L 363.84,788.19 L 364.08,789.70 L 364.67,792.74 L 365.00,794.28 L 365.80,797.48 L 366.23,799.12 L 367.25,802.65 L 369.07,808.50 L 369.65,810.31 L 371.10,814.08 L 371.88,815.99 L 373.71,819.95 L 374.67,821.95 L 376.85,826.05 L 377.99,828.13 L 380.51,832.36 L 381.81,834.49 L 384.66,838.83 L 386.12,841.00 L 389.27,845.41 L 390.89,847.61 L 394.33,852.06 L 399.80,858.75 L 400.41,859.47 L 401.54,860.79 L 402.08,861.42 L 403.00,862.46 L 403.42,862.93 L 404.03,863.59 L 404.46,864.00 L 404.48,864.00 L 404.47,863.73 L 404.46,863.55 L 404.41,862.95 L 404.38,862.61 L 404.28,861.72 L 404.23,861.24 L 404.10,860.09 L 403.96,858.89 L 403.59,855.86 L 403.39,854.27 L 402.92,850.70 L 402.42,846.93 L 402.34,846.22 L 402.96,850.17 L 403.36,852.39 L 404.22,856.96 L 404.76,859.52 L 405.32,862.13 L 405.62,863.53 L 406.26,866.38 L 406.61,867.92 L 407.33,871.05 L 407.73,872.75 L 408.55,876.21 L 409.00,878.08 L 409.92,881.91 L 410.42,883.98 L 411.45,888.21 L 412.01,890.50 L 413.30,896.02 L 413.30,896.01 L 411.95,892.50 L 411.83,892.22 L 411.50,891.26 L 411.32,890.72 L 410.90,889.36 L 409.60,884.62 L 409.19,883.00 L 407.86,879.69 L 407.52,878.92 L 406.80,877.60 L 405.77,876.12 L 405.45,875.76 L 404.30,874.51 L 403.67,873.81 L 402.05,872.06 L 396.42,865.97 L 393.59,862.92 L 388.41,856.90 L 385.91,853.90 L 381.36,847.94 L 379.17,844.96 L 375.22,839.01 L 373.32,836.02 L 369.95,830.00 L 368.33,826.98 L 365.50,820.86 L 364.15,817.77 L 361.82,811.47 L 360.72,808.29 L 358.88,801.77 L 356.61,791.66 L 354.39,779.81 L 352.51,783.97 L 352.18,784.71 L 351.25,786.24 L 350.75,787.02 L 349.54,788.59 L 348.27,790.15 L 345.17,793.10 L 343.58,794.50 L 340.24,796.77 L 339.42,797.28 L 337.83,798.07 L 335.59,798.87 L 334.11,799.25 L 331.18,799.47 L 329.73,799.50 L 326.95,799.06 L 325.60,798.76 L 323.13,797.69 L 319.91,795.42 L 318.99,794.53 L 317.53,792.54 L 316.87,791.53 L 316.00,789.46 L 315.64,788.43 L 315.44,786.51 L 315.97,784.05 L 316.35,783.35 L 317.06,782.52 L 317.41,782.20 L 318.11,782.14 L 318.47,782.21 L 319.22,782.93 L 320.45,784.91 L 321.02,786.01 L 322.46,787.87 L 323.22,788.74 L 324.98,790.10 L 325.89,790.71 L 327.87,791.51 L 330.99,792.00 L 332.30,792.00 L 334.84,791.34 L 336.10,790.91 L 338.52,789.42 L 339.71,788.58 L 341.96,786.34 L 343.07,785.12 L 345.11,782.17 L 346.11,780.61 L 347.91,777.01 L 348.78,775.14 L 350.30,770.96 L 351.03,768.80 L 352.23,764.09 L 353.64,756.50 L 354.06,753.53 L 355.03,747.74 L 355.53,744.87 L 356.67,739.31 L 357.25,736.56 L 358.55,731.23 L 359.21,728.60 L 360.66,723.51 L 361.41,721.00 L 363.01,716.16 L 363.83,713.78 L 365.59,709.20 L 366.49,706.95 L 368.39,702.65 L 371.42,696.50 L 372.05,695.31 L 373.48,692.72 L 374.22,691.39 L 375.83,688.61 L 377.47,685.80 L 381.00,680.04 L 382.77,677.20 L 386.18,672.00 L 387.00,670.78 L 388.53,668.58 L 390.59,665.74 L 394.20,660.99 L 387.16,664.98 L 386.05,665.61 L 383.54,666.91 L 382.23,667.57 L 379.41,668.91 L 376.52,670.25 L 370.29,672.84 L 367.18,674.09 L 361.16,676.23 L 359.71,676.72 L 357.00,677.55 L 353.33,678.54 L 352.20,678.81 L 349.62,679.29 L 348.29,679.51 L 345.42,679.89 L 342.50,680.25 L 336.32,680.66 L 333.25,680.81 L 327.56,680.76 L 326.21,680.72 L 323.78,680.54 L 320.67,680.13 L 319.03,679.83 L 315.84,678.95 L 314.26,678.47 L 311.24,677.29 L 309.75,676.66 L 306.94,675.21 L 305.57,674.45 L 303.04,672.76 L 301.81,671.90 L 299.61,670.02 L 298.55,669.06 L 296.74,667.04 L 295.89,666.01 L 294.52,663.87 L 293.03,660.59 L 292.53,659.07 L 292.09,655.66 L 291.96,653.92 L 292.23,650.41 L 292.44,648.67 L 293.36,645.48 L 293.63,644.72 L 294.28,643.34 L 295.41,641.53 L 296.25,640.42 L 297.97,638.69 L 298.82,637.91 L 300.44,636.87 L 301.22,636.46 L 302.59,636.21 L 304.21,636.81 L 304.43,637.03 L 304.66,637.48 L 304.74,637.71 L 304.68,638.21 L 304.61,638.48 L 304.24,639.10 L 303.31,640.24 L 302.49,641.13 L 301.26,642.81 L 300.70,643.65 L 299.93,645.35 L 299.59,646.22 L 299.21,648.14 L 299.00,651.47 L 299.00,653.01 L 299.38,655.78 L 299.64,657.11 L 300.56,659.52 L 301.08,660.69 L 302.57,662.80 L 305.47,665.72 L 305.95,666.11 L 307.20,666.93 L 307.87,667.35 L 309.44,668.18 L 311.06,669.01 L 314.77,670.54 L 316.64,671.25 L 320.22,672.30 L 321.07,672.52 L 322.59,672.82 L 324.52,673.00 L 325.20,673.00 L 326.27,673.23 L 327.00,673.79 L 327.00,673.93 L 327.75,674.06 L 328.24,674.10 L 329.81,674.04 L 330.69,673.99 L 332.90,673.78 L 334.07,673.65 L 336.72,673.30 L 339.45,672.93 L 345.40,671.89 L 346.87,671.62 L 349.69,671.04 L 353.56,670.13 L 356.01,669.50 L 360.80,668.07 L 363.18,667.33 L 367.80,665.69 L 370.09,664.85 L 374.55,662.99 L 376.76,662.03 L 381.06,659.96 L 383.18,658.90 L 387.32,656.60 L 389.36,655.43 L 393.34,652.92 L 395.30,651.64 L 399.12,648.90 L 401.01,647.51 L 404.66,644.55 L 406.47,643.05 L 409.97,639.87 L 411.71,638.25 L 415.06,634.84 L 416.71,633.11 L 419.91,629.48 L 421.49,627.64 L 424.53,623.78 L 426.04,621.82 L 428.93,617.73 L 430.36,615.65 L 433.11,611.33 L 434.47,609.14 L 437.08,604.59 L 440.82,597.50 L 442.37,594.40 L 444.97,588.44 L 446.19,585.48 L 448.20,579.59 L 449.14,576.63 L 450.64,570.51 L 452.44,560.77 L 452.88,557.76 L 453.49,551.36 L 453.74,548.17 L 453.94,542.08 L 453.97,540.62 L 453.94,537.92 L 453.91,536.62 L 453.78,534.31 L 453.70,533.22 L 453.46,531.42 L 453.21,530.42 M 410.05,848.52 L 410.46,851.11 L 409.83,847.56 L 409.34,843.70 L 409.33,843.60 M 408.67,837.65 L 408.47,835.85 L 408.38,834.54 M 456.28,808.57 L 459.01,810.69 L 464.53,814.71 L 467.37,816.40 L 473.10,819.53 L 475.98,820.71 L 478.87,821.83 L 480.31,822.29 L 483.18,823.14 L 484.60,823.46 L 487.44,824.02 L 488.84,824.18 L 491.63,824.44 L 493.00,824.45 L 491.63,824.44 L 488.84,824.18 L 487.44,824.02 L 484.60,823.46 L 483.17,823.14 L 480.30,822.30 L 478.86,821.84 L 475.98,820.72 L 473.10,819.53 L 467.37,816.40 L 464.53,814.72 L 459.01,810.69 L 456.29,808.58 L 454.66,807.07 M 407.81,824.36 L 407.79,823.88 L 407.79,823.77 M 400.48,809.34 L 400.49,809.29 L 400.49,809.19 M 408.06,808.12 L 408.07,808.05 L 408.08,807.94 M 412.69,753.61 L 411.51,757.00 L 408.56,766.05 L 406.81,772.12 L 406.04,775.15 L 404.58,781.21 L 403.95,784.22 L 402.78,790.23 L 402.31,793.20 L 401.45,799.11 L 401.13,802.02 L 400.65,806.99 L 400.88,803.78 L 401.11,801.03 L 401.80,795.60 L 402.19,792.88 L 403.19,787.40 L 405.03,779.00 L 406.23,774.08 L 408.88,764.88 L 409.59,762.55 L 411.19,757.79 L 412.03,755.36 L 413.93,750.22 L 414.71,748.18 M 408.92,798.57 L 409.08,796.80 L 409.25,795.79 M 414.93,771.13 L 414.33,773.18 L 413.26,777.07 L 412.75,778.98 L 411.85,782.57 L 411.42,784.32 L 410.81,787.08 L 411.49,783.49 L 412.66,778.88 L 413.90,774.24 L 414.61,771.84 L 416.09,766.98 L 416.92,764.44 L 417.10,763.91 M 432.62,777.56 L 434.59,781.23 L 432.59,777.50 L 431.77,775.70 L 431.72,775.57 M 430.07,770.72 L 431.56,775.12 L 430.50,772.30 L 429.91,770.57 L 429.37,768.41 M 429.30,768.11 L 428.97,766.78 L 428.74,765.77 L 428.36,763.71 M 426.16,736.23 L 426.21,736.38 L 426.30,736.77 L 426.34,737.09 L 426.41,737.80 L 426.44,738.29 L 426.49,739.36 L 426.52,740.02 L 426.56,741.45 L 426.57,742.30 L 426.60,744.09 L 426.61,745.13 L 427.05,754.28 L 426.63,750.50 L 425.46,739.50 L 423.66,744.50 L 421.97,749.15 L 421.37,750.96 L 421.94,749.22 L 422.37,747.93 L 422.77,746.70 L 422.93,746.21 L 423.23,745.31 L 423.33,745.00 L 424.63,740.83 L 425.04,739.43 L 425.21,738.80 L 425.54,737.60 L 425.66,737.13 L 425.87,736.43 L 426.00,736.18 L 426.06,736.17 M 302.17,637.00 L 300.58,637.53 L 299.35,638.34 L 298.73,638.90 L 297.49,640.13 L 296.95,640.83 L 295.92,642.27 L 295.57,643.00 L 295.44,643.33 L 295.48,643.37 L 295.63,643.36 L 295.80,643.25 L 296.18,642.95 L 296.45,642.70 L 297.02,642.13 L 297.37,641.75 L 299.28,639.84 L 300.16,639.15 L 300.38,639.11 L 300.68,639.22 L 300.60,639.58 L 300.29,640.49 L 299.90,641.25 L 299.28,642.49 L 299.14,642.89 L 299.23,642.88 L 299.54,642.72 L 299.88,642.42 L 300.72,641.67 L 301.36,641.08 L 303.15,639.24 L 303.81,638.30 L 303.88,637.97 L 303.83,637.40 L 303.55,637.24 L 302.81,637.00 M 458.09,621.62 L 458.03,622.00 L 457.58,624.73 L 457.24,626.91 L 457.06,628.09 L 456.33,632.93 L 457.05,628.09 L 457.23,626.91 L 457.58,624.73 L 458.02,622.00 L 458.11,621.46 M 431.40,538.36 L 429.18,541.23 L 428.58,541.96 L 427.21,543.51 L 426.50,544.31 L 424.84,546.05 L 423.97,546.95 L 421.92,548.97 L 420.84,550.03 L 418.33,552.43 L 417.00,553.68 L 413.92,556.55 L 408.57,561.47 L 412.43,557.92 L 414.81,555.70 L 415.91,554.67 L 418.06,552.64 L 419.04,551.69 L 420.96,549.82 L 421.84,548.94 L 425.17,545.56 L 426.57,544.03 L 429.20,541.06 L 430.31,539.67 L 432.26,537.10 M 464.82,546.25 L 465.54,550.75 L 464.58,544.82 M 500.08,39.85 L 500.41,40.08 L 500.98,40.93 L 501.26,41.42 L 501.73,42.80 L 501.95,43.57 L 502.32,45.52 L 502.49,46.58 L 502.76,49.15 L 502.89,50.51 L 503.07,53.73 L 503.15,55.42 L 503.25,59.33 L 503.32,66.00 L 503.33,69.36 L 503.16,75.92 L 503.04,79.18 L 502.62,85.55 L 502.37,88.71 L 501.69,94.91 L 501.32,97.99 L 500.36,104.04 L 499.85,107.05 L 498.62,112.98 L 497.97,115.93 L 496.44,121.77 L 495.65,124.67 L 493.83,130.44 L 492.88,133.31 L 490.75,139.02 L 489.65,141.87 L 487.21,147.56 L 485.95,150.40 L 483.18,156.08 L 481.75,158.93 L 478.65,164.63 L 477.06,167.49 L 473.61,173.24 L 471.84,176.12 L 468.04,181.95 L 466.10,184.87 L 461.93,190.78 L 459.81,193.76 L 455.27,199.79 L 448.04,209.00 L 445.92,211.63 L 441.98,216.53 L 440.05,218.92 L 436.50,223.35 L 434.77,225.51 L 431.57,229.51 L 430.01,231.46 L 427.15,235.07 L 425.75,236.83 L 423.19,240.09 L 421.94,241.68 L 419.65,244.62 L 418.54,246.05 L 416.49,248.71 L 415.50,250.01 L 413.68,252.42 L 411.91,254.78 L 408.91,258.92 L 407.49,260.91 L 405.02,264.54 L 398.53,274.94 L 396.57,278.29 L 393.11,284.99 L 391.46,288.33 L 388.62,295.02 L 387.28,298.36 L 385.06,305.02 L 384.03,308.34 L 382.45,314.96 L 381.73,318.26 L 380.78,324.82 L 380.38,328.09 L 380.06,334.57 L 379.98,337.81 L 380.30,344.20 L 381.50,353.67 L 382.17,357.43 L 383.90,364.41 L 384.84,367.81 L 387.13,374.14 L 388.35,377.23 L 391.26,382.98 L 392.80,385.78 L 396.37,391.02 L 398.24,393.58 L 402.53,398.37 L 404.77,400.71 L 409.82,405.12 L 412.44,407.29 L 418.31,411.40 L 428.08,417.29 L 430.30,418.51 L 435.28,420.90 L 437.85,422.08 L 443.34,424.35 L 446.14,425.46 L 451.93,427.52 L 454.84,428.53 L 460.70,430.34 L 463.62,431.20 L 469.33,432.68 L 472.15,433.38 L 477.48,434.47 L 480.08,434.95 L 484.82,435.59 L 485.95,435.71 L 488.07,435.87 L 491.00,435.94 L 492.50,435.93 L 495.48,435.67 L 496.97,435.50 L 499.90,434.96 L 501.35,434.65 L 504.17,433.85 L 505.56,433.42 L 508.22,432.37 L 509.52,431.82 L 511.96,430.56 L 513.15,429.90 L 515.33,428.44 L 516.38,427.69 L 518.24,426.06 L 520.61,423.44 L 521.11,422.79 L 521.93,421.36 L 522.32,420.63 L 522.93,419.05 L 523.49,417.45 L 523.95,413.96 L 524.06,412.20 L 523.63,408.65 L 521.94,403.59 L 521.31,402.33 L 520.51,400.18 L 520.36,399.70 L 520.22,398.99 L 520.28,398.39 L 520.46,398.20 L 520.95,398.01 L 521.21,397.94 L 521.83,397.96 L 522.47,398.03 L 523.96,398.71 L 524.72,399.13 L 526.23,400.40 L 528.17,402.75 L 528.64,403.51 L 529.33,404.94 L 529.64,405.66 L 530.05,407.23 L 530.22,408.06 L 530.40,410.09 L 530.50,414.00 L 530.50,415.59 L 530.40,418.03 L 530.32,419.16 L 530.00,420.98 L 529.81,421.86 L 529.17,423.48 L 527.76,426.15 L 527.20,427.12 L 525.71,429.03 L 524.92,429.97 L 523.04,431.82 L 522.06,432.72 L 519.87,434.44 L 518.75,435.28 L 516.36,436.82 L 515.15,437.56 L 512.64,438.86 L 511.37,439.48 L 508.84,440.49 L 507.57,440.96 L 505.09,441.62 L 501.55,442.17 L 500.57,442.24 L 499.04,442.57 L 498.72,442.67 L 498.28,442.88 L 498.00,443.20 L 498.00,443.42 L 498.32,443.77 L 499.08,444.00 L 499.16,444.00 L 499.50,444.14 L 499.71,444.23 L 500.30,444.53 L 500.94,444.87 L 502.81,445.97 L 503.82,446.58 L 506.25,448.11 L 510.25,450.72 L 513.18,452.66 L 518.51,456.68 L 521.09,458.70 L 525.72,462.86 L 527.95,464.96 L 531.87,469.25 L 533.74,471.41 L 536.95,475.82 L 538.46,478.04 L 540.94,482.55 L 542.08,484.82 L 543.82,489.42 L 544.60,491.73 L 545.59,496.41 L 546.23,503.50 L 546.25,505.43 L 545.84,509.06 L 545.56,510.83 L 544.62,514.11 L 544.08,515.70 L 542.66,518.54 L 541.89,519.90 L 540.06,522.24 L 539.10,523.34 L 536.92,525.10 L 535.80,525.91 L 533.34,527.02 L 532.08,527.48 L 529.41,527.87 L 525.22,527.55 L 524.10,527.30 L 522.01,526.17 L 521.00,525.52 L 519.29,523.76 L 518.51,522.83 L 517.39,520.70 L 516.62,517.34 L 516.60,516.73 L 516.69,515.70 L 516.75,515.22 L 516.98,514.44 L 517.11,514.09 L 517.45,513.59 L 517.63,513.37 L 518.05,513.15 L 518.27,513.08 L 518.75,513.15 L 518.99,513.22 L 519.49,513.59 L 519.74,513.81 L 520.24,514.49 L 520.95,515.87 L 521.30,516.72 L 522.52,518.17 L 523.19,518.85 L 524.87,519.86 L 525.74,520.29 L 527.63,520.73 L 530.44,520.61 L 530.87,520.50 L 531.78,520.04 L 532.23,519.78 L 533.15,519.06 L 534.05,518.29 L 535.74,516.14 L 536.55,515.00 L 537.83,512.40 L 539.01,508.41 L 539.28,506.66 L 539.31,503.07 L 539.24,501.26 L 538.63,497.55 L 538.25,495.69 L 537.02,491.93 L 536.33,490.05 L 534.51,486.28 L 533.52,484.40 L 531.14,480.66 L 529.87,478.81 L 526.95,475.16 L 525.42,473.35 L 521.97,469.84 L 516.25,464.77 L 514.26,463.16 L 510.51,460.28 L 508.67,458.90 L 505.15,456.43 L 503.40,455.24 L 499.98,453.11 L 498.27,452.08 L 494.83,450.24 L 493.10,449.35 L 489.52,447.73 L 487.71,446.94 L 483.88,445.49 L 481.93,444.78 L 477.73,443.42 L 470.90,441.44 L 465.56,439.99 L 455.64,436.89 L 450.81,435.31 L 441.90,431.94 L 437.58,430.22 L 429.69,426.59 L 427.79,425.67 L 424.17,423.78 L 419.03,420.86 L 413.56,417.58 L 418.14,423.54 L 418.95,424.59 L 420.80,427.13 L 421.76,428.45 L 423.82,431.40 L 425.91,434.43 L 430.26,440.99 L 431.32,442.61 L 433.34,445.78 L 434.33,447.33 L 436.11,450.23 L 436.96,451.63 L 438.40,454.08 L 440.03,457.06 L 441.17,459.33 L 443.42,464.23 L 444.53,466.72 L 446.67,471.98 L 448.78,477.30 L 452.50,488.41 L 453.38,491.18 L 454.95,496.66 L 455.70,499.38 L 456.98,504.65 L 457.59,507.25 L 458.55,512.17 L 459.58,519.00 L 459.66,519.76 L 459.97,521.73 L 460.14,522.77 L 460.56,525.09 L 462.05,532.00 L 462.30,533.03 L 462.71,534.96 L 462.31,533.17 L 462.08,532.18 L 461.60,530.27 L 461.37,529.43 L 460.91,527.85 L 460.69,527.19 L 460.26,525.96 L 460.06,525.50 L 459.79,524.87 L 459.53,524.25 L 459.36,523.85 L 458.60,522.02 L 458.11,520.83 L 457.06,518.31 L 456.48,516.88 L 455.27,513.94 L 454.65,512.42 L 449.72,500.92 L 446.26,493.37 L 444.53,489.81 L 442.80,486.29 L 441.94,484.62 L 440.25,481.33 L 439.43,479.80 L 437.80,476.80 L 437.02,475.43 L 435.49,472.78 L 434.76,471.60 L 432.76,468.46 L 431.28,466.26 L 430.42,465.06 L 428.63,462.58 L 427.58,461.19 L 425.37,458.29 L 424.08,456.64 L 421.35,453.19 L 420.14,451.68 L 421.12,452.90 L 421.91,453.89 L 423.38,455.72 L 424.80,457.51 L 427.19,460.61 L 428.33,462.09 L 430.25,464.73 L 431.17,466.01 L 432.78,468.37 L 437.12,475.41 L 437.72,476.45 L 438.88,478.35 L 439.44,479.25 L 440.43,480.76 L 440.89,481.44 L 441.60,482.39 L 442.24,482.99 L 442.34,482.99 L 442.36,482.59 L 442.35,482.34 L 442.17,481.51 L 442.06,481.05 L 441.69,479.90 L 441.49,479.30 L 440.98,477.94 L 439.37,473.85 L 435.60,465.78 L 434.60,463.75 L 432.42,459.64 L 431.30,457.57 L 428.84,453.33 L 427.58,451.18 L 424.80,446.75 L 423.37,444.50 L 420.25,439.81 L 418.64,437.42 L 415.12,432.41 L 409.36,424.46 L 407.83,422.37 L 404.98,418.48 L 403.59,416.58 L 401.02,413.02 L 399.77,411.28 L 397.47,408.01 L 396.34,406.42 L 394.28,403.42 L 393.28,401.95 L 391.44,399.18 L 390.55,397.82 L 388.91,395.24 L 387.32,392.71 L 384.69,388.09 L 383.45,385.83 L 381.39,381.55 L 380.42,379.42 L 378.79,375.21 L 378.01,373.08 L 376.66,368.66 L 374.78,361.50 L 374.42,359.97 L 373.81,356.42 L 373.53,354.58 L 373.10,350.52 L 372.90,348.45 L 372.64,344.08 L 372.53,341.87 L 372.45,337.35 L 372.43,335.09 L 372.52,330.62 L 372.59,328.40 L 372.86,324.15 L 373.02,322.06 L 373.48,318.20 L 374.36,313.06 L 375.08,309.77 L 376.91,303.28 L 377.89,300.04 L 380.30,293.54 L 381.59,290.28 L 384.67,283.64 L 386.30,280.29 L 390.14,273.36 L 392.15,269.85 L 396.82,262.48 L 398.04,260.61 L 400.66,256.75 L 401.99,254.80 L 404.85,250.79 L 406.30,248.76 L 409.40,244.57 L 410.98,242.45 L 414.34,238.07 L 416.05,235.85 L 419.67,231.26 L 425.42,224.11 L 427.25,221.86 L 430.67,217.63 L 432.34,215.57 L 435.46,211.69 L 436.99,209.79 L 439.83,206.23 L 441.22,204.48 L 443.80,201.20 L 445.07,199.60 L 447.42,196.58 L 448.56,195.09 L 450.70,192.30 L 452.78,189.55 L 456.40,184.62 L 458.13,182.22 L 461.17,177.81 L 462.63,175.65 L 465.26,171.52 L 472.41,159.10 L 473.98,156.15 L 476.92,150.21 L 478.34,147.23 L 480.97,141.25 L 482.24,138.26 L 484.54,132.30 L 485.65,129.32 L 487.61,123.40 L 488.55,120.46 L 490.17,114.63 L 490.94,111.73 L 492.19,106.03 L 492.78,103.20 L 493.66,97.67 L 494.55,89.61 L 495.09,82.50 L 491.70,90.55 L 490.72,92.89 L 488.85,96.97 L 487.89,98.96 L 485.78,102.88 L 485.22,103.89 L 483.99,105.99 L 483.35,107.06 L 481.92,109.37 L 481.17,110.56 L 479.49,113.16 L 478.11,115.28 L 482.24,108.77 L 484.81,104.47 L 485.93,102.45 L 488.06,98.49 L 488.96,96.63 L 490.66,93.01 L 491.35,91.31 L 492.62,88.01 L 493.09,86.47 L 493.94,83.48 L 494.21,82.10 L 494.63,79.41 L 494.69,78.18 L 494.70,75.78 L 494.54,74.70 L 494.04,70.48 L 493.93,69.26 L 493.90,68.77 L 493.85,67.89 L 493.86,67.64 L 493.85,66.78 L 493.81,66.40 L 493.76,66.32 L 493.65,66.25 L 493.55,66.35 L 493.34,66.64 L 493.18,66.93 L 492.83,67.64 L 492.60,68.16 L 492.09,69.33 L 491.77,70.11 L 491.07,71.81 L 490.64,72.87 L 489.73,75.13 L 489.19,76.50 L 487.82,79.54 L 488.85,76.82 L 491.03,69.75 L 491.37,68.44 L 492.08,66.40 L 492.25,65.96 L 492.54,65.37 L 492.88,65.00 L 493.05,65.00 L 493.36,64.34 L 493.63,62.75 L 493.65,62.44 L 493.77,61.36 L 493.85,60.76 L 494.07,59.25 L 494.95,54.00 L 495.27,52.21 L 495.99,48.23 L 496.16,47.28 L 496.46,45.57 L 496.82,43.50 L 496.93,42.86 L 497.21,41.79 L 497.36,41.29 L 497.72,40.54 L 497.90,40.20 L 498.32,39.76 L 499.00,39.50 L 499.39,39.50 M 451.01,521.54 L 451.12,521.96 L 451.31,522.73 L 451.35,523.00 L 451.73,524.68 L 452.15,526.37 L 452.42,527.41 L 452.89,529.20 L 452.69,528.69 L 452.10,526.57 L 451.43,523.49 L 451.35,522.98 L 450.98,521.49 L 450.84,520.95 M 443.09,499.03 L 443.31,499.27 L 443.45,499.54 L 443.74,500.18 L 443.92,500.63 L 444.30,501.64 L 444.53,502.27 L 445.99,506.40 L 446.89,508.93 L 447.04,509.39 L 446.82,508.79 L 446.43,507.75 L 445.72,505.94 L 445.37,505.10 L 444.80,503.84 L 444.17,502.77 L 444.05,502.65 L 443.77,502.96 L 443.64,503.21 L 443.36,504.18 L 443.22,504.74 L 442.96,506.25 L 442.64,509.01 L 442.54,510.07 L 442.27,511.77 L 442.34,510.68 L 442.48,507.95 L 442.48,506.33 L 442.50,503.45 L 442.53,501.91 L 442.55,501.31 L 442.61,500.25 L 442.66,499.89 L 442.76,499.28 L 442.83,499.14 L 442.99,498.96 M 374.37,392.65 L 376.15,395.50 L 380.21,401.47 L 382.33,404.52 L 387.17,411.03 L 388.43,412.71 L 391.12,416.18 L 392.50,417.95 L 395.43,421.63 L 396.92,423.49 L 400.10,427.40 L 400.89,428.35 L 400.18,427.50 L 392.16,417.67 L 387.33,411.47 L 385.14,408.51 L 380.92,402.68 L 379.02,399.87 L 375.36,394.31 L 373.71,391.60 L 372.83,390.11 M 521.44,399.12 L 521.00,399.53 L 521.00,399.94 L 521.29,400.79 L 521.73,401.33 L 522.00,401.50 L 522.71,401.56 L 523.00,401.19 L 523.00,400.84 L 523.11,400.39 L 523.28,400.27 L 523.42,400.31 L 523.74,400.44 L 523.96,400.61 L 524.42,401.00 L 524.71,401.29 L 525.79,402.31 L 526.15,402.59 L 526.74,402.98 L 526.83,402.95 L 526.86,402.74 L 526.64,402.41 L 526.05,401.61 L 525.50,401.00 L 524.00,399.73 L 522.99,399.18 L 522.54,399.08 L 521.71,398.98 M 458.93,140.96 L 457.48,142.61 L 459.20,140.64 M 464.88,133.75 L 462.15,137.08 L 465.60,132.83 M 475.07,119.89 L 471.83,124.52 L 470.18,126.82 L 466.68,131.43 L 465.70,132.69 L 467.46,130.39 L 471.06,125.58 L 472.78,123.14 L 476.00,118.48 M 461.45,125.17 L 459.61,127.54 L 457.34,130.43 L 460.56,126.28 L 462.52,123.70 M 468.34,115.65 L 464.93,120.41 L 462.96,123.10 L 466.77,117.74 L 468.76,114.89 L 471.57,110.56 M 477.34,101.26 L 474.71,105.58 L 477.59,100.70 L 478.16,99.69 M 499.00,41.00 L 498.29,41.46 L 498.00,42.13 L 498.00,42.56 L 498.11,43.31 L 498.29,43.48 L 498.72,43.67 L 499.00,43.50 L 499.71,42.79 L 500.00,42.20 L 500.00,41.94 L 499.71,41.28 L 499.27,41.00 M 466.34,614.75 L 466.45,613.42 L 466.85,607.89 L 467.00,604.87 L 467.26,598.70 L 467.33,595.48 L 467.44,588.96 L 467.44,585.68 L 467.40,579.13 L 467.33,575.94 L 467.32,575.49 L 467.33,575.93 L 467.40,579.12 L 467.44,585.68 L 467.44,588.96 L 467.33,595.47 L 467.26,598.69 L 467.00,604.87 L 466.86,607.88 L 466.45,613.42 L 466.34,614.75 L 466.09,617.23 L 465.67,620.67 L 466.09,617.23 Z" fill="rgba(118,180,186,1)"/>
<path d="M 456.88,1235.62 L 455.17,1235.01 L 451.88,1233.33 L 450.26,1232.42 L 447.18,1230.18 L 445.67,1228.99 L 442.84,1226.22 L 441.46,1224.78 L 438.90,1221.53 L 437.66,1219.84 L 435.40,1216.15 L 434.32,1214.24 L 432.39,1210.14 L 431.48,1208.04 L 429.92,1203.57 L 428.01,1196.50 L 427.71,1195.13 L 427.22,1192.13 L 426.98,1190.60 L 426.62,1187.34 L 426.29,1184.03 L 426.05,1177.03 L 426.01,1173.52 L 426.33,1166.67 L 426.45,1165.00 L 426.79,1161.81 L 427.46,1157.36 L 427.87,1155.20 L 428.62,1151.07 L 428.79,1150.14 L 429.07,1148.59 L 429.35,1147.00 L 429.44,1146.50 L 429.76,1145.11 L 429.94,1144.36 L 430.42,1142.58 L 430.92,1140.74 L 432.19,1136.53 L 432.84,1134.44 L 434.11,1130.68 L 434.41,1129.82 L 434.94,1128.41 L 435.60,1126.88 L 435.96,1126.17 L 436.66,1124.34 L 437.38,1121.88 L 437.41,1121.72 L 437.59,1121.15 L 437.70,1120.83 L 438.01,1119.97 L 438.35,1119.05 L 439.38,1116.53 L 439.94,1115.18 L 441.29,1112.04 L 443.53,1107.00 L 444.21,1105.51 L 445.42,1102.81 L 446.00,1101.50 L 447.02,1099.17 L 447.50,1098.04 L 448.33,1096.08 L 448.72,1095.14 L 449.35,1093.54 L 449.64,1092.78 L 450.07,1091.56 L 450.27,1090.99 L 450.51,1090.14 L 450.60,1089.76 L 450.65,1089.29 L 450.49,1089.00 L 450.44,1089.00 L 449.97,1089.49 L 449.68,1089.81 L 448.82,1090.84 L 448.35,1091.40 L 447.22,1092.82 L 445.33,1095.25 L 445.00,1095.68 L 444.12,1096.76 L 443.65,1097.33 L 442.52,1098.66 L 441.33,1100.04 L 438.41,1103.34 L 436.89,1105.04 L 433.56,1108.65 L 428.51,1114.00 L 426.17,1116.43 L 422.08,1120.82 L 420.12,1122.94 L 416.74,1126.79 L 415.12,1128.67 L 412.36,1132.12 L 411.05,1133.81 L 408.82,1136.98 L 407.77,1138.54 L 406.00,1141.55 L 405.16,1143.05 L 403.76,1146.03 L 403.10,1147.53 L 401.99,1150.61 L 400.55,1155.46 L 400.19,1156.85 L 399.66,1159.49 L 399.43,1160.79 L 399.16,1163.23 L 399.06,1164.42 L 399.05,1166.65 L 399.08,1167.74 L 399.33,1169.74 L 399.48,1170.72 L 399.98,1172.49 L 400.26,1173.34 L 401.02,1174.86 L 401.42,1175.59 L 402.43,1176.85 L 404.21,1178.44 L 404.73,1178.80 L 405.39,1179.33 L 405.66,1179.58 L 405.85,1180.01 L 405.89,1180.22 L 405.64,1180.70 L 404.79,1181.63 L 404.41,1182.01 L 403.81,1182.48 L 403.52,1182.67 L 402.90,1182.73 L 402.57,1182.71 L 401.71,1182.36 L 399.86,1181.35 L 398.57,1180.59 L 396.58,1178.83 L 395.68,1177.89 L 394.41,1175.60 L 393.86,1174.37 L 393.23,1171.35 L 393.11,1170.54 L 392.97,1168.75 L 392.90,1165.78 L 392.91,1163.22 L 393.23,1158.51 L 393.45,1156.21 L 394.25,1151.86 L 394.72,1149.72 L 396.09,1145.56 L 396.86,1143.48 L 398.90,1139.32 L 400.02,1137.22 L 402.83,1132.87 L 404.34,1130.66 L 408.02,1125.94 L 408.99,1124.73 L 411.13,1122.21 L 412.23,1120.93 L 414.61,1118.25 L 415.84,1116.89 L 418.49,1114.04 L 422.77,1109.53 L 424.85,1107.37 L 428.53,1103.47 L 430.29,1101.59 L 433.39,1098.17 L 434.88,1096.51 L 437.49,1093.46 L 438.75,1091.97 L 440.97,1089.16 L 442.03,1087.78 L 443.94,1085.11 L 444.86,1083.78 L 446.55,1081.12 L 451.21,1072.69 L 452.69,1069.72 L 454.92,1063.94 L 455.43,1062.48 L 456.27,1059.47 L 456.67,1057.94 L 457.31,1054.72 L 457.61,1053.08 L 458.07,1049.56 L 458.29,1047.74 L 458.59,1043.81 L 458.72,1041.79 L 458.88,1037.34 L 458.98,1030.00 L 458.98,1026.53 L 458.77,1019.89 L 458.62,1016.62 L 458.08,1010.26 L 457.76,1007.11 L 456.86,1000.89 L 456.35,997.78 L 455.05,991.54 L 454.35,988.40 L 452.62,982.00 L 451.70,978.76 L 449.50,972.04 L 448.35,968.62 L 445.66,961.43 L 441.03,949.97 L 439.63,946.65 L 436.52,939.73 L 435.74,938.03 L 434.20,934.73 L 433.43,933.11 L 431.96,930.09 L 431.24,928.63 L 429.92,926.03 L 429.28,924.80 L 428.18,922.78 L 427.67,921.85 L 426.86,920.54 L 426.06,919.54 L 425.94,919.46 L 425.77,920.00 L 425.70,920.36 L 425.62,921.63 L 425.59,922.34 L 425.61,924.18 L 425.74,927.39 L 425.90,929.84 L 425.79,935.18 L 425.68,937.89 L 425.08,943.38 L 424.73,946.09 L 423.71,951.21 L 423.43,952.45 L 422.81,954.76 L 421.78,957.93 L 421.13,959.70 L 419.61,963.16 L 418.81,964.87 L 417.03,968.18 L 416.10,969.82 L 414.08,972.95 L 413.05,974.49 L 410.82,977.40 L 409.68,978.83 L 407.28,981.50 L 406.05,982.80 L 403.49,985.18 L 402.20,986.34 L 399.51,988.40 L 395.37,991.11 L 394.04,991.88 L 391.97,992.94 L 390.99,993.40 L 389.16,993.96 L 388.22,994.19 L 385.99,994.40 L 385.37,994.44 L 383.97,994.48 L 381.50,994.50 L 380.65,994.50 L 379.17,994.48 L 378.47,994.47 L 377.25,994.41 L 376.10,994.35 L 374.35,994.07 L 373.53,993.90 L 372.18,993.35 L 370.18,992.13 L 369.27,991.48 L 367.78,989.99 L 367.10,989.22 L 366.15,987.60 L 365.74,986.78 L 365.37,985.16 L 365.54,982.87 L 365.74,982.24 L 366.38,981.48 L 366.73,981.18 L 367.52,981.07 L 367.92,981.09 L 368.67,981.60 L 369.52,983.07 L 369.76,983.81 L 370.98,985.25 L 371.69,985.94 L 373.61,987.14 L 374.62,987.70 L 376.90,988.49 L 380.35,989.00 L 380.86,989.00 L 382.05,988.84 L 382.66,988.74 L 384.02,988.40 L 385.41,988.01 L 388.52,986.75 L 390.10,986.05 L 393.32,984.30 L 397.84,981.30 L 398.74,980.61 L 400.59,978.87 L 401.52,977.95 L 403.37,975.80 L 404.29,974.68 L 406.10,972.20 L 407.00,970.92 L 408.72,968.19 L 410.40,965.41 L 413.30,959.43 L 413.97,957.93 L 415.12,954.93 L 416.53,950.50 L 417.03,948.64 L 417.80,944.90 L 418.14,943.01 L 418.57,939.13 L 418.74,937.15 L 418.83,933.00 L 418.84,930.88 L 418.57,926.33 L 418.40,923.99 L 417.78,918.93 L 417.42,916.32 L 416.42,910.62 L 415.88,907.67 L 414.51,901.20 L 412.01,890.50 L 411.45,888.21 L 410.42,883.98 L 409.92,881.91 L 409.00,878.08 L 408.55,876.21 L 407.73,872.75 L 407.33,871.05 L 406.61,867.92 L 406.26,866.38 L 405.62,863.53 L 405.32,862.13 L 404.76,859.52 L 404.22,856.96 L 403.36,852.39 L 402.96,850.17 L 402.32,846.05 L 402.02,844.01 L 401.54,839.98 L 401.32,837.96 L 400.94,833.72 L 400.43,826.75 L 400.27,824.19 L 400.18,818.86 L 400.18,816.16 L 400.41,810.59 L 400.57,807.78 L 401.13,802.02 L 401.45,799.11 L 402.31,793.20 L 402.78,790.23 L 403.95,784.22 L 404.58,781.21 L 406.04,775.15 L 406.81,772.12 L 408.56,766.05 L 411.51,757.00 L 412.69,753.61 L 414.97,747.48 L 415.55,745.94 L 416.80,742.78 L 417.44,741.17 L 418.86,737.74 L 419.60,735.97 L 421.27,732.07 L 422.15,730.05 L 424.14,725.50 L 425.19,723.12 L 427.60,717.73 L 428.23,716.33 L 429.58,713.32 L 431.75,708.50 L 433.98,703.56 L 438.35,693.25 L 439.42,690.70 L 441.44,685.71 L 442.42,683.25 L 444.23,678.58 L 445.11,676.30 L 446.65,672.13 L 447.38,670.12 L 448.57,666.62 L 449.12,664.97 L 449.91,662.32 L 450.08,661.72 L 450.32,660.71 L 450.55,659.50 L 450.59,659.23 L 450.82,658.13 L 450.96,657.51 L 451.35,655.88 L 452.90,649.99 L 453.19,648.96 L 453.79,646.49 L 454.10,645.21 L 454.68,642.49 L 454.97,641.13 L 455.47,638.50 L 456.04,634.99 L 456.33,632.93 L 457.06,628.09 L 457.24,626.91 L 457.58,624.73 L 458.03,622.00 L 458.09,621.62 L 458.23,620.40 L 458.30,619.71 L 458.44,617.93 L 458.51,616.98 L 458.66,614.73 L 458.73,613.56 L 458.88,610.92 L 458.95,609.56 L 459.09,606.62 L 459.15,605.11 L 459.28,601.95 L 459.60,592.00 L 459.69,588.58 L 459.77,582.38 L 459.80,579.36 L 459.74,573.86 L 459.70,571.18 L 459.50,566.24 L 459.38,563.83 L 459.02,559.32 L 458.81,557.11 L 458.28,552.90 L 457.99,550.81 L 457.26,546.75 L 454.34,534.50 L 453.99,533.26 L 453.32,530.81 L 452.99,529.61 L 452.42,527.41 L 452.15,526.37 L 451.73,524.68 L 451.35,523.00 L 451.31,522.73 L 451.12,521.96 L 451.01,521.54 L 450.71,520.47 L 450.54,519.90 L 450.12,518.54 L 449.89,517.82 L 449.35,516.17 L 449.06,515.30 L 448.41,513.35 L 448.06,512.34 L 447.29,510.09 L 446.89,508.93 L 445.99,506.40 L 444.53,502.27 L 444.30,501.64 L 443.92,500.63 L 443.74,500.18 L 443.45,499.54 L 443.31,499.27 L 443.09,499.03 L 442.99,498.96 L 442.83,499.14 L 442.76,499.28 L 442.66,499.89 L 442.61,500.25 L 442.55,501.31 L 442.53,501.91 L 442.50,503.45 L 442.48,506.33 L 442.48,507.95 L 442.34,510.68 L 442.25,512.00 L 441.89,514.42 L 441.67,515.62 L 441.02,518.09 L 439.63,522.25 L 438.99,524.00 L 437.72,527.14 L 437.07,528.66 L 435.67,531.49 L 434.94,532.88 L 433.27,535.58 L 432.39,536.92 L 430.31,539.67 L 429.20,541.06 L 426.57,544.03 L 425.17,545.56 L 421.84,548.94 L 420.96,549.82 L 419.04,551.69 L 418.06,552.64 L 415.91,554.67 L 414.81,555.70 L 412.43,557.92 L 408.57,561.47 L 405.87,563.94 L 401.18,568.74 L 398.95,571.11 L 395.25,575.65 L 394.38,576.77 L 392.86,578.94 L 392.13,580.01 L 390.87,582.08 L 390.28,583.11 L 389.30,585.08 L 388.15,587.90 L 387.75,589.10 L 387.27,592.04 L 387.08,593.55 L 387.04,596.65 L 387.07,598.16 L 387.45,600.80 L 387.56,601.40 L 387.88,602.41 L 388.47,603.56 L 389.04,604.32 L 389.69,605.56 L 389.92,606.13 L 389.90,606.96 L 389.80,607.33 L 389.12,607.73 L 387.35,607.82 L 386.44,607.71 L 384.87,606.91 L 384.13,606.43 L 382.91,604.96 L 382.34,604.16 L 381.47,602.16 L 381.09,601.10 L 380.61,598.67 L 380.41,597.41 L 380.33,594.68 L 380.34,593.29 L 380.67,590.38 L 380.89,588.91 L 381.66,585.93 L 383.32,581.53 L 383.70,580.71 L 384.69,578.82 L 385.22,577.85 L 386.39,575.84 L 386.99,574.84 L 388.19,572.96 L 389.89,570.53 L 393.69,565.50 L 384.09,565.50 L 383.01,565.50 L 381.15,565.48 L 380.27,565.47 L 378.74,565.41 L 377.29,565.34 L 375.00,565.00 L 373.90,564.79 L 371.77,564.06 L 368.00,562.39 L 366.31,561.58 L 363.06,559.57 L 361.48,558.51 L 358.59,556.15 L 357.21,554.94 L 354.90,552.41 L 352.32,548.64 L 352.12,548.24 L 351.70,547.12 L 351.50,546.52 L 351.13,545.11 L 350.34,540.64 L 350.19,539.02 L 350.57,535.76 L 350.85,534.16 L 351.97,531.22 L 352.61,529.83 L 354.29,527.62 L 354.73,527.14 L 355.70,526.36 L 357.23,525.56 L 358.17,525.24 L 359.45,525.04 L 359.99,525.00 L 360.49,525.38 L 360.64,525.64 L 360.36,526.60 L 359.06,528.70 L 358.46,529.51 L 357.55,531.25 L 357.14,532.13 L 356.60,533.99 L 356.37,534.93 L 356.19,536.86 L 356.15,537.83 L 356.32,539.77 L 356.45,540.74 L 356.97,542.66 L 357.27,543.60 L 358.14,545.43 L 358.61,546.33 L 359.80,548.02 L 361.96,550.35 L 362.89,551.18 L 364.60,552.62 L 365.43,553.30 L 367.03,554.44 L 368.60,555.52 L 371.72,556.92 L 372.52,557.21 L 374.20,557.65 L 375.07,557.85 L 376.93,558.11 L 377.89,558.22 L 380.01,558.33 L 383.56,558.36 L 386.04,558.32 L 390.30,557.90 L 392.36,557.62 L 396.19,556.59 L 398.09,555.98 L 402.00,554.18 L 403.00,553.67 L 405.12,552.48 L 408.52,550.41 L 409.38,549.87 L 411.26,548.47 L 412.21,547.72 L 414.21,545.99 L 416.22,544.20 L 420.26,540.00 L 422.23,537.86 L 425.71,533.48 L 426.51,532.41 L 427.91,530.35 L 429.60,527.48 L 430.87,525.02 L 432.95,519.97 L 433.91,517.45 L 435.31,512.44 L 435.92,509.96 L 436.59,505.20 L 436.73,498.58 L 436.59,496.77 L 436.06,493.34 L 435.75,491.63 L 434.76,488.23 L 434.20,486.51 L 432.60,482.90 L 431.72,481.05 L 429.37,477.00 L 428.73,475.94 L 427.28,473.71 L 426.53,472.58 L 424.85,470.16 L 423.97,468.92 L 422.03,466.28 L 421.03,464.93 L 418.82,462.03 L 417.68,460.55 L 415.17,457.38 L 413.88,455.75 L 411.07,452.26 L 409.62,450.48 L 406.48,446.65 L 401.38,440.50 L 398.63,437.20 L 393.05,430.39 L 390.30,427.02 L 385.16,420.61 L 383.93,419.07 L 381.65,416.19 L 380.55,414.80 L 378.59,412.28 L 377.65,411.07 L 376.07,409.00 L 374.23,406.50 L 372.15,403.59 L 368.28,397.62 L 366.39,394.61 L 362.93,388.46 L 361.25,385.36 L 358.19,379.04 L 356.72,375.86 L 354.08,369.39 L 352.81,366.13 L 350.59,359.51 L 349.53,356.19 L 347.74,349.44 L 346.89,346.05 L 345.53,339.19 L 343.97,328.78 L 343.80,327.31 L 343.41,324.66 L 343.22,323.40 L 342.83,321.36 L 342.64,320.44 L 342.29,319.23 L 342.20,318.99 L 342.05,318.70 L 341.86,318.59 L 341.62,318.73 L 341.25,319.46 L 340.99,320.81 L 340.99,321.00 L 340.89,321.56 L 340.83,321.88 L 340.61,322.67 L 340.36,323.51 L 339.57,325.77 L 339.12,326.98 L 338.00,329.80 L 337.40,331.26 L 336.05,334.44 L 334.64,337.67 L 331.52,344.31 L 330.75,345.91 L 329.23,348.89 L 327.10,352.83 L 325.67,355.32 L 322.52,360.20 L 320.90,362.63 L 317.39,367.34 L 315.60,369.68 L 311.80,374.16 L 309.87,376.36 L 305.85,380.54 L 303.82,382.58 L 299.65,386.39 L 297.55,388.24 L 293.29,391.61 L 291.16,393.23 L 286.87,396.09 L 280.50,399.75 L 279.12,400.45 L 276.14,401.69 L 274.62,402.29 L 271.44,403.31 L 268.24,404.27 L 261.67,405.46 L 260.05,405.69 L 256.90,405.95 L 255.35,406.05 L 252.41,406.03 L 250.98,405.98 L 248.36,405.67 L 244.90,404.84 L 243.66,404.42 L 241.37,403.38 L 240.25,402.82 L 238.23,401.53 L 237.25,400.86 L 235.51,399.35 L 234.67,398.57 L 233.23,396.85 L 232.54,395.97 L 231.41,394.07 L 230.89,393.10 L 230.09,391.04 L 229.73,389.99 L 229.28,387.78 L 229.00,384.33 L 229.00,383.43 L 229.27,381.59 L 229.44,380.67 L 230.00,378.88 L 230.30,378.00 L 231.08,376.36 L 231.49,375.56 L 232.41,374.16 L 232.89,373.51 L 233.89,372.46 L 234.39,371.98 L 235.40,371.37 L 235.89,371.14 L 236.84,371.07 L 238.10,371.70 L 238.31,371.91 L 238.54,372.38 L 238.62,372.63 L 238.56,373.21 L 238.50,373.52 L 238.14,374.27 L 237.25,375.67 L 236.70,376.45 L 235.83,378.02 L 235.43,378.80 L 234.86,380.36 L 234.62,381.14 L 234.35,382.68 L 234.26,383.45 L 234.29,384.96 L 234.35,385.72 L 234.69,387.20 L 234.89,387.94 L 235.53,389.38 L 235.89,390.10 L 236.83,391.49 L 238.58,393.51 L 239.37,394.30 L 241.12,395.64 L 242.03,396.27 L 244.00,397.29 L 245.01,397.76 L 247.17,398.47 L 248.27,398.79 L 250.61,399.20 L 251.80,399.36 L 254.28,399.47 L 255.54,399.49 L 258.16,399.30 L 259.48,399.17 L 262.20,398.70 L 263.58,398.43 L 266.39,397.67 L 267.80,397.26 L 270.68,396.24 L 272.13,395.69 L 275.06,394.39 L 277.99,393.03 L 283.90,389.53 L 286.85,387.65 L 292.68,383.15 L 301.14,375.34 L 302.86,373.55 L 306.18,369.75 L 307.82,367.81 L 310.98,363.68 L 312.53,361.58 L 315.53,357.15 L 317.00,354.89 L 319.83,350.13 L 321.23,347.71 L 323.89,342.64 L 325.20,340.06 L 327.71,334.67 L 328.94,331.93 L 331.28,326.22 L 334.60,317.30 L 335.77,313.97 L 337.97,307.31 L 339.04,304.02 L 340.91,297.88 L 341.35,296.41 L 342.14,293.65 L 342.51,292.32 L 343.16,289.90 L 343.46,288.74 L 343.94,286.72 L 344.46,284.24 L 344.54,283.79 L 344.80,282.63 L 344.94,282.03 L 345.29,280.69 L 346.46,276.74 L 346.86,275.57 L 347.76,272.57 L 347.98,271.82 L 348.38,270.39 L 348.88,268.50 L 349.17,267.30 L 349.95,264.69 L 350.36,263.35 L 351.36,260.51 L 352.41,257.62 L 355.06,251.38 L 356.46,248.22 L 359.66,241.81 L 364.85,232.50 L 365.78,230.95 L 367.89,227.76 L 368.99,226.14 L 371.50,222.74 L 372.81,221.00 L 375.84,217.25 L 377.42,215.33 L 381.07,211.12 L 382.98,208.95 L 387.35,204.17 L 388.50,202.93 L 390.94,200.32 L 392.19,198.99 L 394.85,196.20 L 396.21,194.77 L 399.10,191.78 L 400.58,190.25 L 403.71,187.04 L 405.31,185.40 L 408.71,181.95 L 414.11,176.50 L 418.35,172.24 L 426.79,163.61 L 428.86,161.48 L 432.85,157.34 L 434.82,155.30 L 438.51,151.43 L 440.32,149.53 L 443.61,146.03 L 445.20,144.34 L 447.99,141.33 L 449.31,139.89 L 451.47,137.48 L 451.97,136.92 L 452.83,135.94 L 453.90,134.68 L 455.87,132.30 L 459.61,127.54 L 461.45,125.17 L 464.93,120.41 L 468.34,115.65 L 474.42,106.07 L 477.34,101.26 L 482.47,91.49 L 489.19,76.50 L 489.73,75.13 L 490.64,72.87 L 491.07,71.81 L 491.77,70.11 L 492.09,69.33 L 492.60,68.16 L 492.83,67.64 L 493.18,66.93 L 493.34,66.64 L 493.55,66.35 L 493.65,66.25 L 493.76,66.32 L 493.81,66.40 L 493.85,66.78 L 493.86,67.64 L 493.85,67.89 L 493.90,68.77 L 493.93,69.26 L 494.04,70.48 L 494.54,74.70 L 494.70,75.78 L 494.69,78.18 L 494.63,79.41 L 494.21,82.10 L 493.94,83.48 L 493.09,86.47 L 492.62,88.01 L 491.35,91.31 L 490.66,93.01 L 488.96,96.63 L 488.06,98.49 L 485.93,102.45 L 484.81,104.47 L 482.24,108.77 L 477.90,115.61 L 476.19,118.20 L 472.78,123.14 L 471.06,125.58 L 467.46,130.39 L 465.63,132.80 L 461.66,137.69 L 459.61,140.17 L 455.07,145.38 L 452.71,148.04 L 447.39,153.79 L 446.01,155.27 L 443.06,158.36 L 441.56,159.94 L 438.35,163.24 L 436.71,164.93 L 433.22,168.47 L 431.43,170.27 L 427.63,174.08 L 425.69,176.02 L 421.55,180.13 L 414.95,186.64 L 412.17,189.37 L 407.11,194.42 L 404.66,196.88 L 400.21,201.44 L 398.06,203.67 L 394.16,207.83 L 392.27,209.86 L 388.85,213.67 L 387.20,215.54 L 384.20,219.08 L 382.75,220.83 L 380.11,224.17 L 378.84,225.82 L 376.50,229.02 L 373.26,233.76 L 371.80,235.99 L 369.10,240.58 L 367.78,242.89 L 365.36,247.64 L 364.18,250.03 L 362.04,254.93 L 361.00,257.39 L 359.14,262.41 L 358.25,264.93 L 356.68,270.07 L 355.93,272.64 L 354.64,277.87 L 354.04,280.50 L 353.04,285.81 L 352.58,288.47 L 351.88,293.84 L 351.56,296.54 L 351.15,301.96 L 350.98,304.68 L 350.87,310.13 L 350.85,312.86 L 351.03,318.34 L 351.16,321.07 L 351.64,326.55 L 351.91,329.28 L 352.70,334.74 L 353.12,337.47 L 354.21,342.90 L 354.79,345.61 L 356.18,350.99 L 358.60,359.00 L 359.56,361.86 L 361.65,367.39 L 362.73,370.13 L 365.12,375.51 L 366.35,378.20 L 369.11,383.53 L 370.53,386.20 L 373.71,391.60 L 375.36,394.31 L 379.02,399.87 L 380.92,402.68 L 385.14,408.51 L 387.33,411.47 L 392.16,417.67 L 400.18,427.50 L 401.59,429.19 L 404.24,432.37 L 405.54,433.93 L 407.96,436.84 L 409.14,438.27 L 411.35,440.93 L 412.43,442.24 L 414.43,444.67 L 415.41,445.87 L 417.22,448.09 L 418.11,449.18 L 419.75,451.20 L 421.35,453.19 L 424.08,456.64 L 425.37,458.29 L 427.58,461.19 L 428.63,462.58 L 430.42,465.06 L 431.28,466.26 L 432.76,468.46 L 434.76,471.60 L 435.49,472.78 L 437.02,475.43 L 437.80,476.80 L 439.43,479.80 L 440.25,481.33 L 441.94,484.62 L 442.80,486.29 L 444.53,489.81 L 446.26,493.37 L 449.72,500.92 L 454.65,512.42 L 455.27,513.94 L 456.48,516.88 L 457.06,518.31 L 458.11,520.83 L 458.60,522.02 L 459.36,523.85 L 459.53,524.25 L 459.79,524.87 L 460.06,525.50 L 460.26,525.96 L 460.69,527.19 L 460.91,527.85 L 461.37,529.43 L 461.60,530.27 L 462.08,532.18 L 462.31,533.17 L 462.80,535.37 L 463.29,537.63 L 464.26,542.87 L 465.66,551.50 L 465.81,552.51 L 466.08,554.75 L 466.20,555.90 L 466.44,558.40 L 466.66,560.95 L 466.99,566.69 L 467.14,569.64 L 467.33,575.94 L 467.40,579.13 L 467.44,585.68 L 467.44,588.96 L 467.33,595.48 L 467.26,598.70 L 467.00,604.87 L 466.85,607.89 L 466.45,613.42 L 466.34,614.75 L 466.09,617.23 L 465.67,620.67 L 465.14,624.52 L 464.47,632.74 L 464.20,636.86 L 464.04,644.88 L 464.03,646.82 L 464.11,650.50 L 464.17,652.30 L 464.38,655.58 L 464.50,657.17 L 464.85,659.94 L 465.51,663.38 L 466.11,665.69 L 467.67,670.22 L 468.51,672.46 L 470.50,676.80 L 471.54,678.94 L 473.92,683.04 L 475.15,685.06 L 477.88,688.86 L 479.28,690.71 L 482.30,694.16 L 483.85,695.83 L 487.14,698.86 L 488.81,700.32 L 492.32,702.88 L 497.77,706.14 L 499.74,707.14 L 503.77,708.65 L 505.80,709.33 L 509.85,710.20 L 511.87,710.56 L 515.81,710.80 L 517.76,710.85 L 521.46,710.50 L 523.27,710.24 L 526.61,709.30 L 528.22,708.76 L 531.05,707.24 L 532.40,706.42 L 534.60,704.35 L 537.07,700.65 L 537.59,699.51 L 538.41,697.21 L 538.58,696.67 L 538.82,695.76 L 538.98,694.75 L 538.99,694.08 L 539.46,693.33 L 539.74,693.06 L 540.53,693.06 L 540.94,693.15 L 541.74,693.83 L 542.60,695.54 L 542.79,696.30 L 542.82,697.94 L 542.78,698.77 L 542.37,700.51 L 542.12,701.40 L 541.32,703.19 L 540.88,704.09 L 539.73,705.89 L 539.11,706.78 L 537.64,708.51 L 536.87,709.37 L 535.13,710.98 L 534.23,711.77 L 532.24,713.21 L 529.05,715.12 L 528.26,715.53 L 526.40,716.18 L 525.43,716.49 L 523.28,716.94 L 522.17,717.14 L 519.80,717.39 L 518.59,717.49 L 516.09,717.53 L 513.57,717.52 L 508.50,716.89 L 507.26,716.69 L 504.86,716.12 L 501.50,715.03 L 499.07,714.09 L 494.31,711.66 L 491.96,710.36 L 487.42,707.30 L 485.19,705.70 L 480.97,702.11 L 478.91,700.26 L 475.09,696.24 L 473.24,694.19 L 469.91,689.85 L 468.32,687.64 L 465.58,683.07 L 464.30,680.77 L 462.24,676.07 L 460.01,669.00 L 459.77,667.95 L 459.34,666.21 L 459.13,665.40 L 458.76,664.12 L 458.58,663.54 L 458.25,662.71 L 458.09,662.35 L 457.80,661.95 L 457.65,661.81 L 457.37,661.83 L 457.23,661.89 L 456.95,662.32 L 456.81,662.58 L 456.51,663.39 L 456.04,665.04 L 455.36,667.68 L 453.79,673.04 L 452.95,675.78 L 450.94,681.72 L 450.40,683.27 L 449.20,686.55 L 448.59,688.23 L 447.22,691.83 L 446.52,693.68 L 444.97,697.65 L 442.40,704.10 L 441.58,706.13 L 440.15,709.91 L 439.47,711.75 L 438.29,715.23 L 437.73,716.94 L 436.79,720.20 L 436.35,721.82 L 435.62,724.96 L 434.94,728.09 L 434.16,734.36 L 434.00,735.96 L 433.80,739.27 L 433.67,744.50 L 433.66,745.95 L 433.66,748.45 L 433.67,749.64 L 433.71,751.70 L 433.74,752.69 L 433.83,754.44 L 433.89,755.29 L 434.06,756.84 L 434.25,758.36 L 434.90,761.30 L 435.09,762.07 L 435.55,763.72 L 436.40,766.49 L 436.84,767.90 L 437.68,770.43 L 438.10,771.66 L 438.93,773.89 L 439.77,776.07 L 441.59,779.89 L 442.55,781.76 L 444.87,785.44 L 445.49,786.38 L 446.89,788.34 L 449.26,791.50 L 450.69,793.37 L 453.88,796.92 L 455.52,798.66 L 459.10,801.95 L 460.95,803.56 L 464.94,806.60 L 471.39,810.86 L 473.30,812.02 L 476.77,813.80 L 478.46,814.62 L 481.74,815.82 L 483.39,816.35 L 486.82,817.06 L 492.50,817.69 L 493.96,817.78 L 496.18,817.83 L 497.20,817.83 L 498.80,817.66 L 499.55,817.54 L 500.83,817.10 L 502.76,816.07 L 503.88,815.36 L 505.72,813.55 L 506.56,812.60 L 507.73,810.51 L 508.23,809.45 L 508.62,807.35 L 508.18,804.49 L 507.93,803.96 L 507.65,803.16 L 507.54,802.80 L 507.53,802.29 L 507.57,802.06 L 507.86,801.72 L 508.65,801.30 L 509.22,801.08 L 510.21,801.18 L 510.67,801.30 L 511.43,802.00 L 511.78,802.41 L 512.30,803.57 L 512.52,804.21 L 512.79,805.73 L 512.89,806.53 L 512.88,808.29 L 512.84,809.19 L 512.55,811.06 L 512.37,812.00 L 511.77,813.87 L 510.53,816.53 L 509.67,818.00 L 507.67,820.26 L 506.60,821.29 L 504.02,822.72 L 503.32,823.04 L 501.79,823.52 L 501.00,823.75 L 499.24,824.07 L 498.33,824.21 L 496.32,824.37 L 493.00,824.45 L 491.63,824.44 L 488.84,824.18 L 487.44,824.02 L 484.60,823.46 L 483.18,823.14 L 480.31,822.29 L 478.87,821.83 L 475.98,820.71 L 473.10,819.53 L 467.37,816.40 L 464.53,814.71 L 459.01,810.69 L 456.28,808.57 L 451.11,803.77 L 448.59,801.28 L 443.93,795.82 L 441.68,793.02 L 437.69,787.03 L 432.62,777.56 L 431.66,775.43 L 430.07,770.72 L 429.34,768.29 L 428.22,763.02 L 427.72,760.31 L 427.06,754.49 L 426.61,745.13 L 426.60,744.09 L 426.57,742.30 L 426.56,741.45 L 426.52,740.02 L 426.49,739.36 L 426.44,738.29 L 426.41,737.80 L 426.34,737.09 L 426.30,736.77 L 426.21,736.38 L 426.16,736.23 L 426.06,736.17 L 426.00,736.18 L 425.87,736.43 L 425.66,737.13 L 425.54,737.60 L 425.21,738.80 L 425.04,739.43 L 424.63,740.83 L 423.33,745.00 L 423.23,745.31 L 422.93,746.21 L 422.77,746.70 L 422.37,747.93 L 421.94,749.22 L 420.84,752.57 L 420.26,754.33 L 418.95,758.29 L 416.92,764.44 L 416.09,766.98 L 414.61,771.84 L 413.90,774.24 L 412.66,778.88 L 411.49,783.49 L 409.81,792.36 L 409.08,796.80 L 408.23,805.78 L 408.07,808.05 L 407.87,812.73 L 407.77,820.00 L 407.79,823.88 L 408.20,831.86 L 408.47,835.85 L 409.34,843.70 L 409.83,847.56 L 411.11,854.81 L 411.45,856.56 L 412.20,859.88 L 413.41,864.51 L 413.61,865.20 L 414.03,866.84 L 414.24,867.69 L 414.65,869.50 L 414.84,870.41 L 415.19,872.16 L 415.58,874.50 L 415.70,875.37 L 416.21,877.54 L 416.51,878.69 L 417.35,881.36 L 417.81,882.75 L 418.95,885.86 L 419.55,887.46 L 420.96,890.94 L 421.69,892.71 L 423.34,896.49 L 424.19,898.41 L 426.05,902.42 L 432.31,915.00 L 434.16,918.53 L 437.62,925.44 L 439.32,928.87 L 442.48,935.58 L 444.02,938.91 L 446.88,945.44 L 448.27,948.69 L 450.83,955.05 L 452.07,958.21 L 454.34,964.42 L 455.43,967.50 L 457.41,973.57 L 458.36,976.59 L 460.05,982.53 L 460.85,985.49 L 462.25,991.32 L 462.92,994.22 L 464.04,999.96 L 464.56,1002.81 L 465.40,1008.47 L 465.79,1011.28 L 466.35,1016.87 L 466.60,1019.65 L 466.89,1025.18 L 467.00,1027.94 L 467.03,1033.43 L 467.01,1036.17 L 466.77,1041.64 L 465.06,1058.00 L 464.65,1060.69 L 463.85,1065.50 L 463.45,1067.84 L 462.60,1072.17 L 461.71,1076.43 L 459.43,1084.64 L 458.78,1086.75 L 457.27,1091.25 L 456.46,1093.57 L 454.56,1098.66 L 454.06,1099.98 L 452.97,1102.79 L 452.40,1104.22 L 451.19,1107.27 L 450.56,1108.83 L 449.21,1112.16 L 447.02,1117.50 L 446.38,1119.04 L 445.06,1122.49 L 444.40,1124.27 L 443.07,1128.08 L 441.74,1131.96 L 439.21,1140.14 L 438.61,1142.17 L 437.49,1146.14 L 436.95,1148.10 L 435.99,1151.83 L 435.54,1153.64 L 434.80,1156.96 L 433.97,1161.31 L 433.61,1163.49 L 433.18,1168.05 L 433.01,1170.36 L 432.91,1175.10 L 432.91,1177.48 L 433.14,1182.27 L 433.30,1184.66 L 433.83,1189.36 L 434.14,1191.68 L 434.97,1196.17 L 435.41,1198.37 L 436.51,1202.51 L 437.10,1204.52 L 438.45,1208.18 L 440.75,1213.00 L 442.17,1215.47 L 445.54,1219.96 L 447.30,1222.10 L 451.15,1225.76 L 452.14,1226.61 L 454.14,1228.13 L 455.15,1228.85 L 457.19,1230.07 L 458.21,1230.65 L 460.24,1231.56 L 463.25,1232.55 L 464.00,1232.73 L 465.06,1233.32 L 465.50,1233.64 L 465.90,1234.39 L 466.02,1234.76 L 465.71,1235.49 L 464.42,1236.39 L 463.87,1236.60 L 462.91,1236.84 L 462.42,1236.92 L 461.40,1236.88 L 460.85,1236.82 L 459.51,1236.49 L 458.78,1236.28 M 492.25,1036.25 L 491.73,1036.08 L 491.20,1035.60 L 491.02,1035.34 L 491.17,1034.72 L 491.33,1034.39 L 492.15,1033.65 L 494.11,1032.44 L 494.54,1032.22 L 495.27,1031.90 L 495.61,1031.76 L 496.12,1031.60 L 496.35,1031.55 L 496.59,1031.58 L 496.59,1031.85 L 496.28,1032.36 L 496.30,1033.00 L 496.40,1033.26 L 497.09,1033.39 L 497.50,1033.40 L 498.65,1033.03 L 500.63,1031.90 L 501.18,1031.51 L 501.83,1031.06 L 502.09,1030.90 L 502.16,1030.92 L 502.12,1030.99 L 501.60,1031.50 L 500.14,1032.83 L 499.27,1033.61 L 497.72,1034.79 L 496.98,1035.31 L 495.66,1035.98 L 495.03,1036.26 L 493.87,1036.46 L 493.31,1036.50 M 295.57,643.00 L 295.92,642.27 L 296.95,640.83 L 297.49,640.13 L 298.73,638.90 L 299.35,638.34 L 300.58,637.53 L 302.17,637.00 L 302.81,637.00 L 303.55,637.24 L 303.83,637.40 L 303.88,637.97 L 303.81,638.30 L 303.15,639.24 L 301.36,641.08 L 300.72,641.67 L 299.88,642.42 L 299.54,642.72 L 299.23,642.88 L 299.14,642.89 L 299.28,642.49 L 299.90,641.25 L 300.29,640.49 L 300.60,639.58 L 300.68,639.22 L 300.38,639.11 L 300.16,639.15 L 299.28,639.84 L 297.37,641.75 L 297.02,642.13 L 296.45,642.70 L 296.18,642.95 L 295.80,643.25 L 295.63,643.36 L 295.48,643.37 L 295.44,643.33 M 524.71,401.29 L 524.42,401.00 L 523.96,400.61 L 523.74,400.44 L 523.42,400.31 L 523.28,400.27 L 523.11,400.39 L 523.00,400.84 L 523.00,401.19 L 522.71,401.56 L 522.00,401.50 L 521.73,401.33 L 521.29,400.79 L 521.00,399.94 L 521.00,399.53 L 521.44,399.12 L 521.71,398.98 L 522.54,399.08 L 522.99,399.18 L 524.00,399.73 L 525.50,401.00 L 526.05,401.61 L 526.64,402.41 L 526.86,402.74 L 526.83,402.95 L 526.74,402.98 L 526.15,402.59 L 525.79,402.31 M 498.00,42.56 L 498.00,42.13 L 498.29,41.46 L 499.00,41.00 L 499.27,41.00 L 499.71,41.28 L 500.00,41.94 L 500.00,42.20 L 499.71,42.79 L 499.00,43.50 L 498.72,43.67 L 498.29,43.48 L 498.11,43.31 Z" fill="rgba(245,251,251,1)"/>
</g>
</svg>