<svg xmlns="http://www.w3.org/2000/svg" width="860" height="1219" viewBox="0 0 860 1219">
<g>
<path d="M 426.40,878.74 L 426.64,879.62 L 427.35,881.42 L 427.76,882.34 L 428.88,884.28 L 429.50,885.29 L 431.14,887.50 L 432.04,888.64 L 434.30,891.23 L 435.51,892.59 L 438.50,895.67 L 439.29,896.48 L 441.04,898.21 L 441.94,899.10 L 443.91,900.99 L 444.92,901.96 L 447.11,904.03 L 448.24,905.09 L 450.68,907.36 L 451.93,908.52 L 454.62,910.99 L 458.97,914.95 L 460.96,916.76 L 464.70,920.20 L 466.54,921.90 L 469.97,925.13 L 471.66,926.73 L 474.81,929.78 L 476.35,931.28 L 479.23,934.16 L 480.64,935.59 L 483.26,938.33 L 484.55,939.68 L 486.93,942.29 L 489.26,944.88 L 493.28,949.76 L 495.19,952.17 L 498.46,956.82 L 500.02,959.13 L 502.68,963.71 L 503.95,966.01 L 506.13,970.69 L 509.01,978.00 L 509.40,979.12 L 510.08,981.77 L 510.40,983.15 L 510.92,986.19 L 511.41,989.30 L 511.88,996.03 L 511.95,997.69 L 511.97,1000.95 L 511.95,1002.55 L 511.79,1005.55 L 511.68,1007.00 L 511.32,1009.59 L 510.56,1012.81 L 510.01,1014.49 L 508.49,1017.68 L 507.68,1019.23 L 505.78,1022.01 L 504.80,1023.33 L 502.69,1025.47 L 499.45,1027.72 L 498.67,1028.10 L 497.54,1028.57 L 497.03,1028.76 L 496.28,1028.87 L 495.93,1028.88 L 495.35,1028.63 L 494.43,1027.85 L 494.08,1027.51 L 493.71,1026.95 L 493.59,1026.67 L 493.74,1026.11 L 493.89,1025.81 L 494.64,1025.06 L 496.57,1023.52 L 497.11,1023.10 L 498.25,1021.97 L 498.82,1021.36 L 499.95,1019.93 L 502.87,1015.11 L 503.46,1013.85 L 504.27,1011.78 L 504.63,1010.76 L 505.06,1008.61 L 505.15,1008.04 L 505.27,1006.76 L 505.33,1006.09 L 505.40,1004.54 L 505.42,1003.73 L 505.45,1001.84 L 505.45,998.50 L 505.44,997.34 L 505.41,995.29 L 505.39,994.31 L 505.32,992.58 L 505.24,990.91 L 504.92,988.18 L 504.73,986.86 L 504.11,984.37 L 502.75,980.22 L 502.05,978.29 L 500.25,974.24 L 499.29,972.20 L 497.03,968.00 L 495.84,965.88 L 493.16,961.59 L 491.77,959.45 L 488.73,955.14 L 487.16,952.99 L 483.81,948.75 L 482.10,946.64 L 478.49,942.52 L 476.65,940.48 L 472.84,936.57 L 466.94,931.00 L 466.36,930.48 L 464.97,929.24 L 464.25,928.59 L 462.62,927.12 L 460.94,925.59 L 457.09,922.08 L 455.13,920.29 L 451.07,916.55 L 445.26,911.18 L 443.43,909.48 L 440.11,906.44 L 439.32,905.72 L 437.86,904.40 L 437.15,903.77 L 435.89,902.65 L 435.29,902.12 L 434.27,901.23 L 433.79,900.81 L 433.05,900.19 L 432.71,899.91 L 432.27,899.57 L 432.04,899.46 L 431.59,898.45 L 431.21,897.53 L 430.51,895.79 L 430.25,895.05 L 429.38,892.32 L 429.07,891.00 L 427.81,885.50 L 427.04,882.10 L 426.68,880.52 L 426.00,877.44 L 425.69,876.02 L 425.08,873.23 L 424.81,871.94 L 424.77,871.73 M 463.95,970.31 L 464.82,972.97 L 466.37,978.25 L 467.11,980.90 L 468.44,986.23 L 470.24,994.46 L 468.44,986.26 L 467.11,980.93 L 466.37,978.28 L 464.83,973.00 L 463.96,970.34 L 462.63,966.41 M 462.13,964.94 L 462.14,964.95 L 462.05,964.70 M 435.18,906.16 L 435.59,906.97 L 436.54,908.86 L 437.03,909.85 L 438.12,912.04 L 438.69,913.17 L 439.90,915.60 L 443.83,923.50 L 445.75,927.37 L 449.19,934.52 L 450.85,938.01 L 452.62,941.89 L 451.18,938.73 L 449.59,935.41 L 446.31,928.63 L 444.49,925.00 L 442.28,920.59 L 440.93,917.88 L 440.31,916.63 L 439.11,914.21 L 438.56,913.10 L 437.49,910.95 L 437.01,909.96 L 435.20,906.26 L 434.64,905.09 M 430.40,928.11 L 430.55,929.53 L 430.81,932.30 L 430.89,933.56 L 430.97,935.31 L 430.80,932.61 L 430.67,930.93 L 430.24,927.14 L 430.00,925.10 M 460.05,579.09 L 461.03,582.82 L 462.87,590.22 L 463.62,593.83 L 464.99,601.00 L 465.50,604.50 L 466.06,608.99 L 466.36,612.19 L 466.48,613.88 L 466.87,620.87 L 466.93,624.63 L 466.97,629.53 L 466.93,627.21 L 466.89,625.58 L 466.74,622.91 L 466.70,622.30 L 466.60,621.28 L 466.55,620.79 L 466.43,620.04 L 466.37,619.71 L 466.23,619.27 L 466.00,619.00 L 465.72,619.00 L 465.29,619.68 L 465.00,621.32 L 465.00,622.17 L 464.60,624.48 L 464.33,625.73 L 463.46,628.69 L 462.96,630.23 L 461.69,633.69 L 461.00,635.46 L 459.39,639.24 L 457.71,643.07 L 453.67,651.01 L 452.62,652.97 L 450.45,656.75 L 447.14,662.07 L 446.79,662.59 L 445.93,663.82 L 445.47,664.47 L 444.42,665.91 L 443.32,667.40 L 440.71,670.78 L 439.37,672.50 L 436.52,676.04 L 432.31,681.08 L 431.13,682.46 L 428.94,685.03 L 427.86,686.29 L 425.87,688.65 L 423.92,690.96 L 420.55,695.03 L 418.93,696.99 L 416.12,700.53 L 414.76,702.25 L 412.36,705.46 L 410.02,708.63 L 405.93,714.84 L 404.91,716.44 L 402.82,719.89 L 399.47,725.60 L 398.03,728.09 L 395.43,733.02 L 394.18,735.48 L 391.93,740.38 L 390.86,742.83 L 388.96,747.74 L 388.05,750.20 L 386.49,755.16 L 385.75,757.64 L 384.51,762.68 L 383.93,765.22 L 383.00,770.38 L 382.58,772.98 L 381.95,778.30 L 381.33,786.50 L 381.19,789.48 L 381.23,795.34 L 381.30,798.25 L 381.78,803.96 L 382.07,806.80 L 382.98,812.38 L 383.50,815.16 L 384.85,820.61 L 385.58,823.33 L 387.38,828.66 L 388.34,831.32 L 390.58,836.55 L 391.76,839.16 L 394.45,844.29 L 399.00,851.89 L 399.83,853.18 L 401.71,855.91 L 402.67,857.28 L 404.71,860.06 L 405.73,861.44 L 407.80,864.11 L 408.82,865.41 L 410.78,867.82 L 411.74,868.98 L 413.47,870.97 L 414.29,871.90 L 415.67,873.32 L 416.29,873.94 L 417.18,874.63 L 417.36,874.75 L 417.62,874.82 L 417.82,874.67 L 417.84,874.56 L 417.85,874.13 L 417.85,873.88 L 417.82,873.20 L 417.78,872.46 L 417.59,870.38 L 417.49,869.26 L 417.18,866.61 L 417.08,865.77 L 417.35,867.34 L 417.56,868.41 L 417.99,870.60 L 418.25,871.83 L 418.81,874.38 L 419.15,875.86 L 419.87,878.97 L 420.31,880.79 L 421.24,884.64 L 421.80,886.91 L 422.37,889.24 L 422.68,890.50 L 423.32,893.10 L 423.67,894.50 L 425.40,901.68 L 425.55,902.31 L 424.99,900.57 L 424.81,900.08 L 424.47,899.30 L 424.00,898.50 L 423.89,898.36 L 423.63,897.82 L 423.49,897.51 L 423.22,896.71 L 422.49,893.81 L 422.36,893.13 L 421.72,891.60 L 421.33,890.79 L 420.06,888.87 L 419.34,887.85 L 417.32,885.37 L 416.76,884.70 L 415.48,883.24 L 413.30,880.81 L 410.53,877.77 L 405.47,871.81 L 403.02,868.85 L 398.60,863.02 L 396.47,860.12 L 392.66,854.37 L 390.84,851.51 L 387.62,845.80 L 386.09,842.95 L 383.44,837.24 L 382.18,834.37 L 380.07,828.60 L 379.08,825.71 L 377.49,819.84 L 375.65,810.86 L 375.49,809.91 L 375.22,808.33 L 375.10,807.59 L 374.88,806.42 L 374.77,805.87 L 374.59,805.07 L 374.49,804.71 L 374.33,804.25 L 374.24,804.06 L 374.08,803.90 L 373.99,803.86 L 373.82,803.97 L 373.19,805.20 L 372.98,805.70 L 372.37,806.81 L 372.03,807.38 L 371.18,808.59 L 370.28,809.81 L 368.03,812.31 L 366.86,813.53 L 364.37,815.70 L 360.86,818.07 L 360.01,818.51 L 358.28,819.15 L 357.41,819.43 L 355.68,819.77 L 354.81,819.90 L 353.10,819.94 L 352.25,819.92 L 350.60,819.67 L 349.78,819.51 L 348.20,818.98 L 347.42,818.67 L 345.95,817.86 L 345.24,817.41 L 343.90,816.32 L 342.09,814.39 L 341.52,813.66 L 340.72,811.92 L 340.39,811.04 L 340.08,809.24 L 339.99,808.37 L 340.20,806.88 L 341.16,805.40 L 341.33,805.29 L 341.85,805.38 L 342.14,805.47 L 342.83,805.92 L 343.20,806.18 L 344.02,806.95 L 345.33,808.43 L 346.25,809.58 L 347.96,811.24 L 348.81,811.98 L 350.49,812.88 L 351.34,813.24 L 353.13,813.42 L 356.11,812.97 L 357.19,812.66 L 359.31,811.51 L 360.35,810.86 L 362.37,809.07 L 363.36,808.09 L 365.20,805.72 L 367.70,801.57 L 368.54,799.93 L 369.90,796.72 L 370.54,795.08 L 371.62,791.48 L 371.88,790.53 L 372.36,788.46 L 372.61,787.39 L 373.07,785.02 L 373.31,783.80 L 373.78,781.07 L 374.50,776.50 L 374.87,774.09 L 375.64,769.60 L 376.04,767.40 L 376.90,763.26 L 377.34,761.23 L 378.31,757.35 L 378.82,755.44 L 379.94,751.73 L 381.10,748.04 L 383.99,740.79 L 384.76,738.95 L 386.49,735.19 L 389.38,729.33 L 390.75,726.66 L 393.55,721.55 L 394.96,719.04 L 397.81,714.30 L 399.24,711.97 L 402.12,707.64 L 406.43,701.67 L 409.36,697.84 L 403.93,701.05 L 401.97,702.21 L 397.37,704.55 L 394.99,705.71 L 389.88,707.92 L 387.29,708.99 L 382.09,710.88 L 374.65,713.17 L 373.15,713.57 L 370.00,714.21 L 368.40,714.51 L 365.11,714.96 L 361.79,715.35 L 355.11,715.54 L 353.45,715.54 L 350.23,715.38 L 348.64,715.28 L 345.60,714.92 L 344.12,714.72 L 341.34,714.16 L 337.56,713.10 L 335.56,712.41 L 331.99,710.63 L 330.29,709.67 L 327.35,707.43 L 325.97,706.25 L 323.70,703.64 L 322.65,702.30 L 321.09,699.42 L 320.41,697.95 L 319.60,694.89 L 319.30,693.35 L 319.30,690.20 L 319.40,688.62 L 320.24,685.48 L 322.49,680.89 L 323.13,679.91 L 324.56,678.39 L 325.28,677.71 L 326.70,676.88 L 327.38,676.57 L 328.52,676.55 L 328.78,676.60 L 329.20,676.87 L 329.66,677.55 L 329.73,677.74 L 329.70,678.30 L 329.66,678.60 L 329.43,679.30 L 328.12,681.57 L 327.50,682.36 L 326.58,684.09 L 326.17,684.98 L 325.66,686.85 L 325.45,687.80 L 325.34,689.76 L 325.33,690.74 L 325.60,692.70 L 325.78,693.68 L 326.42,695.60 L 326.79,696.54 L 327.80,698.34 L 328.34,699.22 L 329.70,700.83 L 332.11,702.96 L 333.11,703.69 L 335.34,704.94 L 336.49,705.53 L 338.98,706.50 L 340.26,706.95 L 342.99,707.66 L 344.38,707.98 L 347.33,708.41 L 348.83,708.60 L 351.97,708.78 L 353.56,708.84 L 356.87,708.76 L 358.54,708.69 L 361.98,708.36 L 363.72,708.16 L 367.28,707.58 L 370.87,706.94 L 378.27,704.94 L 382.00,703.83 L 389.54,700.90 L 393.31,699.32 L 400.78,695.49 L 411.70,688.78 L 413.81,687.33 L 418.09,683.84 L 420.24,682.01 L 424.50,677.88 L 426.63,675.75 L 430.78,671.11 L 432.83,668.74 L 436.78,663.71 L 438.71,661.16 L 442.34,655.88 L 444.11,653.22 L 447.33,647.81 L 448.88,645.11 L 451.59,639.71 L 454.98,631.75 L 455.60,630.08 L 456.73,626.52 L 457.27,624.71 L 458.22,620.95 L 459.13,617.15 L 460.40,609.27 L 460.93,605.33 L 461.37,597.64 L 461.43,595.76 L 461.37,592.14 L 461.02,587.00 L 460.91,585.92 L 460.54,583.51 L 460.34,582.28 L 459.82,579.68 L 459.27,577.05 L 458.31,573.37 M 421.35,848.17 L 421.58,851.61 L 422.39,858.51 L 422.75,861.28 L 422.65,860.72 L 422.37,858.86 L 421.86,855.27 L 421.68,853.58 L 421.36,850.24 L 421.26,848.58 L 421.10,845.24 L 421.06,843.48 L 421.03,841.98 M 414.46,842.08 L 414.40,840.87 L 414.36,840.02 M 497.57,841.88 L 496.75,841.91 L 496.32,841.88 M 501.36,841.51 L 500.29,841.72 L 499.97,841.74 L 500.36,841.68 L 502.00,841.36 M 489.72,841.01 L 488.75,840.81 L 485.87,839.99 L 485.12,839.76 M 414.36,839.98 L 414.27,837.92 L 414.28,837.43 M 484.75,839.65 L 484.42,839.55 L 484.13,839.43 M 464.40,828.00 L 468.70,831.33 L 470.95,832.79 L 475.50,835.58 L 477.84,836.74 L 481.82,838.56 L 481.46,838.43 L 479.98,837.83 L 476.99,836.42 L 472.51,833.99 L 471.39,833.32 L 469.01,831.66 L 467.80,830.79 L 465.31,828.77 L 463.38,827.16 M 423.54,809.71 L 422.65,814.37 L 421.60,823.57 L 421.39,825.90 L 421.15,830.63 L 421.00,837.89 L 421.00,837.88 L 421.11,830.80 L 421.31,826.36 L 421.48,824.22 L 422.35,815.80 L 423.16,811.48 L 424.03,807.11 L 424.40,805.53 M 414.31,835.38 L 414.36,832.38 L 414.39,832.06 M 448.01,809.72 L 450.47,813.31 L 450.18,812.95 L 448.45,810.49 L 447.47,808.89 M 445.75,805.97 L 445.63,805.76 L 445.57,805.64 M 443.56,801.61 L 442.91,800.20 L 441.98,798.09 L 441.54,796.79 M 437.65,764.10 L 437.67,764.56 L 437.63,765.00 L 437.52,766.00 L 437.43,766.68 L 437.26,769.25 L 437.27,771.39 L 437.33,772.61 L 437.49,775.15 L 437.61,776.51 L 437.89,779.28 L 438.06,780.70 L 438.87,786.41 L 439.37,788.99 L 439.89,791.50 L 440.11,792.38 L 439.95,791.83 L 438.98,787.10 L 438.75,785.85 L 438.33,783.09 L 437.75,778.50 L 436.45,767.50 L 432.34,779.00 L 431.30,781.91 L 429.65,786.84 L 430.63,783.73 L 431.69,780.50 L 433.61,774.69 L 434.67,771.50 L 435.10,770.24 L 435.90,767.91 L 436.21,767.05 L 436.78,765.52 L 436.98,765.03 L 437.34,764.22 L 437.45,764.08 L 437.62,763.94 M 440.24,744.30 L 439.82,745.24 L 440.14,744.52 L 440.33,744.10 M 463.02,678.87 L 462.38,682.11 L 461.74,685.29 L 461.39,686.77 L 460.68,689.67 L 460.31,691.00 L 458.29,698.05 L 457.02,702.30 L 456.39,704.29 L 453.86,711.95 L 453.37,713.26 L 453.60,712.60 L 454.45,710.08 L 455.76,706.00 L 456.54,703.55 L 457.90,699.08 L 458.55,696.90 L 459.68,692.86 L 460.77,688.89 L 462.42,681.52 L 462.80,679.66 L 463.47,675.89 L 463.51,675.65 M 473.30,705.37 L 472.00,700.92 L 472.00,700.91 M 470.80,694.25 L 470.72,693.76 L 470.72,693.76 M 470.22,686.82 L 470.17,686.02 L 470.17,686.02 M 470.18,683.51 L 470.18,683.25 L 470.18,683.24 M 471.61,665.00 L 471.15,668.33 L 470.56,674.54 L 470.32,677.57 L 470.19,682.71 L 470.31,677.58 L 470.55,674.54 L 471.14,668.33 L 471.60,665.00 L 471.68,664.41 M 473.39,627.28 L 473.46,634.53 L 473.47,638.14 L 473.27,645.23 L 473.13,648.73 L 472.65,655.47 L 472.19,659.70 L 472.27,658.72 L 472.64,653.78 L 472.78,651.04 L 473.03,645.42 L 473.12,642.48 L 473.26,636.52 L 473.28,633.53 L 473.31,627.56 L 473.27,624.70 L 473.26,623.97 M 466.99,632.29 L 466.98,632.35 L 466.98,632.12 M 499.01,136.45 L 499.79,139.90 L 500.58,144.90 L 500.77,146.71 L 501.55,150.28 L 501.76,151.10 L 502.21,152.48 L 502.89,153.96 L 503.04,154.18 L 503.30,155.01 L 503.43,155.48 L 503.66,156.77 L 503.77,157.46 L 503.95,159.14 L 504.04,160.02 L 504.19,162.04 L 504.33,164.14 L 504.50,169.11 L 504.57,171.69 L 504.58,177.28 L 504.57,180.12 L 504.44,185.89 L 504.36,188.76 L 504.08,194.25 L 503.93,196.92 L 503.50,201.68 L 503.39,202.80 L 503.13,204.83 L 502.71,207.50 L 502.11,210.68 L 500.71,216.89 L 499.98,219.97 L 498.30,226.00 L 497.43,228.99 L 495.46,234.86 L 494.44,237.78 L 492.18,243.53 L 491.01,246.38 L 488.43,252.03 L 487.10,254.84 L 484.20,260.41 L 482.71,263.19 L 479.47,268.72 L 474.23,277.00 L 473.23,278.51 L 471.43,281.18 L 470.55,282.47 L 468.88,284.88 L 468.05,286.07 L 466.33,288.44 L 465.45,289.65 L 463.52,292.21 L 462.51,293.54 L 460.18,296.53 L 458.95,298.09 L 456.06,301.73 L 455.29,302.69 L 453.62,304.76 L 452.77,305.83 L 450.90,308.15 L 449.94,309.34 L 447.85,311.93 L 444.44,316.14 L 442.99,317.93 L 440.25,321.34 L 438.91,323.01 L 436.38,326.20 L 435.13,327.77 L 432.80,330.77 L 431.65,332.24 L 429.50,335.05 L 427.39,337.82 L 423.67,342.89 L 421.89,345.37 L 418.75,349.95 L 417.24,352.19 L 414.58,356.42 L 413.30,358.51 L 411.02,362.53 L 405.19,374.51 L 404.37,376.40 L 402.98,379.80 L 402.32,381.44 L 401.23,384.45 L 400.71,385.93 L 399.88,388.72 L 399.49,390.11 L 398.89,392.85 L 398.62,394.24 L 398.21,397.10 L 398.03,398.56 L 397.78,401.71 L 397.68,403.33 L 397.56,406.92 L 397.50,413.00 L 397.50,415.21 L 397.59,419.25 L 397.66,421.21 L 397.89,424.83 L 398.02,426.60 L 398.41,429.88 L 398.63,431.50 L 399.20,434.54 L 399.81,437.55 L 401.64,443.21 L 402.15,444.62 L 403.36,447.47 L 405.44,451.88 L 406.79,454.55 L 410.04,459.61 L 411.75,462.08 L 415.75,466.74 L 417.84,469.01 L 422.58,473.27 L 425.05,475.35 L 430.56,479.23 L 433.41,481.12 L 439.69,484.61 L 442.92,486.31 L 449.98,489.42 L 453.60,490.93 L 461.45,493.67 L 474.11,497.38 L 475.89,497.84 L 479.09,498.62 L 480.64,498.98 L 483.42,499.56 L 484.77,499.82 L 487.21,500.21 L 488.40,500.38 L 490.59,500.58 L 492.73,500.74 L 496.61,500.53 L 502.48,499.47 L 504.64,498.93 L 508.47,497.56 L 510.30,496.84 L 513.45,495.12 L 514.95,494.22 L 517.41,492.18 L 518.56,491.12 L 520.32,488.78 L 521.11,487.58 L 522.15,484.96 L 522.58,483.61 L 522.88,480.74 L 522.94,479.27 L 522.49,476.17 L 520.95,471.29 L 520.57,470.39 L 520.24,468.98 L 520.14,468.34 L 520.34,467.51 L 520.50,467.18 L 521.20,467.02 L 522.75,467.61 L 523.41,468.03 L 524.58,469.10 L 525.14,469.67 L 526.11,471.02 L 526.57,471.73 L 527.32,473.31 L 527.67,474.13 L 528.19,475.91 L 528.43,476.82 L 528.72,478.74 L 528.83,479.72 L 528.87,481.75 L 528.86,482.77 L 528.64,484.86 L 528.01,488.01 L 527.74,489.01 L 526.88,490.96 L 526.39,491.92 L 525.13,493.78 L 524.45,494.70 L 522.83,496.44 L 521.98,497.29 L 520.03,498.87 L 519.03,499.65 L 516.81,501.05 L 515.67,501.72 L 513.22,502.91 L 511.96,503.47 L 509.31,504.40 L 505.17,505.50 L 499.84,506.59 L 508.67,511.98 L 510.12,512.86 L 513.07,514.89 L 514.54,515.94 L 517.48,518.24 L 520.41,520.60 L 525.90,525.79 L 527.22,527.11 L 529.66,529.76 L 530.85,531.08 L 532.98,533.69 L 533.99,534.99 L 535.72,537.48 L 537.77,541.00 L 538.70,542.87 L 540.17,546.59 L 540.84,548.44 L 541.77,552.08 L 542.17,553.88 L 542.58,557.38 L 542.72,559.11 L 542.61,562.42 L 542.49,564.04 L 541.85,567.11 L 541.47,568.61 L 540.32,571.39 L 539.69,572.73 L 538.03,575.17 L 534.97,578.37 L 534.36,578.88 L 533.23,579.64 L 532.66,579.99 L 531.49,580.45 L 530.88,580.65 L 529.51,580.88 L 527.03,581.00 L 525.96,581.00 L 524.38,580.89 L 523.65,580.80 L 522.50,580.41 L 521.94,580.16 L 520.90,579.34 L 519.10,577.47 L 518.31,576.56 L 517.17,574.71 L 516.67,573.79 L 516.16,572.06 L 515.98,571.24 L 516.14,569.85 L 517.19,568.38 L 517.53,568.17 L 518.34,568.38 L 519.44,569.49 L 520.20,570.81 L 522.03,572.77 L 522.97,573.64 L 525.03,574.65 L 526.06,575.02 L 528.14,575.00 L 528.65,574.92 L 529.65,574.57 L 531.08,573.72 L 531.69,573.24 L 532.75,572.15 L 533.26,571.59 L 534.12,570.32 L 534.92,569.02 L 535.92,565.97 L 536.32,564.38 L 536.52,560.88 L 536.52,559.09 L 535.96,555.27 L 535.58,553.34 L 534.28,549.36 L 533.55,547.37 L 531.54,543.37 L 530.45,541.38 L 527.76,537.51 L 522.99,532.01 L 521.43,530.45 L 518.13,527.46 L 516.46,525.99 L 512.98,523.21 L 511.21,521.85 L 507.58,519.30 L 505.75,518.06 L 502.00,515.76 L 500.12,514.65 L 496.30,512.63 L 494.38,511.66 L 490.52,509.94 L 488.59,509.12 L 484.72,507.72 L 478.96,505.99 L 474.40,504.83 L 465.25,502.02 L 460.71,500.55 L 451.99,497.27 L 449.86,496.43 L 445.77,494.70 L 443.77,493.82 L 439.97,492.05 L 438.12,491.16 L 434.68,489.37 L 430.00,486.69 L 426.50,484.54 L 429.87,489.02 L 430.44,489.77 L 431.83,491.73 L 432.57,492.76 L 434.21,495.16 L 435.90,497.63 L 439.59,503.22 L 440.50,504.62 L 442.27,507.38 L 443.14,508.74 L 444.75,511.30 L 445.53,512.55 L 446.87,514.76 L 448.46,517.50 L 449.38,519.15 L 451.17,522.73 L 452.06,524.57 L 453.78,528.47 L 455.48,532.45 L 458.57,541.08 L 460.05,545.47 L 462.57,554.53 L 465.49,568.00 L 465.94,570.61 L 467.06,576.47 L 467.33,577.88 L 467.84,580.42 L 468.50,583.50 L 469.15,586.33 L 470.25,592.50 L 470.69,595.14 L 469.81,590.35 L 469.34,588.07 L 468.88,585.87 L 468.65,584.90 L 468.22,583.04 L 468.02,582.27 L 467.63,580.84 L 467.46,580.31 L 467.14,579.38 L 467.00,579.13 L 466.43,577.91 L 465.86,576.60 L 465.51,575.78 L 464.77,574.02 L 464.37,573.04 L 463.55,571.03 L 463.13,570.00 L 460.74,564.29 L 458.92,560.20 L 457.94,558.07 L 453.82,549.41 L 451.68,545.22 L 449.55,541.08 L 448.51,539.13 L 446.46,535.34 L 445.50,533.64 L 443.63,530.39 L 442.79,529.03 L 441.56,527.09 L 442.20,527.97 L 443.14,529.30 L 444.76,531.68 L 445.52,532.82 L 446.77,534.85 L 448.26,537.50 L 448.57,538.10 L 449.13,539.03 L 449.40,539.45 L 449.88,540.02 L 450.10,540.25 L 450.44,540.40 L 450.78,540.14 L 450.81,540.04 L 450.73,539.57 L 450.66,539.30 L 450.40,538.49 L 450.24,538.05 L 449.82,536.95 L 449.58,536.37 L 449.01,535.02 L 448.41,533.62 L 446.85,530.23 L 446.02,528.47 L 444.12,524.64 L 443.02,522.45 L 440.49,517.84 L 439.19,515.51 L 436.37,510.80 L 434.94,508.46 L 431.99,503.90 L 427.56,497.50 L 426.35,495.83 L 424.11,492.74 L 423.02,491.23 L 421.00,488.44 L 420.02,487.08 L 418.21,484.56 L 417.33,483.34 L 415.71,481.07 L 414.93,479.97 L 413.49,477.94 L 412.79,476.94 L 411.51,475.11 L 410.26,473.33 L 408.19,470.27 L 407.21,468.81 L 405.56,466.26 L 404.78,465.02 L 403.44,462.78 L 399.92,456.32 L 398.94,454.40 L 397.27,450.88 L 396.48,449.17 L 395.16,445.95 L 394.53,444.36 L 393.52,441.26 L 393.05,439.71 L 392.30,436.57 L 391.96,434.97 L 391.46,431.60 L 391.23,429.87 L 390.93,426.10 L 390.80,424.16 L 390.66,419.82 L 390.59,412.50 L 390.59,410.42 L 390.61,406.90 L 390.63,405.24 L 390.68,402.44 L 390.71,401.11 L 390.81,398.86 L 390.87,397.78 L 391.03,395.92 L 391.21,394.12 L 391.84,390.99 L 392.03,390.20 L 392.48,388.53 L 393.31,385.73 L 394.17,382.94 L 396.10,377.53 L 397.11,374.84 L 399.42,369.51 L 400.63,366.84 L 403.43,361.42 L 404.90,358.68 L 408.28,353.01 L 410.06,350.13 L 414.13,344.05 L 416.26,340.94 L 421.12,334.27 L 422.39,332.56 L 425.09,329.01 L 426.47,327.20 L 429.40,323.44 L 430.90,321.54 L 434.08,317.56 L 439.14,311.31 L 440.70,309.41 L 443.63,305.78 L 445.08,304.00 L 447.79,300.61 L 449.12,298.94 L 451.62,295.76 L 452.85,294.20 L 455.16,291.21 L 457.42,288.26 L 461.43,282.84 L 463.36,280.20 L 466.80,275.24 L 468.46,272.80 L 471.44,268.12 L 472.88,265.80 L 475.54,261.22 L 476.84,258.93 L 479.29,254.26 L 482.86,246.97 L 484.80,242.86 L 488.22,234.20 L 489.85,229.84 L 492.55,221.01 L 493.80,216.62 L 495.64,208.11 L 496.04,206.02 L 496.66,201.98 L 497.30,196.20 L 497.72,190.90 L 492.44,201.70 L 490.98,204.69 L 490.88,204.89 L 493.22,199.95 L 494.28,197.28 L 496.25,191.94 L 497.04,189.23 L 498.49,183.79 L 499.02,180.98 L 499.97,175.32 L 500.27,172.36 L 500.76,166.36 L 500.84,163.19 L 500.89,156.73 L 500.77,153.30 L 500.46,147.47 L 500.13,143.87 L 499.91,142.19 L 499.42,138.88 L 499.11,137.31 L 498.62,135.12 M 451.89,555.79 L 452.19,556.13 L 452.37,556.47 L 452.75,557.25 L 452.98,557.80 L 453.46,559.01 L 453.74,559.77 L 454.55,562.14 L 453.64,560.53 L 453.35,560.12 L 452.92,559.76 L 452.73,559.66 L 452.43,560.04 L 452.30,560.33 L 452.06,561.62 L 452.00,562.01 L 451.88,562.98 L 451.68,564.77 L 451.49,566.63 L 450.81,570.24 L 450.42,572.02 L 449.35,575.52 L 448.75,577.26 L 448.06,578.84 L 449.18,575.83 L 449.64,574.03 L 450.44,570.41 L 450.67,568.54 L 451.00,564.77 L 451.00,562.81 L 451.03,559.97 L 451.07,558.44 L 451.11,557.86 L 451.21,556.82 L 451.28,556.47 L 451.43,555.90 L 451.53,555.79 L 451.75,555.68 M 426.29,507.44 L 428.01,509.55 L 431.14,513.46 L 432.66,515.37 L 433.17,516.02 L 432.52,515.21 L 428.80,510.54 L 426.81,508.10 L 422.96,503.37 M 486.47,213.09 L 483.18,218.48 L 481.47,221.17 L 477.67,226.60 L 475.68,229.35 L 472.72,233.08 L 478.07,225.95 L 480.79,221.94 L 486.21,213.46 L 487.62,210.99 M 141.01,186.78 L 143.82,189.14 L 145.40,190.19 L 148.68,192.21 L 150.50,193.09 L 154.52,194.72 L 156.23,195.20 L 154.39,194.79 L 150.23,193.13 L 148.19,192.19 L 144.31,189.60 L 142.42,188.20 L 140.88,186.66 M 177.50,190.93 L 177.33,191.06 L 177.71,190.76 M 162.76,190.97 L 163.48,190.98 L 162.35,191.03 L 161.04,190.92 L 159.85,190.77 M 166.27,190.79 L 164.97,190.91 L 164.94,190.91 L 167.56,190.51 M 152.93,188.73 L 154.51,189.44 L 157.77,190.36 L 159.18,190.68 L 158.43,190.59 L 157.15,190.27 L 154.59,189.51 L 153.34,188.97 L 150.88,187.79 L 150.06,187.27 M 167.87,190.44 L 172.63,188.84 L 168.85,190.22 M 148.38,186.13 L 148.48,186.21 L 147.39,185.46 L 146.47,184.67 M 138.77,184.50 L 138.15,183.82 L 137.95,183.55 M 133.89,177.55 L 133.53,176.94 L 133.47,176.80 M 131.33,171.46 L 132.00,173.25 L 133.17,176.09 L 132.01,173.38 L 131.32,171.55 L 130.37,167.70 M 139.25,176.00 L 139.16,175.88 L 139.09,175.75 M 136.17,168.43 L 137.79,173.15 L 138.10,173.85 L 137.21,172.13 L 136.55,170.06 L 135.94,167.93 L 135.70,166.79 L 135.40,165.13 M 130.33,167.55 L 130.31,167.46 L 130.28,167.31 M 129.28,159.84 L 129.23,159.24 L 129.10,156.54 L 129.09,155.88 M 136.04,141.98 L 138.27,143.42 L 138.88,143.81 L 140.66,144.80 L 143.28,146.10 L 144.04,146.44 L 145.13,147.30 L 145.35,147.51 L 145.62,147.91 L 145.70,148.42 L 145.64,148.61 L 145.29,148.93 L 145.08,149.08 L 144.49,149.33 L 143.85,149.56 L 142.14,149.78 L 141.25,149.85 L 139.43,149.73 L 137.18,149.09 L 136.75,148.87 L 136.14,148.68 L 135.86,148.64 L 135.48,148.94 L 135.31,149.16 L 135.05,150.08 L 134.68,152.33 L 134.63,152.65 L 134.65,149.79 L 134.75,147.10 L 134.83,146.00 L 135.02,143.98 L 135.15,143.29 L 135.42,142.12 L 135.58,141.91 L 136.14,140.97 L 136.61,140.03 L 136.88,139.44 L 137.62,137.73 M 146.70,106.35 L 145.29,107.30 L 142.61,109.42 L 141.98,109.94 L 140.87,110.97 L 139.52,112.42 L 138.54,113.61 L 136.70,116.52 L 135.81,118.02 L 134.30,121.21 L 133.60,122.79 L 132.63,125.77 L 132.43,126.49 L 132.16,127.79 L 132.00,129.51 L 132.00,130.40 L 132.14,131.41 L 132.20,131.60 L 132.35,131.78 L 132.43,131.83 L 132.66,131.73 L 132.79,131.65 L 133.11,131.26 L 133.28,131.04 L 133.70,130.37 L 133.92,130.00 L 134.45,129.03 L 134.73,128.51 L 135.38,127.24 L 135.72,126.56 L 136.59,125.04 L 137.05,124.26 L 138.13,122.55 L 138.33,122.25 L 137.33,123.99 L 135.20,127.91 L 134.31,129.89 L 132.64,133.87 L 131.97,135.88 L 130.76,139.92 L 130.32,141.96 L 129.55,146.07 L 129.33,148.15 L 129.02,152.26 L 129.02,152.20 L 129.01,150.43 L 128.92,147.43 L 128.86,146.02 L 128.65,143.71 L 128.53,142.63 L 128.19,140.94 L 127.53,139.06 L 126.83,137.70 L 125.94,135.06 L 125.57,133.74 L 125.36,130.99 L 125.34,129.58 L 125.79,126.49 L 127.23,121.21 L 127.56,120.22 L 128.15,118.41 L 128.43,117.55 L 128.88,116.12 L 129.08,115.46 L 129.33,114.57 L 129.44,114.00 L 129.41,114.00 L 128.85,114.19 L 128.50,114.32 L 127.39,114.72 L 126.78,114.94 L 125.28,115.50 L 122.74,116.44 L 120.12,117.43 L 114.75,119.02 L 112.06,119.75 L 106.77,120.78 L 104.15,121.22 L 99.19,121.66 L 92.40,121.59 L 89.73,121.35 L 91.37,121.45 L 95.29,121.60 L 97.31,121.54 L 101.38,121.33 L 103.45,121.09 L 107.62,120.52 L 109.71,120.11 L 113.90,119.20 L 115.99,118.61 L 120.15,117.36 L 122.19,116.61 L 126.26,115.02 L 128.23,114.11 L 130.56,113.04 L 132.45,112.19 L 133.51,111.71 L 138.05,109.69 L 140.47,108.63 L 145.31,106.51 L 147.47,105.57 L 148.86,104.97 M 138.43,135.64 L 138.48,135.50 L 138.87,134.65 M 141.28,129.38 L 141.45,128.99 L 142.42,127.35 M 155.38,111.47 L 153.13,113.69 L 149.36,117.86 L 147.57,119.92 L 144.62,123.92 L 143.47,125.57 L 144.00,124.68 L 145.52,122.56 L 148.74,118.34 L 150.57,116.30 L 154.38,112.26 L 156.48,110.33 L 160.80,106.54 L 161.19,106.25 M 138.97,121.26 L 139.25,120.82 L 139.39,120.63 M 73.60,117.13 L 72.69,116.80 L 72.16,116.53 M 482.06,103.30 L 483.30,104.86 L 485.65,108.14 L 486.80,109.80 L 488.95,113.24 L 491.04,116.71 L 491.19,117.02 L 490.94,116.57 L 490.00,115.00 L 486.54,109.55 L 484.24,106.25 L 483.08,104.75 L 480.88,102.04 M 98.33,115.98 L 95.78,115.88 L 95.17,115.84 L 95.48,115.85 L 99.23,115.82 L 100.86,115.78 M 59.77,109.02 L 61.61,110.37 L 65.38,112.96 L 67.40,114.09 L 69.32,115.10 L 67.74,114.31 L 65.32,112.98 L 60.83,109.83 L 58.64,108.18 L 56.42,106.07 M 120.80,111.15 L 120.88,111.20 L 120.96,111.31 L 120.87,111.41 L 119.98,111.83 L 118.82,112.23 L 118.02,112.46 L 116.30,112.96 L 115.29,113.23 L 113.18,113.78 L 112.06,114.05 L 111.37,114.19 L 111.68,114.10 L 112.67,113.78 L 113.11,113.62 L 113.70,113.35 L 113.94,113.22 L 114.12,113.01 L 114.16,112.92 L 113.93,112.78 L 113.76,112.72 L 113.12,112.66 L 112.75,112.63 L 111.70,112.65 L 109.65,112.78 L 108.27,112.89 L 105.15,112.81 L 103.54,112.72 L 100.07,112.26 L 98.33,111.99 L 99.55,112.15 L 102.75,112.49 L 104.35,112.56 L 107.54,112.64 L 109.12,112.57 L 112.28,112.38 L 113.84,112.18 L 116.96,111.71 L 118.50,111.38 L 120.43,111.12 M 83.26,113.78 L 83.13,113.75 L 82.04,113.37 M 80.77,112.92 L 80.50,112.83 L 80.12,112.66 M 73.58,109.77 L 72.42,109.25 L 71.22,108.54 M 87.28,109.13 L 87.18,109.10 L 83.51,107.77 L 81.70,107.07 L 81.03,106.78 M 77.53,61.54 L 78.34,61.62 L 79.96,62.10 L 82.33,63.30 L 83.19,63.86 L 84.31,65.21 L 84.77,65.89 L 85.08,67.15 L 85.10,67.44 L 84.99,67.93 L 84.91,68.15 L 84.58,68.47 L 84.38,68.60 L 83.83,68.69 L 82.75,68.52 L 81.70,68.19 L 79.84,67.75 L 78.95,67.57 L 77.38,67.43 L 76.64,67.40 L 75.35,67.56 L 74.75,67.69 L 73.74,68.17 L 73.26,68.45 L 72.51,69.26 L 72.17,69.70 L 71.66,70.84 L 71.43,71.45 L 71.16,72.92 L 71.00,75.52 L 71.00,76.48 L 71.25,78.34 L 71.41,79.26 L 72.00,81.04 L 72.33,81.93 L 73.24,83.64 L 73.74,84.49 L 74.99,86.13 L 75.65,86.94 L 77.24,88.51 L 78.07,89.29 L 79.99,90.79 L 80.99,91.53 L 83.24,92.97 L 87.00,95.04 L 88.91,96.00 L 92.59,97.44 L 94.46,98.08 L 98.49,98.95 L 99.55,99.14 L 101.84,99.43 L 103.02,99.56 L 105.60,99.75 L 106.93,99.83 L 109.88,99.93 L 114.79,99.99 L 116.63,99.99 L 120.12,99.91 L 121.84,99.86 L 125.09,99.67 L 128.29,99.45 L 134.10,98.66 L 136.92,98.20 L 142.13,96.91 L 149.50,94.36 L 151.20,93.65 L 154.40,92.34 L 155.97,91.70 L 158.92,90.50 L 161.81,89.33 L 166.92,87.33 L 169.38,86.38 L 173.79,84.75 L 175.92,83.99 L 179.81,82.68 L 181.71,82.07 L 185.28,81.02 L 187.03,80.53 L 190.46,79.68 L 192.17,79.28 L 195.65,78.57 L 201.13,77.59 L 202.15,77.42 L 204.70,77.14 L 205.40,77.07 L 207.02,76.95 L 207.88,76.89 L 209.86,76.79 L 210.90,76.74 L 213.31,76.65 L 214.57,76.60 L 217.48,76.53 L 219.00,76.49 L 222.48,76.43 L 224.30,76.40 L 228.42,76.35 L 230.57,76.33 L 235.40,76.29 L 237.91,76.27 L 243.53,76.25 L 246.45,76.24 L 252.92,76.22 L 256.28,76.22 L 263.68,76.21 L 267.50,76.21 L 275.91,76.21 L 278.07,76.21 L 282.61,76.22 L 284.91,76.22 L 289.72,76.23 L 292.15,76.23 L 297.25,76.24 L 299.83,76.24 L 305.21,76.25 L 307.94,76.26 L 313.62,76.27 L 322.50,76.29 L 326.44,76.30 L 333.93,76.31 L 337.61,76.32 L 344.59,76.33 L 348.02,76.34 L 354.51,76.35 L 357.70,76.36 L 363.73,76.37 L 366.68,76.38 L 372.26,76.39 L 375.00,76.40 L 380.15,76.42 L 382.68,76.43 L 387.42,76.45 L 389.75,76.46 L 394.11,76.49 L 396.24,76.50 L 400.23,76.53 L 402.18,76.55 L 405.83,76.59 L 407.61,76.62 L 410.93,76.67 L 412.55,76.69 L 415.56,76.75 L 417.03,76.78 L 419.76,76.86 L 421.09,76.89 L 423.55,76.98 L 425.94,77.07 L 430.02,77.29 L 431.96,77.40 L 435.24,77.69 L 436.79,77.84 L 439.42,78.21 L 440.67,78.40 L 442.82,78.85 L 443.85,79.08 L 445.68,79.63 L 447.46,80.20 L 450.73,81.67 L 451.58,82.07 L 453.41,82.97 L 453.57,83.05 L 453.40,82.96 L 451.56,82.07 L 450.70,81.67 L 447.38,80.20 L 445.57,79.63 L 443.71,79.08 L 442.67,78.84 L 440.50,78.40 L 439.24,78.20 L 436.60,77.84 L 435.05,77.69 L 431.78,77.41 L 429.86,77.29 L 425.81,77.08 L 423.44,76.99 L 421.01,76.91 L 419.69,76.87 L 417.00,76.81 L 415.55,76.78 L 412.59,76.72 L 410.99,76.70 L 407.73,76.65 L 405.98,76.63 L 402.39,76.60 L 400.48,76.58 L 396.56,76.56 L 394.47,76.55 L 390.19,76.53 L 387.92,76.52 L 383.27,76.51 L 380.80,76.51 L 375.76,76.50 L 373.08,76.50 L 367.63,76.49 L 364.74,76.49 L 358.85,76.49 L 355.74,76.49 L 349.39,76.50 L 346.05,76.50 L 339.24,76.50 L 335.65,76.50 L 328.34,76.50 L 324.50,76.50 L 308.72,76.50 L 298.96,76.51 L 294.43,76.51 L 285.62,76.52 L 281.55,76.53 L 273.64,76.55 L 270.01,76.56 L 262.96,76.58 L 259.74,76.59 L 253.50,76.62 L 250.67,76.64 L 245.19,76.68 L 242.73,76.70 L 237.96,76.74 L 235.83,76.77 L 231.74,76.82 L 229.92,76.85 L 226.44,76.91 L 224.92,76.94 L 222.01,77.01 L 220.76,77.05 L 218.37,77.13 L 217.36,77.18 L 215.45,77.27 L 214.66,77.32 L 213.18,77.42 L 212.58,77.48 L 211.48,77.59 L 211.05,77.66 L 210.28,77.78 L 210.00,77.85 L 205.36,78.91 L 203.94,79.21 L 203.35,79.32 L 202.27,79.51 L 201.92,79.56 L 199.51,80.06 L 197.44,80.61 L 196.20,80.99 L 193.57,81.81 L 192.06,82.32 L 188.93,83.40 L 187.19,84.03 L 183.61,85.35 L 181.67,86.09 L 177.69,87.61 L 175.57,88.45 L 171.26,90.18 L 168.99,91.11 L 164.39,93.00 L 162.00,94.01 L 158.05,95.67 L 155.63,96.69 L 154.51,97.16 L 150.29,98.91 L 148.49,99.63 L 145.08,100.99 L 143.61,101.55 L 140.82,102.59 L 139.58,103.02 L 137.18,103.81 L 136.06,104.14 L 133.86,104.75 L 132.75,105.02 L 130.53,105.53 L 129.34,105.77 L 126.88,106.25 L 125.50,106.50 L 118.24,107.56 L 113.75,107.91 L 111.58,107.90 L 107.27,107.78 L 105.07,107.54 L 100.60,106.94 L 98.21,106.47 L 90.18,104.31 L 85.08,102.37 L 82.68,101.17 L 77.98,98.60 L 75.79,97.10 L 71.53,93.95 L 69.58,92.18 L 68.68,91.30 L 70.41,92.83 L 71.89,94.09 L 74.78,96.30 L 75.47,96.80 L 76.77,97.66 L 78.50,98.68 L 78.92,98.90 L 79.58,99.22 L 79.88,99.37 L 80.28,99.53 L 80.45,99.59 L 80.57,99.57 L 80.59,99.53 L 80.42,99.31 L 80.30,99.18 L 79.81,98.74 L 79.53,98.49 L 78.72,97.82 L 78.27,97.45 L 77.11,96.52 L 74.97,94.81 L 73.96,94.02 L 72.12,92.19 L 71.23,91.25 L 69.65,89.19 L 68.89,88.14 L 67.60,85.93 L 66.99,84.81 L 66.02,82.53 L 65.58,81.38 L 64.95,79.10 L 64.69,77.97 L 64.45,75.77 L 64.38,74.69 L 64.55,72.66 L 65.30,69.88 L 65.71,68.91 L 66.72,67.22 L 67.26,66.41 L 68.48,65.03 L 69.11,64.39 L 70.50,63.35 L 71.22,62.87 L 72.73,62.18 L 73.50,61.89 L 75.09,61.57 L 75.90,61.46 M 149.71,107.56 L 150.42,106.75 L 150.56,106.61 M 69.11,107.28 L 67.46,106.30 L 65.21,104.56 L 63.85,103.42 M 151.09,106.05 L 150.95,106.20 L 151.31,105.80 M 66.74,98.24 L 70.83,101.30 L 73.09,102.68 L 77.60,105.24 L 76.54,104.74 L 73.43,103.04 L 69.30,100.35 L 67.62,99.10 L 65.34,97.12 M 51.63,101.03 L 54.45,104.19 L 52.71,102.41 L 51.47,100.84 M 62.66,102.41 L 60.87,100.91 L 60.22,100.21 M 477.23,98.12 L 477.97,98.91 L 477.10,98.00 M 47.46,95.44 L 49.47,98.31 L 49.22,97.99 L 47.54,95.71 L 46.86,94.55 M 64.40,96.30 L 63.03,95.04 L 61.87,93.79 M 55.36,94.66 L 55.27,94.56 L 54.70,93.71 M 45.05,91.45 L 44.60,90.69 L 44.44,90.34 M 211.62,85.16 L 208.27,85.65 L 201.87,86.93 L 198.73,87.62 L 192.87,89.30 L 194.31,88.79 L 199.80,87.26 L 202.69,86.65 L 208.60,85.52 L 211.80,85.09 L 218.39,84.31 L 222.03,84.03 L 218.45,84.31 M 50.48,86.79 L 51.04,87.88 L 50.72,87.36 L 49.52,84.75 L 49.51,84.73 M 459.21,85.73 L 460.08,86.22 L 458.54,85.42 M 47.67,80.29 L 47.30,79.42 L 46.72,77.37 M 50.31,75.82 L 49.78,74.56 L 49.60,74.05 M 45.49,72.51 L 45.07,70.82 L 44.89,69.42 M 50.80,54.05 L 51.17,57.04 L 52.40,62.84 L 53.09,65.70 L 54.74,70.52 L 53.67,67.86 L 52.90,65.20 L 51.59,59.68 L 50.94,55.83 L 50.72,53.83 L 50.36,49.81 L 50.33,49.15 M 48.01,69.32 L 47.67,68.25 L 47.23,66.48 M 46.54,63.72 L 45.18,56.50 L 46.85,64.96 M 44.33,64.08 L 44.10,61.67 L 44.15,58.50 L 44.11,61.08 M 52.26,25.82 L 52.33,25.50 L 52.82,23.63 L 52.83,23.57 M 476.82,713.90 L 475.84,711.81 L 474.02,707.59 L 473.31,705.39 L 473.30,705.38 L 474.02,707.58 L 475.84,711.81 L 476.81,713.89 L 479.16,717.93 L 483.28,723.86 L 479.16,717.93 Z" fill="rgba(154,198,203,1)"/>
<path d="M 464.99,1203.08 L 463.82,1202.72 L 461.45,1201.64 L 460.27,1201.05 L 457.94,1199.56 L 456.78,1198.76 L 454.52,1196.91 L 453.41,1195.94 L 451.28,1193.78 L 450.23,1192.66 L 448.27,1190.23 L 447.32,1188.99 L 445.57,1186.35 L 444.74,1185.01 L 443.26,1182.21 L 441.40,1177.89 L 440.33,1174.97 L 438.76,1168.91 L 438.08,1165.84 L 437.29,1159.42 L 437.00,1156.17 L 437.00,1149.35 L 437.10,1145.89 L 437.89,1138.62 L 438.38,1134.93 L 439.97,1127.16 L 440.86,1123.21 L 443.25,1114.89 L 444.55,1110.65 L 447.75,1101.73 L 453.48,1087.62 L 454.25,1085.84 L 455.62,1082.58 L 456.26,1081.02 L 457.31,1078.40 L 457.54,1077.80 L 457.93,1076.77 L 458.11,1076.28 L 458.38,1075.51 L 458.50,1075.16 L 458.64,1074.68 L 458.67,1074.34 L 458.62,1074.29 L 458.19,1074.62 L 457.94,1074.85 L 457.18,1075.67 L 456.77,1076.13 L 455.78,1077.33 L 454.14,1079.43 L 453.86,1079.80 L 453.07,1080.78 L 452.64,1081.31 L 451.58,1082.55 L 451.03,1083.20 L 449.76,1084.65 L 449.11,1085.40 L 447.67,1087.01 L 446.20,1088.65 L 442.95,1092.20 L 437.93,1097.53 L 435.78,1099.78 L 432.01,1103.90 L 430.21,1105.91 L 427.07,1109.64 L 425.58,1111.46 L 423.04,1114.88 L 421.84,1116.57 L 419.83,1119.78 L 418.88,1121.36 L 417.34,1124.46 L 416.63,1126.00 L 415.51,1129.07 L 415.00,1130.61 L 414.24,1133.75 L 413.46,1138.65 L 413.28,1140.26 L 413.37,1143.39 L 413.49,1144.92 L 414.10,1147.64 L 414.47,1148.91 L 415.51,1150.88 L 415.79,1151.31 L 416.42,1151.97 L 417.45,1152.62 L 417.88,1152.78 L 418.55,1153.45 L 419.00,1154.61 L 419.00,1154.92 L 418.80,1155.38 L 418.67,1155.59 L 418.24,1155.84 L 417.77,1156.05 L 416.35,1155.89 L 415.60,1155.72 L 413.90,1154.88 L 411.44,1152.93 L 410.72,1152.17 L 409.76,1150.98 L 409.35,1150.37 L 408.90,1148.85 L 408.81,1148.42 L 408.69,1147.34 L 408.64,1146.76 L 408.59,1145.33 L 408.57,1144.56 L 408.56,1142.66 L 408.58,1139.18 L 408.58,1137.96 L 408.62,1135.89 L 408.64,1134.90 L 408.70,1133.22 L 408.78,1131.61 L 409.13,1129.13 L 409.34,1127.95 L 410.07,1125.73 L 411.74,1121.81 L 412.89,1119.31 L 415.22,1115.01 L 416.45,1112.90 L 419.48,1108.68 L 420.32,1107.58 L 422.25,1105.23 L 423.26,1104.03 L 425.61,1101.37 L 426.85,1099.99 L 429.73,1096.90 L 434.71,1091.65 L 436.29,1090.00 L 439.23,1086.85 L 440.67,1085.30 L 443.32,1082.32 L 444.61,1080.85 L 447.00,1078.01 L 448.16,1076.60 L 450.28,1073.87 L 452.35,1071.17 L 455.76,1065.96 L 457.35,1063.38 L 459.90,1058.25 L 461.07,1055.67 L 462.86,1050.39 L 463.67,1047.71 L 464.80,1042.05 L 465.29,1039.15 L 465.87,1032.88 L 466.23,1022.54 L 466.25,1019.87 L 466.07,1014.57 L 465.95,1011.94 L 465.49,1006.68 L 465.23,1004.06 L 464.48,998.80 L 464.07,996.17 L 463.03,990.88 L 462.47,988.22 L 461.13,982.84 L 460.41,980.14 L 458.75,974.64 L 457.88,971.87 L 455.90,966.21 L 452.56,957.50 L 451.99,956.10 L 450.62,952.89 L 449.91,951.24 L 448.34,947.70 L 446.74,944.13 L 443.42,937.05 L 442.62,935.37 L 441.14,932.33 L 440.42,930.89 L 439.20,928.50 L 438.92,927.96 L 438.42,927.04 L 438.19,926.61 L 437.79,925.94 L 437.61,925.64 L 437.34,925.24 L 437.09,925.00 L 437.05,925.00 L 436.97,925.23 L 436.93,925.38 L 436.86,925.89 L 436.79,926.46 L 436.67,928.31 L 436.61,929.33 L 436.53,931.88 L 436.48,936.25 L 436.47,937.89 L 436.40,940.87 L 436.35,942.32 L 436.17,944.98 L 435.97,947.58 L 435.17,952.15 L 434.70,954.38 L 433.27,958.69 L 430.28,965.50 L 428.93,968.22 L 425.82,973.11 L 424.21,975.45 L 420.67,979.55 L 418.85,981.49 L 415.02,984.73 L 413.08,986.23 L 409.09,988.54 L 407.09,989.57 L 403.08,990.87 L 402.08,991.13 L 400.11,991.44 L 399.12,991.57 L 397.19,991.61 L 396.24,991.60 L 394.36,991.36 L 393.44,991.20 L 391.64,990.67 L 390.76,990.36 L 389.06,989.53 L 386.64,987.93 L 385.76,987.24 L 384.66,985.66 L 384.00,982.99 L 384.00,982.22 L 384.34,980.91 L 384.54,980.31 L 385.13,979.49 L 385.44,979.17 L 386.07,979.08 L 386.22,979.11 L 386.50,979.35 L 386.83,980.00 L 386.90,980.19 L 387.22,980.72 L 387.40,981.01 L 387.92,981.68 L 389.89,983.79 L 390.47,984.32 L 391.45,985.05 L 391.94,985.37 L 393.01,985.72 L 393.58,985.86 L 395.06,985.90 L 398.10,985.72 L 399.15,985.62 L 401.25,985.18 L 402.30,984.92 L 404.36,984.16 L 405.39,983.74 L 407.41,982.68 L 408.41,982.12 L 410.37,980.78 L 412.30,979.38 L 415.93,975.86 L 417.70,973.98 L 420.88,969.64 L 422.41,967.38 L 425.04,962.39 L 426.28,959.83 L 428.23,954.38 L 429.12,951.61 L 430.28,945.86 L 431.00,937.10 L 431.00,936.00 L 430.89,933.56 L 430.81,932.30 L 430.55,929.53 L 430.40,928.11 L 429.98,925.00 L 429.75,923.41 L 429.19,919.96 L 428.88,918.19 L 428.16,914.40 L 427.78,912.46 L 426.90,908.31 L 426.44,906.19 L 425.40,901.68 L 423.67,894.50 L 423.32,893.10 L 422.68,890.50 L 422.37,889.24 L 421.80,886.91 L 421.24,884.64 L 420.31,880.79 L 419.87,878.97 L 419.15,875.86 L 418.81,874.38 L 418.25,871.83 L 417.99,870.60 L 417.56,868.41 L 417.35,867.34 L 417.00,865.33 L 416.08,859.00 L 415.84,857.13 L 415.42,853.65 L 415.23,851.95 L 414.92,848.76 L 414.63,845.64 L 414.36,839.99 L 414.28,837.23 L 414.39,831.93 L 414.97,823.85 L 415.26,821.09 L 416.04,815.56 L 416.48,812.79 L 417.59,807.17 L 418.18,804.34 L 419.65,798.52 L 420.43,795.58 L 422.28,789.46 L 423.26,786.35 L 425.53,779.83 L 426.73,776.50 L 429.45,769.48 L 430.87,765.89 L 434.08,758.25 L 439.47,746.00 L 440.24,744.30 L 441.67,741.11 L 442.37,739.56 L 443.67,736.64 L 444.94,733.79 L 447.13,728.76 L 448.17,726.33 L 449.98,721.96 L 450.85,719.83 L 452.38,715.86 L 453.86,711.95 L 456.39,704.29 L 457.02,702.30 L 458.29,698.05 L 460.31,691.00 L 460.68,689.67 L 461.39,686.77 L 461.74,685.29 L 462.38,682.11 L 463.02,678.87 L 464.11,671.71 L 464.62,668.05 L 465.45,660.29 L 465.83,656.36 L 466.39,648.31 L 466.63,644.28 L 466.89,636.26 L 466.99,632.29 L 466.93,624.63 L 466.87,620.87 L 466.48,613.88 L 466.36,612.19 L 466.06,608.99 L 465.50,604.50 L 464.99,601.00 L 463.62,593.83 L 462.87,590.22 L 461.03,582.82 L 460.05,579.09 L 457.74,571.47 L 453.74,559.77 L 453.46,559.01 L 452.98,557.80 L 452.75,557.25 L 452.37,556.47 L 452.19,556.13 L 451.89,555.79 L 451.75,555.68 L 451.53,555.79 L 451.43,555.90 L 451.28,556.47 L 451.21,556.82 L 451.11,557.86 L 451.07,558.44 L 451.03,559.97 L 451.00,562.81 L 451.00,564.77 L 450.67,568.54 L 450.44,570.41 L 449.64,574.03 L 449.18,575.83 L 447.87,579.35 L 447.15,581.10 L 445.32,584.57 L 444.33,586.30 L 441.94,589.78 L 440.67,591.52 L 437.69,595.05 L 436.12,596.83 L 432.52,600.46 L 426.40,606.09 L 424.31,607.90 L 420.61,611.31 L 418.84,612.99 L 415.72,616.15 L 414.24,617.71 L 411.68,620.67 L 410.47,622.13 L 408.45,624.92 L 407.51,626.30 L 405.99,628.97 L 405.29,630.29 L 404.25,632.88 L 403.79,634.16 L 403.20,636.70 L 402.79,640.51 L 402.76,641.52 L 402.82,643.17 L 402.87,643.94 L 403.09,645.20 L 403.22,645.79 L 403.64,646.76 L 404.50,648.00 L 405.06,648.62 L 405.52,649.74 L 405.65,650.27 L 405.34,651.08 L 405.11,651.43 L 404.14,651.76 L 402.09,651.53 L 401.44,651.32 L 400.31,650.49 L 399.78,650.01 L 398.90,648.69 L 398.50,647.98 L 397.88,646.28 L 397.60,645.39 L 397.26,643.38 L 397.12,642.35 L 397.06,640.14 L 397.06,639.02 L 397.29,636.68 L 397.45,635.51 L 397.99,633.16 L 399.16,629.69 L 399.46,628.97 L 400.30,627.27 L 400.75,626.38 L 401.80,624.51 L 402.34,623.57 L 403.48,621.76 L 405.12,619.34 L 408.92,614.19 L 400.71,614.31 L 399.83,614.32 L 398.29,614.32 L 397.54,614.31 L 396.23,614.27 L 394.96,614.21 L 392.85,613.90 L 391.81,613.70 L 389.78,613.05 L 386.24,611.57 L 384.64,610.84 L 381.56,608.93 L 380.06,607.92 L 377.36,605.61 L 376.08,604.43 L 374.03,601.97 L 371.96,598.38 L 371.82,598.04 L 371.58,596.98 L 371.47,596.41 L 371.28,595.03 L 371.00,590.51 L 371.00,589.44 L 371.11,587.72 L 371.19,586.93 L 371.51,585.61 L 371.71,584.98 L 372.31,583.83 L 373.59,582.08 L 374.30,581.23 L 375.96,579.90 L 376.37,579.62 L 377.11,579.24 L 378.04,579.00 L 378.47,579.00 L 379.00,579.13 L 379.20,579.23 L 379.24,579.74 L 379.19,580.07 L 378.71,581.20 L 378.56,581.54 L 378.15,582.36 L 377.38,583.87 L 376.82,584.95 L 376.07,586.57 L 375.76,587.33 L 375.46,588.59 L 375.36,589.21 L 375.44,590.46 L 375.93,592.74 L 376.28,594.05 L 377.27,596.35 L 377.81,597.46 L 379.25,599.44 L 380.02,600.40 L 381.98,602.14 L 385.60,604.61 L 386.76,605.29 L 389.09,606.37 L 390.26,606.87 L 392.64,607.61 L 393.84,607.93 L 396.29,608.31 L 397.52,608.45 L 400.05,608.48 L 401.33,608.45 L 403.96,608.12 L 405.29,607.91 L 408.03,607.23 L 409.42,606.84 L 412.29,605.80 L 416.77,603.85 L 419.09,602.73 L 423.49,599.80 L 425.65,598.23 L 429.64,594.55 L 431.58,592.63 L 435.07,588.36 L 436.75,586.17 L 439.64,581.49 L 441.00,579.11 L 443.18,574.19 L 444.18,571.72 L 445.57,566.73 L 446.15,564.25 L 446.65,559.36 L 446.71,558.15 L 446.65,555.79 L 446.27,552.34 L 446.01,550.88 L 445.35,548.10 L 444.98,546.72 L 443.96,543.94 L 443.39,542.54 L 441.88,539.54 L 441.06,538.00 L 438.91,534.57 L 438.33,533.68 L 437.02,531.77 L 436.34,530.79 L 434.83,528.70 L 434.05,527.63 L 432.31,525.32 L 431.41,524.14 L 429.43,521.60 L 428.40,520.30 L 426.16,517.49 L 425.00,516.05 L 422.48,512.95 L 421.19,511.36 L 418.37,507.94 L 413.79,502.42 L 412.49,500.86 L 410.06,497.91 L 408.86,496.46 L 406.63,493.74 L 405.54,492.40 L 403.49,489.88 L 402.49,488.64 L 400.62,486.30 L 398.80,484.00 L 395.61,479.86 L 394.09,477.85 L 391.43,474.19 L 390.15,472.40 L 387.90,469.05 L 386.81,467.40 L 384.86,464.21 L 379.59,454.50 L 377.61,450.52 L 374.27,442.70 L 372.69,438.82 L 370.16,431.17 L 368.99,427.37 L 367.25,419.88 L 365.53,408.79 L 365.37,407.17 L 364.90,403.96 L 364.65,402.41 L 364.13,399.86 L 364.00,399.29 L 363.76,398.39 L 363.65,397.99 L 363.45,397.49 L 363.36,397.29 L 363.21,397.26 L 363.09,397.85 L 363.06,398.18 L 362.68,399.54 L 362.43,400.32 L 361.67,402.42 L 361.25,403.54 L 360.21,406.15 L 359.66,407.51 L 358.43,410.42 L 357.17,413.37 L 354.47,419.25 L 353.82,420.65 L 352.57,423.16 L 350.91,426.31 L 348.92,429.84 L 344.49,436.48 L 342.21,439.73 L 337.30,445.71 L 334.80,448.62 L 329.51,453.87 L 326.84,456.40 L 321.29,460.84 L 318.50,462.94 L 312.79,466.48 L 309.94,468.13 L 304.19,470.68 L 302.75,471.26 L 299.90,472.20 L 298.47,472.64 L 295.64,473.32 L 294.23,473.62 L 291.43,474.01 L 287.30,474.27 L 285.16,474.29 L 281.28,473.79 L 279.41,473.46 L 276.06,472.24 L 274.44,471.54 L 271.56,469.58 L 267.72,465.79 L 267.09,465.01 L 266.18,463.67 L 265.78,463.01 L 265.25,461.68 L 265.03,460.98 L 264.78,459.32 L 264.61,456.12 L 264.58,454.46 L 264.98,451.53 L 265.26,450.14 L 266.22,447.87 L 266.76,446.83 L 268.21,445.36 L 268.60,445.04 L 269.46,444.59 L 270.85,444.18 L 271.51,444.08 L 272.35,444.16 L 272.68,444.24 L 272.87,444.73 L 272.88,445.03 L 272.42,445.98 L 271.00,448.00 L 270.42,448.74 L 269.58,450.88 L 269.02,454.35 L 269.02,455.44 L 269.35,457.48 L 269.58,458.46 L 270.35,460.27 L 270.80,461.14 L 271.99,462.70 L 272.64,463.44 L 274.22,464.73 L 275.05,465.33 L 277.00,466.33 L 278.01,466.79 L 280.29,467.49 L 281.47,467.79 L 284.06,468.16 L 288.26,468.32 L 289.73,468.28 L 292.67,467.95 L 294.14,467.74 L 297.08,467.06 L 298.55,466.67 L 301.49,465.63 L 302.97,465.06 L 305.93,463.65 L 307.41,462.90 L 310.40,461.13 L 311.90,460.20 L 314.93,458.06 L 316.44,456.94 L 319.51,454.42 L 324.17,450.21 L 326.52,447.97 L 330.90,443.23 L 333.03,440.81 L 337.01,435.66 L 338.95,433.03 L 342.58,427.37 L 344.36,424.47 L 347.69,418.21 L 349.32,414.99 L 352.40,408.03 L 353.91,404.46 L 356.79,396.70 L 358.20,392.72 L 360.93,384.07 L 364.89,370.00 L 365.84,366.36 L 367.71,359.74 L 368.64,356.53 L 370.51,350.67 L 371.45,347.81 L 373.37,342.56 L 374.35,340.00 L 376.39,335.23 L 377.44,332.89 L 379.66,328.46 L 380.80,326.27 L 383.27,322.05 L 384.54,319.95 L 387.30,315.80 L 391.86,309.50 L 392.01,309.29 L 392.47,308.73 L 392.73,308.43 L 393.37,307.68 L 394.07,306.89 L 395.96,304.80 L 396.98,303.68 L 399.47,301.01 L 400.78,299.61 L 403.77,296.45 L 405.31,294.82 L 408.71,291.27 L 410.45,289.46 L 414.16,285.62 L 426.01,273.50 L 428.36,271.12 L 432.76,266.62 L 434.92,264.41 L 438.96,260.23 L 440.94,258.18 L 444.64,254.30 L 446.44,252.39 L 449.82,248.76 L 451.47,246.98 L 454.55,243.59 L 456.06,241.92 L 458.86,238.74 L 460.23,237.17 L 462.79,234.17 L 464.04,232.69 L 466.36,229.83 L 468.64,227.01 L 472.60,221.70 L 474.49,219.08 L 477.84,213.99 L 479.45,211.45 L 482.36,206.37 L 486.43,198.50 L 487.25,196.82 L 488.65,193.77 L 489.32,192.28 L 490.43,189.51 L 491.48,186.78 L 492.87,181.56 L 493.17,180.23 L 493.62,177.45 L 493.82,176.02 L 494.12,172.96 L 494.25,171.38 L 494.42,167.88 L 494.56,162.00 L 494.59,159.81 L 494.56,155.86 L 494.52,153.95 L 494.34,150.46 L 494.23,148.76 L 493.88,145.62 L 493.68,144.08 L 493.14,141.15 L 492.54,138.26 L 490.66,132.64 L 490.13,131.21 L 488.85,128.24 L 486.61,123.50 L 485.25,120.77 L 482.08,115.66 L 480.42,113.16 L 476.67,108.56 L 474.73,106.32 L 470.45,102.24 L 468.25,100.28 L 463.49,96.77 L 461.05,95.08 L 455.84,92.17 L 453.19,90.79 L 447.59,88.50 L 444.74,87.43 L 438.78,85.79 L 429.50,84.11 L 429.13,84.06 L 427.92,83.98 L 427.24,83.93 L 425.43,83.85 L 424.46,83.81 L 422.09,83.74 L 420.85,83.70 L 417.97,83.63 L 416.47,83.60 L 413.11,83.53 L 411.38,83.50 L 407.58,83.44 L 405.63,83.41 L 401.44,83.36 L 399.30,83.33 L 394.75,83.28 L 392.43,83.26 L 387.56,83.22 L 385.09,83.20 L 379.93,83.16 L 374.72,83.13 L 363.62,83.07 L 357.99,83.05 L 346.28,83.01 L 340.38,83.00 L 328.38,82.99 L 322.38,82.99 L 310.41,83.00 L 304.45,83.01 L 292.82,83.05 L 287.08,83.07 L 276.10,83.12 L 273.41,83.14 L 268.21,83.18 L 265.64,83.19 L 260.71,83.24 L 258.29,83.26 L 253.67,83.31 L 251.41,83.33 L 247.14,83.38 L 245.06,83.41 L 241.18,83.47 L 239.30,83.50 L 235.85,83.56 L 234.19,83.60 L 231.22,83.67 L 229.79,83.70 L 227.32,83.78 L 226.16,83.82 L 224.24,83.90 L 222.03,84.03 L 218.39,84.31 L 211.80,85.09 L 208.60,85.52 L 202.69,86.65 L 199.80,87.26 L 194.31,88.79 L 186.27,91.61 L 183.51,92.70 L 178.14,95.29 L 175.49,96.65 L 170.39,99.72 L 167.88,101.30 L 163.13,104.77 L 160.80,106.54 L 156.48,110.33 L 154.38,112.26 L 150.57,116.30 L 148.74,118.34 L 145.52,122.56 L 144.00,124.68 L 141.45,128.99 L 138.48,135.50 L 137.98,136.88 L 136.88,139.44 L 136.61,140.03 L 136.14,140.97 L 135.58,141.91 L 135.42,142.12 L 135.15,143.29 L 135.02,143.98 L 134.83,146.00 L 134.75,147.10 L 134.65,149.79 L 134.62,154.41 L 134.64,156.06 L 134.77,159.06 L 134.85,160.51 L 135.12,163.16 L 135.27,164.44 L 135.70,166.79 L 135.94,167.93 L 136.55,170.06 L 137.21,172.13 L 139.16,175.88 L 143.19,181.39 L 144.17,182.52 L 146.30,184.51 L 147.39,185.46 L 149.71,187.05 L 150.88,187.79 L 153.34,188.97 L 154.59,189.51 L 157.15,190.27 L 158.43,190.59 L 161.04,190.92 L 162.35,191.03 L 164.97,190.91 L 166.27,190.79 L 168.85,190.22 L 172.63,188.84 L 174.16,188.12 L 176.55,186.45 L 177.64,185.57 L 179.16,183.53 L 179.82,182.46 L 180.53,180.00 L 180.70,175.75 L 180.64,175.02 L 180.63,173.81 L 180.65,173.24 L 180.78,172.35 L 180.86,171.95 L 181.12,171.39 L 181.26,171.15 L 181.61,170.94 L 181.79,170.87 L 182.23,171.00 L 182.45,171.11 L 182.94,171.60 L 183.19,171.88 L 183.72,172.73 L 184.53,174.41 L 184.99,175.52 L 185.28,177.81 L 185.32,178.97 L 184.76,181.34 L 184.38,182.54 L 182.99,184.99 L 179.96,188.72 L 179.00,189.70 L 176.93,191.39 L 175.87,192.18 L 173.63,193.47 L 172.48,194.06 L 170.09,194.94 L 168.88,195.34 L 166.37,195.81 L 165.10,196.00 L 162.50,196.07 L 161.19,196.05 L 158.54,195.71 L 157.21,195.48 L 154.52,194.72 L 150.50,193.09 L 148.68,192.21 L 145.40,190.19 L 143.82,189.14 L 141.01,186.78 L 139.67,185.55 L 137.32,182.82 L 136.21,181.42 L 134.32,178.32 L 133.43,176.72 L 132.00,173.25 L 131.33,171.46 L 130.34,167.59 L 129.90,165.61 L 129.35,161.33 L 129.02,154.46 L 129.01,152.33 L 129.33,148.15 L 129.55,146.07 L 130.32,141.96 L 130.76,139.92 L 131.97,135.88 L 132.64,133.87 L 134.31,129.89 L 135.20,127.91 L 137.33,123.99 L 138.45,122.03 L 141.05,118.14 L 142.40,116.20 L 145.46,112.35 L 150.58,106.58 L 151.09,106.05 L 151.92,105.11 L 152.29,104.67 L 152.80,103.99 L 153.01,103.69 L 153.16,103.33 L 152.90,103.25 L 152.22,103.54 L 150.49,104.28 L 149.57,104.67 L 147.47,105.57 L 145.31,106.51 L 140.47,108.63 L 138.05,109.69 L 133.51,111.71 L 132.45,112.19 L 130.56,113.04 L 128.23,114.11 L 126.26,115.02 L 122.19,116.61 L 120.15,117.36 L 115.99,118.61 L 113.90,119.20 L 109.71,120.11 L 107.62,120.52 L 103.45,121.09 L 101.38,121.33 L 97.31,121.54 L 95.29,121.60 L 91.37,121.45 L 89.44,121.33 L 85.74,120.81 L 80.50,119.60 L 78.15,118.91 L 73.70,117.18 L 71.52,116.26 L 67.40,114.09 L 65.38,112.96 L 61.61,110.37 L 59.77,109.02 L 56.35,106.01 L 54.68,104.45 L 51.63,101.03 L 50.14,99.27 L 47.46,95.44 L 46.16,93.48 L 43.85,89.26 L 40.82,82.50 L 40.30,81.16 L 39.58,78.83 L 39.27,77.64 L 38.89,74.94 L 38.81,74.20 L 38.69,72.48 L 38.64,71.58 L 38.58,69.46 L 38.56,68.33 L 38.53,65.69 L 38.52,61.00 L 38.53,59.22 L 38.55,56.19 L 38.56,54.76 L 38.61,52.33 L 38.64,51.18 L 38.75,49.20 L 38.81,48.25 L 38.98,46.58 L 39.17,44.96 L 39.83,42.04 L 40.02,41.29 L 40.49,39.69 L 41.36,37.00 L 42.20,34.46 L 43.99,29.93 L 44.90,27.76 L 46.85,23.96 L 47.84,22.15 L 49.96,19.05 L 53.35,15.13 L 56.84,11.77 L 54.50,18.21 L 53.87,19.94 L 52.82,23.63 L 52.33,25.50 L 51.55,29.41 L 51.20,31.38 L 50.70,35.44 L 50.49,37.47 L 50.28,41.59 L 50.21,43.65 L 50.28,47.76 L 50.36,49.81 L 50.72,53.83 L 50.94,55.83 L 51.59,59.68 L 52.90,65.20 L 53.67,67.86 L 55.70,72.91 L 56.80,75.38 L 59.47,80.02 L 60.87,82.28 L 64.12,86.46 L 65.81,88.49 L 69.58,92.18 L 71.53,93.95 L 75.79,97.10 L 77.98,98.60 L 82.68,101.17 L 85.08,102.37 L 90.18,104.31 L 98.21,106.47 L 100.60,106.94 L 105.07,107.54 L 107.27,107.78 L 111.58,107.90 L 113.75,107.91 L 118.24,107.56 L 125.50,106.50 L 126.88,106.25 L 129.34,105.77 L 130.53,105.53 L 132.75,105.02 L 133.86,104.75 L 136.06,104.14 L 137.18,103.81 L 139.58,103.02 L 140.82,102.59 L 143.61,101.55 L 145.08,100.99 L 148.49,99.63 L 150.29,98.91 L 154.51,97.16 L 155.63,96.69 L 158.05,95.67 L 162.00,94.01 L 164.39,93.00 L 168.99,91.11 L 171.26,90.18 L 175.57,88.45 L 177.69,87.61 L 181.67,86.09 L 183.61,85.35 L 187.19,84.03 L 188.93,83.40 L 192.06,82.32 L 193.57,81.81 L 196.20,80.99 L 197.44,80.61 L 199.51,80.06 L 201.92,79.56 L 202.27,79.51 L 203.35,79.32 L 203.94,79.21 L 205.36,78.91 L 210.00,77.85 L 210.28,77.78 L 211.05,77.66 L 211.48,77.59 L 212.58,77.48 L 213.18,77.42 L 214.66,77.32 L 215.45,77.27 L 217.36,77.18 L 218.37,77.13 L 220.76,77.05 L 222.01,77.01 L 224.92,76.94 L 226.44,76.91 L 229.92,76.85 L 231.74,76.82 L 235.83,76.77 L 237.96,76.74 L 242.73,76.70 L 245.19,76.68 L 250.67,76.64 L 253.50,76.62 L 259.74,76.59 L 262.96,76.58 L 270.01,76.56 L 273.64,76.55 L 281.55,76.53 L 285.62,76.52 L 294.43,76.51 L 298.96,76.51 L 308.72,76.50 L 324.50,76.50 L 328.34,76.50 L 335.65,76.50 L 339.24,76.50 L 346.05,76.50 L 349.39,76.50 L 355.74,76.49 L 358.85,76.49 L 364.74,76.49 L 367.63,76.49 L 373.08,76.50 L 375.76,76.50 L 380.80,76.51 L 383.27,76.51 L 387.92,76.52 L 390.19,76.53 L 394.47,76.55 L 396.56,76.56 L 400.48,76.58 L 402.39,76.60 L 405.98,76.63 L 407.73,76.65 L 410.99,76.70 L 412.59,76.72 L 415.55,76.78 L 417.00,76.81 L 419.69,76.87 L 421.01,76.91 L 423.44,76.99 L 425.81,77.08 L 429.86,77.29 L 431.78,77.41 L 435.05,77.69 L 436.60,77.84 L 439.24,78.20 L 440.50,78.40 L 442.67,78.84 L 443.71,79.08 L 445.57,79.63 L 447.38,80.20 L 450.70,81.67 L 451.56,82.07 L 453.40,82.96 L 456.50,84.45 L 458.48,85.39 L 462.12,87.28 L 463.88,88.23 L 467.13,90.21 L 468.70,91.21 L 471.63,93.33 L 473.05,94.41 L 475.72,96.73 L 477.02,97.92 L 479.50,100.51 L 480.72,101.84 L 483.08,104.75 L 484.24,106.25 L 486.54,109.55 L 490.00,115.00 L 490.94,116.57 L 492.61,119.59 L 493.41,121.08 L 494.79,123.99 L 496.11,126.90 L 498.01,132.74 L 498.43,134.23 L 499.11,137.31 L 499.42,138.88 L 499.91,142.19 L 500.13,143.87 L 500.46,147.47 L 500.77,153.30 L 500.89,156.73 L 500.84,163.19 L 500.76,166.36 L 500.27,172.36 L 499.97,175.32 L 499.02,180.98 L 498.49,183.79 L 497.04,189.23 L 496.25,191.94 L 494.28,197.28 L 493.22,199.95 L 490.68,205.30 L 489.34,207.98 L 486.21,213.46 L 480.79,221.94 L 478.07,225.95 L 472.40,233.50 L 470.91,235.42 L 467.65,239.37 L 465.96,241.38 L 462.18,245.67 L 460.20,247.87 L 455.73,252.69 L 454.56,253.94 L 452.06,256.57 L 450.78,257.90 L 448.05,260.73 L 446.66,262.17 L 443.67,265.22 L 442.15,266.77 L 438.89,270.07 L 437.22,271.75 L 433.66,275.32 L 427.97,281.00 L 426.32,282.65 L 423.21,285.77 L 421.69,287.30 L 418.84,290.19 L 417.44,291.61 L 414.84,294.30 L 413.56,295.62 L 411.18,298.12 L 408.86,300.59 L 404.81,305.04 L 402.87,307.21 L 399.51,311.20 L 397.90,313.15 L 395.09,316.82 L 393.74,318.64 L 391.35,322.17 L 390.19,323.93 L 388.08,327.48 L 385.09,333.00 L 383.77,335.57 L 381.43,340.68 L 380.30,343.23 L 378.34,348.31 L 377.41,350.85 L 375.83,355.95 L 375.09,358.51 L 373.87,363.67 L 373.31,366.26 L 372.46,371.52 L 372.08,374.16 L 371.57,379.57 L 371.36,382.29 L 371.20,387.87 L 371.33,396.50 L 371.47,399.64 L 372.03,405.83 L 372.37,408.90 L 373.32,414.95 L 373.85,417.96 L 375.21,423.88 L 375.93,426.82 L 377.68,432.62 L 378.61,435.50 L 380.76,441.16 L 381.88,443.98 L 384.43,449.53 L 385.75,452.29 L 388.70,457.72 L 393.57,465.74 L 394.36,466.96 L 395.74,469.05 L 396.41,470.06 L 397.67,471.91 L 398.31,472.83 L 399.67,474.69 L 400.37,475.65 L 402.01,477.78 L 402.89,478.91 L 405.01,481.56 L 405.58,482.27 L 406.84,483.82 L 407.49,484.63 L 408.94,486.40 L 409.70,487.32 L 411.36,489.34 L 412.22,490.38 L 414.12,492.68 L 415.10,493.87 L 417.26,496.49 L 420.83,500.79 L 422.80,503.17 L 426.81,508.10 L 428.80,510.54 L 432.52,515.21 L 433.41,516.33 L 435.07,518.43 L 435.87,519.45 L 437.30,521.30 L 437.99,522.19 L 439.15,523.72 L 440.52,525.57 L 441.19,526.50 L 442.79,529.03 L 443.63,530.39 L 445.50,533.64 L 446.46,535.34 L 448.51,539.13 L 449.55,541.08 L 451.68,545.22 L 453.82,549.41 L 457.94,558.07 L 458.92,560.20 L 460.74,564.29 L 463.13,570.00 L 463.55,571.03 L 464.37,573.04 L 464.77,574.02 L 465.51,575.78 L 465.86,576.60 L 466.43,577.91 L 467.00,579.13 L 467.14,579.38 L 467.46,580.31 L 467.63,580.84 L 468.02,582.27 L 468.22,583.04 L 468.65,584.90 L 468.88,585.87 L 469.34,588.07 L 469.81,590.35 L 470.78,595.62 L 472.14,604.00 L 472.25,604.74 L 472.45,606.48 L 472.54,607.39 L 472.71,609.43 L 472.86,611.54 L 473.08,616.50 L 473.18,619.07 L 473.27,624.70 L 473.31,627.56 L 473.28,633.53 L 473.26,636.52 L 473.12,642.48 L 473.03,645.42 L 472.78,651.04 L 472.64,653.78 L 472.27,658.72 L 472.17,659.90 L 471.96,662.07 L 471.60,665.00 L 471.14,668.33 L 470.55,674.54 L 470.31,677.58 L 470.18,683.25 L 470.17,686.02 L 470.50,691.22 L 470.72,693.76 L 471.53,698.56 L 472.00,700.92 L 473.31,705.39 L 474.02,707.59 L 475.84,711.81 L 476.82,713.90 L 479.16,717.93 L 483.28,723.86 L 484.59,725.56 L 487.55,728.66 L 489.07,730.16 L 492.39,732.83 L 494.09,734.11 L 497.66,736.31 L 499.47,737.35 L 503.18,739.04 L 505.04,739.82 L 508.79,740.94 L 510.65,741.43 L 514.32,741.95 L 516.13,742.13 L 519.61,741.99 L 524.49,741.00 L 525.77,740.58 L 528.26,739.22 L 529.47,738.48 L 531.63,736.66 L 532.64,735.72 L 534.19,733.70 L 535.55,730.71 L 535.79,729.60 L 536.20,728.07 L 536.40,727.42 L 536.82,726.72 L 537.04,726.46 L 537.58,726.46 L 538.63,727.11 L 539.07,727.48 L 539.55,728.53 L 539.72,729.10 L 539.70,730.48 L 539.63,731.20 L 539.18,732.81 L 538.90,733.64 L 538.05,735.37 L 537.59,736.24 L 536.42,737.99 L 535.80,738.86 L 534.36,740.52 L 533.61,741.33 L 531.95,742.81 L 529.27,744.69 L 528.21,745.32 L 526.47,746.19 L 525.62,746.57 L 523.88,747.02 L 522.96,747.21 L 520.67,747.38 L 520.04,747.41 L 518.57,747.43 L 516.00,747.43 L 514.41,747.42 L 511.72,747.28 L 510.44,747.20 L 508.20,746.89 L 507.11,746.71 L 505.12,746.20 L 502.17,745.16 L 500.14,744.33 L 496.23,742.28 L 494.30,741.20 L 490.61,738.69 L 488.80,737.38 L 485.38,734.46 L 483.70,732.96 L 480.60,729.68 L 479.09,728.00 L 476.34,724.42 L 475.02,722.59 L 472.68,718.75 L 471.57,716.80 L 469.68,712.75 L 467.41,706.50 L 466.92,704.85 L 465.96,702.03 L 465.74,701.42 L 465.37,700.49 L 464.98,699.71 L 464.89,699.61 L 464.55,700.02 L 464.36,700.33 L 463.86,701.45 L 463.60,702.08 L 463.00,703.75 L 462.08,706.71 L 461.92,707.25 L 461.51,708.58 L 461.28,709.29 L 460.74,710.92 L 460.18,712.62 L 458.77,716.62 L 453.98,729.51 L 452.93,732.22 L 451.13,736.98 L 450.28,739.26 L 448.86,743.30 L 448.19,745.24 L 447.10,748.73 L 446.59,750.43 L 445.80,753.54 L 445.43,755.07 L 444.89,757.98 L 444.65,759.42 L 444.32,762.30 L 444.18,763.75 L 444.02,766.77 L 443.92,771.63 L 443.92,772.81 L 443.94,774.90 L 443.96,775.91 L 444.02,777.73 L 444.09,779.48 L 444.39,782.46 L 444.57,783.91 L 445.15,786.70 L 446.41,791.29 L 447.11,793.57 L 448.80,797.91 L 449.70,800.06 L 451.79,804.14 L 452.89,806.14 L 455.38,809.95 L 456.67,811.82 L 459.55,815.34 L 461.04,817.07 L 464.29,820.30 L 465.97,821.88 L 469.61,824.81 L 471.47,826.24 L 475.47,828.87 L 481.89,832.47 L 482.77,832.91 L 484.72,833.68 L 485.72,834.04 L 487.84,834.65 L 489.99,835.21 L 494.37,835.81 L 495.45,835.91 L 497.49,835.97 L 498.48,835.98 L 500.30,835.84 L 501.17,835.75 L 502.67,835.40 L 504.44,834.63 L 505.33,834.05 L 506.84,832.48 L 507.54,831.64 L 508.59,829.74 L 509.05,828.77 L 509.53,826.78 L 509.48,823.93 L 509.28,823.02 L 509.32,821.84 L 509.39,821.36 L 509.89,821.06 L 510.19,821.02 L 511.04,821.60 L 512.59,823.50 L 513.00,824.12 L 513.47,825.55 L 513.65,826.28 L 513.69,827.87 L 513.65,828.67 L 513.30,830.33 L 513.07,831.17 L 512.36,832.83 L 511.97,833.65 L 510.94,835.22 L 510.39,835.99 L 509.09,837.41 L 508.41,838.08 L 506.87,839.25 L 504.33,840.64 L 503.15,841.13 L 500.36,841.68 L 498.91,841.89 L 495.68,841.87 L 494.02,841.80 L 490.47,841.21 L 484.94,839.71 L 482.55,838.90 L 477.84,836.74 L 475.50,835.58 L 470.95,832.79 L 468.70,831.33 L 464.40,828.00 L 462.29,826.27 L 458.31,822.47 L 456.37,820.52 L 452.81,816.34 L 451.08,814.21 L 448.01,809.72 L 446.54,807.45 L 444.04,802.75 L 441.01,795.54 L 440.72,794.70 L 440.16,792.60 L 439.89,791.50 L 439.37,788.99 L 438.87,786.41 L 438.06,780.70 L 437.89,779.28 L 437.61,776.51 L 437.49,775.15 L 437.33,772.61 L 437.27,771.39 L 437.26,769.25 L 437.43,766.68 L 437.52,766.00 L 437.63,765.00 L 437.67,764.56 L 437.65,764.10 L 437.62,763.94 L 437.45,764.08 L 437.34,764.22 L 436.98,765.03 L 436.78,765.52 L 436.21,767.05 L 435.90,767.91 L 435.10,770.24 L 434.67,771.50 L 433.61,774.69 L 431.69,780.50 L 430.63,783.73 L 428.79,789.58 L 427.92,792.41 L 426.43,797.59 L 425.73,800.12 L 424.57,804.81 L 424.03,807.11 L 423.16,811.48 L 422.35,815.80 L 421.48,824.22 L 421.31,826.36 L 421.11,830.80 L 421.00,837.88 L 421.00,839.88 L 421.06,843.48 L 421.10,845.24 L 421.26,848.58 L 421.36,850.24 L 421.68,853.58 L 421.86,855.27 L 422.37,858.86 L 422.65,860.72 L 423.39,864.85 L 423.80,867.01 L 424.81,871.94 L 425.08,873.23 L 425.69,876.02 L 426.00,877.44 L 426.68,880.52 L 427.04,882.10 L 427.81,885.50 L 429.07,891.00 L 429.38,892.32 L 430.25,895.05 L 430.51,895.79 L 431.21,897.53 L 431.59,898.45 L 432.58,900.67 L 433.12,901.86 L 434.47,904.73 L 435.20,906.26 L 437.01,909.96 L 437.49,910.95 L 438.56,913.10 L 439.11,914.21 L 440.31,916.63 L 440.93,917.88 L 442.28,920.59 L 444.49,925.00 L 446.31,928.63 L 449.59,935.41 L 451.18,938.73 L 454.02,944.98 L 455.40,948.04 L 457.85,953.87 L 459.03,956.74 L 461.14,962.26 L 462.16,965.00 L 463.96,970.34 L 464.83,973.00 L 466.37,978.28 L 467.11,980.93 L 468.44,986.26 L 470.24,994.46 L 470.71,996.76 L 471.37,1000.83 L 471.66,1002.85 L 472.04,1007.08 L 472.12,1008.19 L 472.24,1010.61 L 472.29,1011.86 L 472.36,1014.65 L 472.38,1016.11 L 472.41,1019.39 L 472.42,1025.00 L 472.41,1028.26 L 472.28,1034.16 L 472.19,1037.02 L 471.86,1042.29 L 471.66,1044.87 L 471.08,1049.75 L 470.76,1052.16 L 469.88,1056.89 L 469.40,1059.25 L 468.18,1064.06 L 467.52,1066.50 L 465.91,1071.63 L 465.05,1074.25 L 462.99,1079.93 L 459.37,1089.34 L 458.50,1091.50 L 456.91,1095.58 L 456.13,1097.58 L 454.69,1101.35 L 453.99,1103.20 L 452.70,1106.69 L 452.07,1108.41 L 450.93,1111.65 L 449.82,1114.83 L 448.02,1120.55 L 447.18,1123.32 L 445.87,1128.38 L 445.27,1130.85 L 444.40,1135.47 L 444.02,1137.75 L 443.54,1142.14 L 443.35,1144.33 L 443.22,1148.71 L 443.34,1155.50 L 443.43,1157.45 L 443.75,1161.14 L 443.93,1162.95 L 444.45,1166.36 L 444.73,1168.04 L 445.43,1171.20 L 445.81,1172.76 L 446.73,1175.68 L 447.21,1177.12 L 448.33,1179.82 L 448.91,1181.14 L 450.24,1183.64 L 450.93,1184.86 L 452.48,1187.16 L 455.06,1190.41 L 456.06,1191.56 L 458.63,1193.84 L 459.96,1194.96 L 462.79,1196.93 L 464.18,1197.84 L 466.75,1199.15 L 467.35,1199.42 L 468.42,1199.78 L 469.74,1200.00 L 470.18,1200.00 L 470.84,1200.09 L 471.13,1200.16 L 471.53,1200.40 L 471.69,1200.54 L 471.84,1200.94 L 471.81,1201.75 L 471.72,1202.24 L 471.11,1202.95 L 470.75,1203.26 L 469.66,1203.59 L 469.07,1203.71 L 467.58,1203.64 L 466.80,1203.56 M 112.06,114.05 L 113.18,113.78 L 115.29,113.23 L 116.30,112.96 L 118.02,112.46 L 118.82,112.23 L 119.98,111.83 L 120.87,111.41 L 120.96,111.31 L 120.88,111.20 L 120.80,111.15 L 120.43,111.12 L 118.50,111.38 L 116.96,111.71 L 113.84,112.18 L 112.28,112.38 L 109.12,112.57 L 107.54,112.64 L 104.35,112.56 L 102.75,112.49 L 99.55,112.15 L 96.34,111.74 L 89.90,110.12 L 80.31,106.51 L 77.76,105.33 L 73.09,102.68 L 70.83,101.30 L 66.74,98.24 L 64.77,96.66 L 61.23,93.16 L 59.53,91.35 L 56.52,87.38 L 55.09,85.34 L 52.60,80.87 L 51.41,78.57 L 49.42,73.58 L 48.48,71.02 L 46.95,65.47 L 45.18,56.50 L 44.26,50.50 L 44.15,58.50 L 44.10,61.67 L 44.68,67.80 L 45.07,70.82 L 46.49,76.58 L 47.30,79.42 L 49.52,84.75 L 50.72,87.36 L 53.69,92.21 L 55.27,94.56 L 58.95,98.84 L 60.87,100.91 L 65.21,104.56 L 67.46,106.30 L 72.42,109.25 L 80.50,112.83 L 83.13,113.75 L 88.21,114.98 L 90.73,115.48 L 95.78,115.88 L 98.33,115.98 L 103.61,115.57 L 106.30,115.26 Z" fill="rgba(16,31,36,1)"/>
</g>
</svg>
